<svg width="24" height="24" viewBox="0 0 24 24" fill="none" xmlns="http://www.w3.org/2000/svg">
<g clip-path="url(#clip0_3090_18615)">
<path d="M22.8 1C23.52 1 24 1.48 24 2.2V19C24 19.72 23.52 20.2 22.8 20.2H5.4L0 24.4V2.2C0 1.48 0.48 1 1.2 1H22.8ZM10.8 7.12L10.32 6.28C8.16 7.24 6.72 9.04 6.72 11.2C6.72 12.4 7.08 13.12 7.68 13.84C8.04 14.2 8.64 14.56 9.36 14.56C10.56 14.56 11.52 13.6 11.52 12.4C11.52 11.32 10.68 10.36 9.6 10.36C9.36 10.36 9.24 10.36 9 10.36V10.12C9 9.64 9.12 8.2 10.8 7.12ZM16.2 6.28C14.04 7.24 12.6 9.04 12.6 11.2C12.6 12.4 12.96 13.12 13.56 13.84C13.92 14.2 14.52 14.56 15.24 14.56C16.44 14.56 17.4 13.6 17.4 12.4C17.4 11.32 16.56 10.36 15.48 10.36C15.24 10.36 15.12 10.36 14.88 10.36C14.88 10 14.88 8.2 16.8 7.12L16.2 6.28Z" fill="#424242"/>
</g>
<defs>
<clipPath id="clip0_3090_18615">
<rect width="24" height="24" fill="white"/>
</clipPath>
</defs>
</svg>
