<svg width="24" height="24" viewBox="0 0 24 24" fill="none" xmlns="http://www.w3.org/2000/svg">
<g clip-path="url(#clip0_3090_18626)">
<path d="M6.39987 5.20016V3.60019C6.39987 3.37929 6.22077 3.2002 5.99988 3.2002H0.399992C0.179098 3.2002 0 3.37929 0 3.60019V5.20016H6.39987Z" fill="#424242"/>
<path d="M0 6.00049V19.2002H6.39987V6.00049H0ZM4.7999 11.2004H1.59997C1.37907 11.2004 1.19998 11.0213 1.19998 10.8004V7.60046C1.19998 7.37956 1.37907 7.20046 1.59997 7.20046H4.7999C5.0208 7.20046 5.1999 7.37956 5.1999 7.60046V10.8004C5.1999 11.0213 5.0208 11.2004 4.7999 11.2004Z" fill="#424242"/>
<path d="M0 21.6001V23.6001C0 23.821 0.179098 24 0.399992 24H5.99988C6.22077 24 6.39987 23.821 6.39987 23.6001V21.6001H0Z" fill="#424242"/>
<path d="M0 20H6.39987V20.8H0V20Z" fill="#424242"/>
<path d="M7.19983 20H12.3997V20.8H7.19983V20Z" fill="#424242"/>
<path d="M12.3997 1.60046V0.40048C12.3997 0.179586 12.2206 0.000488281 11.9997 0.000488281H7.59982C7.37893 0.000488281 7.19983 0.179586 7.19983 0.40048V1.60046H12.3997Z" fill="#424242"/>
<path d="M7.19983 4.40039H12.3997V19.2001H7.19983V4.40039Z" fill="#424242"/>
<path d="M7.19983 21.6001V23.6001C7.19983 23.821 7.37893 24 7.59982 24H11.9997C12.2206 24 12.3997 23.821 12.3997 23.6001V21.6001H7.19983Z" fill="#424242"/>
<path d="M7.19983 2.40039H12.3997V3.60037H7.19983V2.40039Z" fill="#424242"/>
<path d="M13.1902 8.28346L13.4042 9.10512L20.1783 7.29871L19.9641 6.47705L13.1902 8.28346Z" fill="#424242"/>
<path d="M16.5329 21.0972L23.3068 19.2908L22.8779 17.6465L16.1036 19.4529L16.5329 21.0972Z" fill="#424242"/>
<path d="M22.6759 16.8726L20.3805 8.07275L13.6062 9.87916L15.9017 18.679L22.6759 16.8726Z" fill="#424242"/>
<path d="M12.9882 7.50963L19.7619 5.70341L19.1877 3.50053C19.1285 3.28725 18.9106 3.15971 18.6957 3.21264L12.6958 4.81261C12.4839 4.87062 12.3576 5.08761 12.4117 5.30049L12.9882 7.50963Z" fill="#424242"/>
<path d="M23.5087 20.0649L16.7344 21.8714L17.2115 23.7C17.2392 23.8031 17.3068 23.891 17.3996 23.9442C17.4599 23.9807 17.5291 24 17.5996 24C17.6346 24 17.6695 23.9959 17.7035 23.9881L23.7034 22.3881C23.9153 22.3301 24.0417 22.1129 23.9876 21.9001L23.5087 20.0649Z" fill="#424242"/>
</g>
<defs>
<clipPath id="clip0_3090_18626">
<rect width="24" height="24" fill="white"/>
</clipPath>
</defs>
</svg>
