<svg width="24" height="24" viewBox="0 0 24 24" fill="none" xmlns="http://www.w3.org/2000/svg">
<path fill-rule="evenodd" clip-rule="evenodd" d="M7.78463 14.8859V9.11373C7.78463 8.9343 7.83277 8.76362 7.92469 8.61484C8.0122 8.47042 8.13914 8.34789 8.29884 8.25597C8.45639 8.16625 8.62706 8.11811 8.79994 8.11155C8.97281 8.10498 9.14564 8.1378 9.30975 8.21439L15.6158 11.0983C15.8018 11.1836 15.9484 11.3083 16.0513 11.4593C16.1585 11.6169 16.2154 11.8029 16.2154 11.9998C16.2154 12.1967 16.1585 12.3805 16.0513 12.538C15.9484 12.6912 15.8018 12.8159 15.6158 12.8991L9.30975 15.7852C9.14564 15.8596 8.97276 15.8946 8.79994 15.888C8.62706 15.8792 8.45639 15.8311 8.29884 15.7436C8.13914 15.6517 8.0122 15.5292 7.92469 15.3847C7.83277 15.236 7.78463 15.0653 7.78463 14.8859ZM20.6266 2.81641H3.37341C2.45222 2.81641 1.61419 3.19277 1.00589 3.79886C0.399797 4.40716 0.0234375 5.24298 0.0234375 6.16637V17.8333C0.0234375 18.7545 0.399797 19.5925 1.00589 20.1986C1.61419 20.8069 2.45222 21.1833 3.37341 21.1833H20.6266C21.5478 21.1833 22.3858 20.8069 22.992 20.1986C23.6003 19.5925 23.9766 18.7545 23.9766 17.8333V6.16637C23.9766 5.24298 23.6003 4.40716 22.992 3.79886C22.3858 3.19272 21.5478 2.81641 20.6266 2.81641Z" fill="#424242"/>
</svg>
