<svg width="24" height="24" viewBox="0 0 24 24" fill="none" xmlns="http://www.w3.org/2000/svg">
<g clip-path="url(#clip0_3090_18604)">
<path d="M17.9 0H6.1C2.8 0 0 2.8 0 6.1V17.9C0 21.3 2.8 24 6.1 24H17.9C21.3 24 24 21.2 24 17.9V6.1C24 2.8 21.3 0 17.9 0ZM12.3 16.2H8.4L9.5 17.3C9.9 17.7 9.9 18.3 9.5 18.7C9.1 19.1 8.5 19.1 8.1 18.7L5.3 15.9C4.9 15.5 4.9 14.9 5.3 14.5L8.1 11.7C8.5 11.3 9.1 11.3 9.5 11.7C9.9 12.1 9.9 12.7 9.5 13.1L8.4 14.2H12.3C12.9 14.2 13.3 14.6 13.3 15.2C13.3 15.8 12.9 16.2 12.3 16.2ZM18.7 9.5L15.9 12.3C15.5 12.7 14.9 12.7 14.5 12.3C14.1 11.9 14.1 11.3 14.5 10.9L15.6 9.8H11.7C11.1 9.8 10.7 9.4 10.7 8.8C10.7 8.2 11.1 7.8 11.7 7.8H15.6L14.5 6.7C14.1 6.3 14.1 5.7 14.5 5.3C14.9 4.9 15.5 4.9 15.9 5.3L18.7 8.1C19.1 8.5 19.1 9.1 18.7 9.5Z" fill="#424242"/>
</g>
<defs>
<clipPath id="clip0_3090_18604">
<rect width="24" height="24" fill="white"/>
</clipPath>
</defs>
</svg>
