<svg width="24" height="24" viewBox="0 0 24 24" fill="none" xmlns="http://www.w3.org/2000/svg">
<path d="M23.309 0H11.3731C11.1491 0 10.9527 0.147656 10.8881 0.362109C10.6266 1.23066 10.4824 2.1548 10.4732 3.12272C10.4652 3.97214 10.5601 4.79892 10.7463 5.59237C10.8699 6.11888 10.8128 6.66975 10.573 7.15767L8.81977 10.7252C8.59135 11.19 8.83505 11.7428 9.34093 11.9072L10.3368 12.2308C10.5449 12.2985 10.6858 12.4924 10.6858 12.7112V13.8149C10.6858 13.9939 10.7805 14.1594 10.9348 14.2502L12.2863 15.0453C12.5043 15.1736 12.5153 15.4849 12.3068 15.6283L11.3556 16.2824C11.2186 16.3766 11.1367 16.5322 11.1367 16.6985V17.9302C11.1367 18.769 11.8426 19.449 12.7133 19.449H16.254C16.5331 19.449 16.7594 19.6752 16.7594 19.9544V23.309C16.7594 23.6906 17.0687 24 17.4504 24H23.3087C23.6905 24 24 23.6905 24 23.3087V0.691031C24.0001 0.309375 23.6907 0 23.309 0Z" fill="#424242"/>
<path d="M5.38284 11.8831C5.10843 11.6082 4.66322 11.608 4.38848 11.8823C3.49532 12.7742 3.00342 13.96 3.00342 15.2213C3.00342 16.4827 3.49532 17.6685 4.38848 18.5603C4.52578 18.6974 4.70554 18.7659 4.88531 18.7659C5.06545 18.7659 5.24554 18.6971 5.38284 18.5596C5.65725 18.2848 5.65692 17.8396 5.38209 17.5652C4.755 16.9391 4.40967 16.1067 4.40967 15.2214C4.40967 14.336 4.755 13.5036 5.38209 12.8775C5.65692 12.6031 5.65725 12.1579 5.38284 11.8831Z" fill="#424242"/>
<path d="M7.81387 13.2175C7.53946 12.9428 7.09424 12.9424 6.81951 13.2168C6.28335 13.7521 5.98804 14.464 5.98804 15.2213C5.98804 15.9787 6.28335 16.6905 6.81951 17.2259C6.9568 17.363 7.13652 17.4315 7.31633 17.4315C7.49643 17.4315 7.67662 17.3627 7.81387 17.2252C8.08827 16.9504 8.08794 16.5053 7.81311 16.2308C7.54302 15.9611 7.39424 15.6026 7.39424 15.2213C7.39424 14.8401 7.54302 14.4816 7.81311 14.2119C8.0879 13.9375 8.08822 13.4923 7.81387 13.2175Z" fill="#424242"/>
<path d="M1.40625 15.2213C1.40625 13.3173 2.14889 11.5271 3.49734 10.1807C3.77213 9.90625 3.77245 9.46108 3.49809 9.1863C3.22369 8.91147 2.77847 8.91119 2.50373 9.18555C0.889172 10.7977 1.85316e-09 12.9412 1.85316e-09 15.2213C-4.68731e-05 17.5014 0.889172 19.645 2.50373 21.2572C2.64103 21.3942 2.82075 21.4627 3.00056 21.4627C3.18066 21.4627 3.36084 21.3939 3.49809 21.2564C3.7725 20.9816 3.77217 20.5364 3.49734 20.2621C2.14889 18.9155 1.4062 17.1254 1.40625 15.2213Z" fill="#424242"/>
</svg>
