<svg width="24" height="24" viewBox="0 0 24 24" fill="none" xmlns="http://www.w3.org/2000/svg">
<path d="M4.2 1.6C2.87452 1.6 1.8 2.67452 1.8 4V20C1.8 21.3255 2.87452 22.4 4.2 22.4H19.8C21.1255 22.4 22.2 21.3255 22.2 20V9.2L14.6 1.6H4.2ZM4.2 3.2H13.8V8.8C13.8 9.24183 14.1582 9.6 14.6 9.6H20.6V20C20.6 20.4418 20.2418 20.8 19.8 20.8H4.2C3.75817 20.8 3.4 20.4418 3.4 20V4C3.4 3.55817 3.75817 3.2 4.2 3.2ZM6.2 7.2H11.2C11.6418 7.2 12 7.55817 12 8C12 8.44183 11.6418 8.8 11.2 8.8H6.2C5.75817 8.8 5.4 8.44183 5.4 8C5.4 7.55817 5.75817 7.2 6.2 7.2ZM6.2 11H11.2C11.6418 11 12 11.3582 12 11.8C12 12.2418 11.6418 12.6 11.2 12.6H6.2C5.75817 12.6 5.4 12.2418 5.4 11.8C5.4 11.3582 5.75817 11 6.2 11ZM15.6 10.6L17.05 13.55L20 15L17.05 16.45L15.6 19.4L14.15 16.45L11.2 15L14.15 13.55L15.6 10.6Z" fill="#424242"/>
</svg>
