<svg width="24" height="24" viewBox="0 0 24 24" fill="none" xmlns="http://www.w3.org/2000/svg">
<g clip-path="url(#clip0_3090_18639)">
<path d="M17.1158 0.432129V4.9588H21.2179L17.1158 0.432129Z" fill="#424242"/>
<path d="M16.4128 6.36487C16.0245 6.36487 15.7096 6.05006 15.7096 5.66175V0H4.41188C3.29738 0 2.39062 0.90675 2.39062 2.02125V21.9788C2.39062 23.0933 3.29738 24 4.41188 24H19.5881C20.7026 24 21.6094 23.0933 21.6094 21.9788V6.36487H16.4128ZM15.8116 9.71269C16.0862 9.43814 16.5314 9.43814 16.806 9.71269L17.2174 10.1241L18.6922 8.64919C18.9668 8.37464 19.412 8.37464 19.6866 8.64919C19.9612 8.92373 19.9612 9.36895 19.6866 9.64355L17.7146 11.6156C17.5773 11.7529 17.3973 11.8215 17.2174 11.8215C17.0375 11.8215 16.8575 11.7529 16.7203 11.6156L15.8117 10.707C15.5371 10.4325 15.5371 9.98728 15.8116 9.71269ZM15.8116 14.4945C16.0862 14.22 16.5314 14.22 16.806 14.4945L17.2174 14.9059L18.6922 13.431C18.9668 13.1565 19.412 13.1565 19.6866 13.431C19.9612 13.7056 19.9612 14.1508 19.6866 14.4254L17.7146 16.3974C17.5773 16.5347 17.3973 16.6034 17.2174 16.6034C17.0375 16.6034 16.8575 16.5347 16.7203 16.3974L15.8117 15.4889C15.5371 15.2144 15.5371 14.7691 15.8116 14.4945ZM5.8388 2.39189H8.03972C8.42803 2.39189 8.74284 2.7067 8.74284 3.09502C8.74284 3.48333 8.42803 3.79814 8.03972 3.79814H5.8388C5.45048 3.79814 5.13567 3.48333 5.13567 3.09502C5.13567 2.7067 5.45044 2.39189 5.8388 2.39189ZM5.8388 4.83413H10.6226C11.0109 4.83413 11.3257 5.14894 11.3257 5.53725C11.3257 5.92556 11.0109 6.24038 10.6226 6.24038H5.8388C5.45048 6.24038 5.13567 5.92556 5.13567 5.53725C5.13567 5.14894 5.45044 4.83413 5.8388 4.83413ZM13.1007 20.4022H5.8388C5.45048 20.4022 5.13567 20.0874 5.13567 19.6991C5.13567 19.3108 5.45048 18.996 5.8388 18.996H13.1007C13.489 18.996 13.8038 19.3108 13.8038 19.6991C13.8038 20.0874 13.489 20.4022 13.1007 20.4022ZM13.1007 15.7863H5.8388C5.45048 15.7863 5.13567 15.4715 5.13567 15.0832C5.13567 14.6948 5.45048 14.38 5.8388 14.38H13.1007C13.489 14.38 13.8038 14.6948 13.8038 15.0832C13.8038 15.4715 13.489 15.7863 13.1007 15.7863ZM13.1007 11.0045H5.8388C5.45048 11.0045 5.13567 10.6897 5.13567 10.3013C5.13567 9.91303 5.45048 9.59822 5.8388 9.59822H13.1007C13.489 9.59822 13.8038 9.91303 13.8038 10.3013C13.8038 10.6897 13.489 11.0045 13.1007 11.0045ZM19.6867 19.0414L17.7146 21.0134C17.5773 21.1507 17.3974 21.2194 17.2175 21.2194C17.0375 21.2194 16.8576 21.1508 16.7203 21.0134L15.8117 20.1048C15.5371 19.8303 15.5371 19.3851 15.8117 19.1105C16.0863 18.8359 16.5315 18.8359 16.8061 19.1105L17.2175 19.5218L18.6923 18.047C18.9669 17.7724 19.4121 17.7724 19.6867 18.047C19.9612 18.3217 19.9612 18.7669 19.6867 19.0414Z" fill="#424242"/>
</g>
<defs>
<clipPath id="clip0_3090_18639">
<rect width="24" height="24" fill="white"/>
</clipPath>
</defs>
</svg>
