<svg width="24" height="24" viewBox="0 0 24 24" fill="none" xmlns="http://www.w3.org/2000/svg">
<path d="M12 1.2C6.03533 1.2 1.2 6.03533 1.2 12C1.2 17.9647 6.03533 22.8 12 22.8C17.9647 22.8 22.8 17.9647 22.8 12C22.8 6.03533 17.9647 1.2 12 1.2ZM12 3.2C16.8601 3.2 20.8 7.13989 20.8 12C20.8 16.8601 16.8601 20.8 12 20.8C7.13989 20.8 3.2 16.8601 3.2 12C3.2 7.13989 7.13989 3.2 12 3.2ZM11 6.4V12.4142L14.2929 15.7071C14.6834 16.0976 14.6834 16.7308 14.2929 17.1213C13.9024 17.5118 13.2692 17.5118 12.8787 17.1213L9 13.2426V6.4C9 5.84772 9.44772 5.4 10 5.4C10.5523 5.4 11 5.84772 11 6.4Z" fill="#424242"/>
</svg>
