<svg width="24" height="24" viewBox="0 0 24 24" fill="none" xmlns="http://www.w3.org/2000/svg">
<path d="M16.1314 19.4052L12.1841 23.9317C12.0999 24.0162 11.969 24.0256 11.8848 23.9411L11.8754 23.9317L7.90005 19.4052C7.82522 19.3113 7.83457 19.1704 7.92811 19.0953C7.96553 19.0577 8.01229 19.0483 8.06842 19.0389H10.4443V14.1931C10.4443 13.9489 10.6407 13.7517 10.8839 13.7517H13.1756C13.4188 13.7517 13.6152 13.9489 13.6152 14.1931V19.0389H15.9724C16.094 19.0483 16.1875 19.1516 16.1782 19.2737C16.1782 19.33 16.1595 19.3676 16.1314 19.4052ZM23.9886 11.7889C23.9231 13.3103 22.9971 14.4184 21.7811 15.2449C20.5651 16.0807 19.134 16.1276 17.6841 16.0525H15.168V14.1837C15.168 13.0661 14.2606 12.1552 13.1475 12.1552H10.8652C9.7521 12.1646 8.85414 13.0755 8.86349 14.1931V16.0901H6.45956C5.74867 16.0431 5.00037 16.0337 4.25206 15.921C1.50205 15.4797 -0.368716 12.8877 0.0615589 10.1267C0.445065 7.70375 2.5029 5.90064 4.9536 5.86308L5.40258 5.8349C6.39409 2.04086 8.87284 -0.0909346 12.2309 0.00297721C15.1586 0.0781067 18.0396 2.04086 18.7224 5.78795C22.8381 6.53924 24.1383 7.97609 23.9886 11.7889Z" fill="#424242"/>
</svg>
