<svg width="24" height="24" viewBox="0 0 24 24" fill="none" xmlns="http://www.w3.org/2000/svg">
<path d="M21.1875 0H2.8125C1.25999 0 0 1.25999 0 2.8125V21.1875C0 22.74 1.25999 24 2.8125 24H21.1875C22.74 24 24 22.74 24 21.1875V2.8125C24 1.25999 22.74 0 21.1875 0ZM18.6225 12.75H5.37749C4.3965 12.7324 4.38885 11.2692 5.37753 11.25C5.37749 11.25 18.6225 11.25 18.6225 11.25C19.6035 11.2675 19.6111 12.7308 18.6225 12.75ZM18.6225 18.8475H5.37749C4.3965 18.8299 4.38885 17.3666 5.37753 17.3475C5.37749 17.3475 18.6225 17.3475 18.6225 17.3475C19.6035 17.365 19.6111 18.8283 18.6225 18.8475ZM12.9225 9.69749H5.37749C4.96499 9.69749 4.62749 9.36749 4.62749 8.94749C4.62749 8.535 4.96499 8.19749 5.37749 8.19749H12.9225C13.335 8.19749 13.6725 8.535 13.6725 8.94749C13.6725 9.36749 13.335 9.69749 12.9225 9.69749ZM5.37749 14.3025H12.9225C13.335 14.3025 13.6725 14.6325 13.6725 15.0525C13.6725 15.465 13.335 15.8025 12.9225 15.8025H5.37749C4.96499 15.8025 4.62749 15.465 4.62749 15.0525C4.62749 14.6325 4.965 14.3025 5.37749 14.3025ZM18.6225 6.6525H5.37749C4.3965 6.63492 4.38885 5.17168 5.37753 5.1525C5.37749 5.1525 18.6225 5.1525 18.6225 5.1525C19.6035 5.17003 19.6111 6.63332 18.6225 6.6525Z" fill="#424242"/>
</svg>
