<svg width="56" height="56" viewBox="0 0 56 56" fill="none" xmlns="http://www.w3.org/2000/svg">
<g clip-path="url(#clip0_2679_8215)">
<path d="M-8.42612 3.17928C-13.1667 -1.45085 -17.9784 -5.95833 -22.5544 -10.6935C-25.2309 -13.4629 -25.5487 -17.0021 -24.2728 -20.5385C-22.9711 -24.1468 -20.1963 -26.1627 -16.4335 -26.7665C-14.3227 -27.1053 -12.4423 -26.3823 -10.5349 -25.2818C-11.2707 -24.054 -11.9504 -22.9197 -12.6266 -21.7914C-16.1021 -22.875 -18.1553 -22.3959 -19.6698 -20.1699C-21.1104 -18.0537 -21.1199 -15.3453 -19.3635 -13.5056C-15.8805 -9.858 -12.2526 -6.34864 -8.26891 -2.36631C-7.07903 -3.73034 -6.00907 -5.0666 -4.82393 -6.29104C-2.59594 -8.59425 -0.271723 -10.8033 1.95763 -13.1051C4.19307 -15.4138 4.19307 -18.7056 2.03691 -20.9092C-0.0162601 -23.0071 -2.9361 -23.0274 -5.04551 -20.958C-7.25859 -18.7876 -7.29519 -15.5398 -5.10446 -13.1783C-4.6037 -12.6389 -4.01147 -12.1842 -3.29252 -11.5392C-3.90237 -10.8934 -4.42007 -10.4062 -4.86255 -9.858C-5.29013 -9.32811 -5.63977 -8.7352 -5.98671 -8.22427C-11.9118 -12.8253 -12.6023 -19.8853 -7.92333 -24.1868C-4.36044 -27.4624 0.513632 -27.6738 4.21272 -24.7147C8.00329 -21.6817 9.02378 -16.1706 6.53355 -12.0453C6.15409 -11.4172 5.71432 -10.7999 5.19594 -10.2842C0.652542 -5.76657 -3.91457 -1.27332 -8.42612 3.17928Z" fill="#E2ECC6"/>
<path d="M50.3765 16.4722C49.7375 13.4737 48.0177 11.0723 45.4035 9.528C41.4313 7.18211 35.0028 6.00848 26.9324 13.736C25.8835 14.6596 24.6502 16.0995 23.2238 17.7657C19.9571 21.5807 15.0213 27.3431 11.8921 26.2691C10.3722 25.746 9.00752 23.7789 8.41529 21.2588C7.79933 18.6399 7.9911 14.978 10.3749 12.5569C13.3768 9.50768 18.1689 9.33082 23.1934 12.0833C23.8635 12.4499 24.7038 12.2046 25.071 11.5344C25.4376 10.8643 25.1923 10.024 24.5222 9.65675C17.2548 5.67645 11.4307 7.54192 8.40377 10.6156C5.74888 13.3118 4.72161 17.6323 5.72245 21.8904C6.53897 25.3659 8.55826 28.0451 10.9916 28.8827C15.8995 30.5713 21.1253 24.4673 25.3244 19.5628C26.6356 18.0314 27.8736 16.5853 28.7776 15.7946L28.8243 15.7519C34.3082 10.4922 39.4127 9.20072 43.9968 11.9078C45.9544 13.0645 47.191 14.7937 47.6715 17.0468C48.4832 20.8557 47.0372 25.7324 43.7047 30.427C41.6177 33.3664 34.7894 42.3712 30.9209 45.0993C27.858 47.2609 24.5452 44.0741 23.2631 42.6043C22.7617 42.029 21.8876 41.9694 21.3116 42.4715C20.7363 42.9736 20.6767 43.8471 21.1788 44.4231C23.585 47.1809 26.2196 48.6087 28.7037 48.6087C30.0366 48.6087 31.3267 48.1974 32.5139 47.3605C37.5012 43.843 45.8765 32.1461 45.9598 32.0282C49.7389 26.7055 51.3489 21.0346 50.3765 16.4708V16.4722Z" fill="#2D92C1"/>
<path d="M43.994 15.9154C43.5455 15.4905 43.225 14.9172 42.7452 14.5405C42.2844 14.1793 41.5946 13.6528 41.1752 13.7768C39.2792 14.3352 37.1149 14.6916 35.6513 15.87C32.2713 18.5913 28.9944 21.5301 26.1369 24.786C23.1954 28.1381 22.3904 33.2372 26.5265 37.2527C27.4244 38.1241 27.8099 39.7274 28.0037 41.0562C28.1657 42.1641 28.5235 42.6519 29.5202 42.7915C29.6334 42.6879 29.7323 42.6316 29.7791 42.5469C29.8536 42.41 29.9234 42.2589 29.9431 42.1065C30.3544 38.8959 32.2517 36.7615 34.7467 34.8587C36.0097 33.8958 36.9516 32.3888 37.7431 30.9638C38.5996 29.4195 39.1464 27.6977 39.7664 26.0294C40.7537 23.3718 43.6979 21.7455 43.6851 18.5567C43.6844 18.348 43.9581 18.1162 44.1411 17.9326C44.8749 17.1954 44.6798 16.5652 43.994 15.916V15.9154Z" fill="#27B08F"/>
</g>
<defs>
<clipPath id="clip0_2679_8215">
<rect width="56" height="56" fill="white"/>
</clipPath>
</defs>
</svg>
