<svg width="396" height="56" viewBox="0 0 396 56" fill="none" xmlns="http://www.w3.org/2000/svg">
<g clip-path="url(#clip0_299_12256)">
<path d="M-8.42591 3.17934C-13.1665 -1.45079 -17.9782 -5.95827 -22.5542 -10.6934C-25.2307 -13.4628 -25.5485 -17.002 -24.2726 -20.5385C-22.9709 -24.1468 -20.1961 -26.1627 -16.4333 -26.7664C-14.3225 -27.1052 -12.4421 -26.3822 -10.5346 -25.2818C-11.2705 -24.0539 -11.9502 -22.9196 -12.6264 -21.7914C-16.1019 -22.8749 -18.1551 -22.3958 -19.6696 -20.1699C-21.1102 -18.0537 -21.1196 -15.3453 -19.3633 -13.5055C-15.8803 -9.85794 -12.2524 -6.34858 -8.26871 -2.36625C-7.07882 -3.73028 -6.00887 -5.06653 -4.82372 -6.29098C-2.59573 -8.59419 -0.271517 -10.8032 1.95783 -13.1051C4.19328 -15.4137 4.19328 -18.7055 2.03711 -20.9091C-0.0160542 -23.007 -2.93589 -23.0274 -5.0453 -20.9579C-7.25839 -18.7875 -7.29498 -15.5397 -5.10426 -13.1782C-4.6035 -12.6389 -4.01126 -12.1842 -3.29231 -11.5391C-3.90217 -10.8933 -4.41986 -10.4061 -4.86235 -9.85794C-5.28992 -9.32804 -5.63957 -8.73513 -5.98651 -8.22421C-11.9116 -12.8252 -12.602 -19.8853 -7.92313 -24.1868C-4.36024 -27.4623 0.513838 -27.6738 4.21293 -24.7146C8.0035 -21.6816 9.02398 -16.1706 6.53375 -12.0453C6.15429 -11.4171 5.71452 -10.7998 5.19615 -10.2842C0.652748 -5.76651 -3.91437 -1.27325 -8.42591 3.17934Z" fill="#E2ECC6"/>
<path d="M50.3764 16.4721C49.7374 13.4737 48.0176 11.0722 45.4034 9.52791C41.4312 7.18202 35.0027 6.00839 26.9323 13.7359C25.8834 14.6595 24.6501 16.0994 23.2238 17.7657C19.957 21.5806 15.0213 27.343 11.892 26.269C10.3722 25.7459 9.00744 23.7788 8.41521 21.2588C7.79926 18.6398 7.99102 14.978 10.3749 12.5568C13.3767 9.50758 18.1688 9.33073 23.1933 12.0832C23.8634 12.4498 24.7037 12.2045 25.0709 11.5343C25.4375 10.8642 25.1922 10.0239 24.5221 9.65666C17.2547 5.67636 11.4306 7.54183 8.40369 10.6155C5.7488 13.3117 4.72154 17.6322 5.72237 21.8903C6.5389 25.3658 8.55819 28.0451 10.9915 28.8826C15.8994 30.5712 21.1252 24.4673 25.3244 19.5627C26.6356 18.0313 27.8736 16.5853 28.7775 15.7945L28.8242 15.7518C34.3082 10.4922 39.4126 9.20062 43.9967 11.9077C45.9543 13.0644 47.191 14.7936 47.6714 17.0467C48.4832 20.8556 47.0371 25.7324 43.7046 30.4269C41.6176 33.3664 34.7893 42.3712 30.9208 45.0992C27.858 47.2608 24.5451 44.074 23.2631 42.6042C22.7616 42.029 21.8875 41.9693 21.3115 42.4714C20.7363 42.9736 20.6766 43.847 21.1787 44.423C23.5849 47.1809 26.2195 48.6086 28.7036 48.6086C30.0365 48.6086 31.3267 48.1973 32.5138 47.3604C37.5011 43.8429 45.8764 32.146 45.9597 32.0281C49.7388 26.7054 51.3488 21.0345 50.3764 16.4707V16.4721Z" fill="white"/>
<path d="M43.994 15.9151C43.5455 15.4902 43.2249 14.917 42.7452 14.5402C42.2844 14.1791 41.5946 13.6526 41.1752 13.7766C39.2792 14.3349 37.1149 14.6913 35.6513 15.8697C32.2713 18.591 28.9944 21.5298 26.1369 24.7857C23.1954 28.1379 22.3904 33.2369 26.5265 37.2525C27.4243 38.1239 27.8099 39.7271 28.0037 41.0559C28.1657 42.1638 28.5234 42.6517 29.5202 42.7913C29.6334 42.6876 29.7323 42.6314 29.7791 42.5467C29.8536 42.4098 29.9234 42.2587 29.943 42.1062C30.3543 38.8957 32.2517 36.7612 34.7466 34.8585C36.0097 33.8956 36.9516 32.3886 37.743 30.9635C38.5995 29.4193 39.1464 27.6975 39.7664 26.0292C40.7537 23.3716 43.6979 21.7453 43.685 18.5564C43.6844 18.3477 43.9581 18.116 44.1411 17.9324C44.8749 17.1951 44.6798 16.5649 43.994 15.9158V15.9151Z" fill="white"/>
</g>
<path d="M61.28 34.392H74.504V37.176H61.28V34.392ZM59.984 27.48H76.04V38.112H72.944V30.24H62.936V38.136H59.984V27.48ZM64.688 15.432L67.976 16.512C67.448 17.488 66.88 18.488 66.272 19.512C65.68 20.52 65.08 21.48 64.472 22.392C63.864 23.288 63.288 24.088 62.744 24.792L60.152 23.736C60.696 23 61.248 22.16 61.808 21.216C62.368 20.256 62.896 19.272 63.392 18.264C63.904 17.256 64.336 16.312 64.688 15.432ZM70.448 19.704L72.728 18.024C73.528 18.664 74.344 19.384 75.176 20.184C76.024 20.968 76.8 21.768 77.504 22.584C78.224 23.384 78.792 24.128 79.208 24.816L76.712 26.736C76.328 26.048 75.792 25.296 75.104 24.48C74.432 23.648 73.688 22.816 72.872 21.984C72.056 21.152 71.248 20.392 70.448 19.704ZM57.416 22.416C58.632 22.384 59.984 22.344 61.472 22.296C62.976 22.232 64.552 22.168 66.2 22.104C67.864 22.04 69.552 21.976 71.264 21.912C72.976 21.848 74.656 21.784 76.304 21.72L76.184 24.504C74.52 24.6 72.84 24.688 71.144 24.768C69.448 24.832 67.784 24.904 66.152 24.984C64.536 25.048 63 25.112 61.544 25.176C60.088 25.224 58.768 25.272 57.584 25.32L57.416 22.416ZM91.28 29.136H101.84V38.064H99.032V31.704H93.992V38.16H91.28V29.136ZM90.8 20.448H101.312V26.688H98.552V22.896H90.8V20.448ZM93.752 17.304L96.536 17.544C96.408 18.552 96.256 19.616 96.08 20.736C95.904 21.856 95.72 22.936 95.528 23.976C95.352 25.016 95.176 25.928 95 26.712H92.216C92.36 26.104 92.496 25.416 92.624 24.648C92.768 23.88 92.912 23.08 93.056 22.248C93.2 21.4 93.328 20.56 93.44 19.728C93.552 18.88 93.656 18.072 93.752 17.304ZM90.416 16.296H102.512V18.744H90.416V16.296ZM89.552 25.344H103.376V27.864H89.552V25.344ZM92.36 34.656H100.64V37.224H92.36V34.656ZM81.872 23.136H88.808V25.32H81.872V23.136ZM82.016 16.368H88.832V18.528H82.016V16.368ZM81.872 26.496H88.808V28.68H81.872V26.496ZM80.72 19.68H89.672V21.96H80.72V19.68ZM83.216 29.904H88.976V37.2H83.216V34.92H86.528V32.184H83.216V29.904ZM81.8 29.904H84.224V38.136H81.8V29.904ZM120.608 20.952L123.68 21.864C122.672 24.744 121.368 27.24 119.768 29.352C118.168 31.464 116.264 33.248 114.056 34.704C111.864 36.144 109.328 37.32 106.448 38.232C106.352 37.976 106.192 37.672 105.968 37.32C105.744 36.968 105.512 36.616 105.272 36.264C105.048 35.928 104.832 35.648 104.624 35.424C107.392 34.688 109.816 33.688 111.896 32.424C113.976 31.16 115.736 29.592 117.176 27.72C118.616 25.832 119.76 23.576 120.608 20.952ZM111.32 21.144C112.136 23.528 113.264 25.664 114.704 27.552C116.144 29.44 117.92 31.04 120.032 32.352C122.16 33.664 124.64 34.64 127.472 35.28C127.248 35.504 127 35.792 126.728 36.144C126.472 36.496 126.224 36.848 125.984 37.2C125.744 37.568 125.552 37.888 125.408 38.16C122.416 37.392 119.84 36.272 117.68 34.8C115.52 33.312 113.688 31.504 112.184 29.376C110.696 27.248 109.448 24.792 108.44 22.008L111.32 21.144ZM105.056 19.416H127.04V22.224H105.056V19.416ZM114.512 15.6H117.464V21.12H114.512V15.6ZM130.832 25.512H137.648V27.744H130.832V25.512ZM129.656 17.784H137.408V20.208H129.656V17.784ZM128.84 21.84H140.576V24.312H128.84V21.84ZM132.392 15.6H135.056V23.064H132.392V15.6ZM138.92 16.2L141.584 16.944C140.4 19.92 138.832 22.544 136.88 24.816C134.944 27.088 132.728 28.928 130.232 30.336C130.12 30.144 129.944 29.912 129.704 29.64C129.464 29.352 129.216 29.072 128.96 28.8C128.704 28.528 128.488 28.304 128.312 28.128C130.744 26.928 132.864 25.304 134.672 23.256C136.496 21.208 137.912 18.856 138.92 16.2ZM133.472 28.944H136.184V35.448C136.184 36.056 136.112 36.544 135.968 36.912C135.824 37.28 135.536 37.56 135.104 37.752C134.672 37.928 134.168 38.04 133.592 38.088C133.032 38.136 132.368 38.16 131.6 38.16C131.552 37.792 131.448 37.376 131.288 36.912C131.128 36.448 130.96 36.048 130.784 35.712C131.264 35.728 131.728 35.736 132.176 35.736C132.624 35.736 132.92 35.736 133.064 35.736C133.24 35.72 133.352 35.688 133.4 35.64C133.448 35.592 133.472 35.504 133.472 35.376V28.944ZM137.048 25.512H137.648L138.176 25.368L139.712 26.616C139.136 27.336 138.464 28.064 137.696 28.8C136.944 29.536 136.192 30.16 135.44 30.672C135.296 30.448 135.08 30.192 134.792 29.904C134.52 29.616 134.288 29.384 134.096 29.208C134.448 28.92 134.816 28.592 135.2 28.224C135.584 27.84 135.936 27.448 136.256 27.048C136.592 26.648 136.856 26.288 137.048 25.968V25.512ZM128.648 31.176C129.656 31.096 130.808 31.008 132.104 30.912C133.416 30.816 134.792 30.712 136.232 30.6C137.688 30.488 139.12 30.368 140.528 30.24V32.712C139.184 32.84 137.816 32.968 136.424 33.096C135.032 33.208 133.696 33.32 132.416 33.432C131.136 33.544 129.976 33.64 128.936 33.72L128.648 31.176ZM142.448 19.992H151.28V22.656H142.448V19.992ZM142.784 15.6L145.712 16.056C145.44 17.64 145.088 19.192 144.656 20.712C144.224 22.216 143.72 23.616 143.144 24.912C142.568 26.208 141.904 27.336 141.152 28.296C141.008 28.104 140.792 27.88 140.504 27.624C140.232 27.368 139.944 27.112 139.64 26.856C139.336 26.6 139.072 26.4 138.848 26.256C139.536 25.44 140.136 24.472 140.648 23.352C141.16 22.216 141.592 20.992 141.944 19.68C142.296 18.352 142.576 16.992 142.784 15.6ZM147.008 21.6L149.96 21.864C149.608 24.6 149.064 27.016 148.328 29.112C147.608 31.192 146.608 32.984 145.328 34.488C144.048 35.992 142.4 37.248 140.384 38.256C140.288 38.032 140.144 37.752 139.952 37.416C139.76 37.08 139.552 36.744 139.328 36.408C139.104 36.088 138.896 35.832 138.704 35.64C140.528 34.824 142 33.784 143.12 32.52C144.256 31.24 145.128 29.696 145.736 27.888C146.344 26.064 146.768 23.968 147.008 21.6ZM144.032 22.056C144.368 24.088 144.832 26 145.424 27.792C146.032 29.568 146.832 31.136 147.824 32.496C148.816 33.84 150.048 34.896 151.52 35.664C151.312 35.856 151.08 36.096 150.824 36.384C150.568 36.688 150.32 36.992 150.08 37.296C149.856 37.616 149.672 37.912 149.528 38.184C147.912 37.208 146.576 35.96 145.52 34.44C144.48 32.904 143.64 31.128 143 29.112C142.36 27.096 141.84 24.888 141.44 22.488L144.032 22.056ZM153.512 31.44H174.512V33.72H153.512V31.44ZM157.76 27.36H168.008V29.376H157.76V27.36ZM162.584 30.36H165.416V35.472C165.416 36.128 165.328 36.632 165.152 36.984C164.976 37.336 164.64 37.6 164.144 37.776C163.648 37.952 163.064 38.056 162.392 38.088C161.72 38.136 160.928 38.16 160.016 38.16C159.952 37.776 159.832 37.36 159.656 36.912C159.48 36.464 159.296 36.072 159.104 35.736C159.504 35.752 159.904 35.768 160.304 35.784C160.72 35.784 161.088 35.784 161.408 35.784C161.744 35.784 161.968 35.784 162.08 35.784C162.272 35.768 162.4 35.736 162.464 35.688C162.544 35.64 162.584 35.536 162.584 35.376V30.36ZM167.336 27.36H168.032L168.632 27.216L170.24 28.68C169.712 29.096 169.128 29.52 168.488 29.952C167.864 30.368 167.216 30.776 166.544 31.176C165.888 31.576 165.232 31.928 164.576 32.232C164.432 32.008 164.224 31.752 163.952 31.464C163.68 31.176 163.456 30.952 163.28 30.792C163.776 30.536 164.28 30.24 164.792 29.904C165.304 29.552 165.784 29.192 166.232 28.824C166.696 28.456 167.064 28.128 167.336 27.84V27.36ZM153.512 24.24H174.56V29.184H171.704V26.328H156.224V29.184H153.512V24.24ZM154.904 16.68L158.264 17.352C158.2 17.544 157.992 17.672 157.64 17.736L158.048 25.176H155.408L154.904 16.68ZM170.576 16.392H173.312C173.264 17.384 173.208 18.424 173.144 19.512C173.08 20.584 173.008 21.624 172.928 22.632C172.848 23.64 172.76 24.52 172.664 25.272H169.88C169.992 24.488 170.096 23.592 170.192 22.584C170.288 21.576 170.368 20.536 170.432 19.464C170.496 18.376 170.544 17.352 170.576 16.392ZM167.192 16.392H171.632V18.192H167.192V16.392ZM159.752 15.72L161.096 17.28C160.424 17.584 159.68 17.864 158.864 18.12C158.048 18.376 157.312 18.576 156.656 18.72L155.528 17.256C155.96 17.144 156.432 17 156.944 16.824C157.456 16.648 157.96 16.464 158.456 16.272C158.952 16.08 159.384 15.896 159.752 15.72ZM156.416 19.032H160.904V20.808H156.416V19.032ZM156.464 21.624H160.952V23.424H156.464V21.624ZM167.288 19.032H171.344V20.808H167.288V19.032ZM167.216 21.624H171.248V23.424H167.216V21.624ZM164.816 15.744L166.664 16.32C166.136 17.04 165.456 17.728 164.624 18.384C163.792 19.04 162.976 19.576 162.176 19.992C162 19.816 161.76 19.6 161.456 19.344C161.152 19.072 160.888 18.864 160.664 18.72C161.48 18.352 162.264 17.912 163.016 17.4C163.768 16.888 164.368 16.336 164.816 15.744ZM161.264 17.016L162.56 15.912C163.04 16.136 163.536 16.408 164.048 16.728C164.56 17.032 165.04 17.344 165.488 17.664C165.952 17.984 166.336 18.28 166.64 18.552L165.248 19.776C164.976 19.504 164.616 19.2 164.168 18.864C163.72 18.528 163.24 18.2 162.728 17.88C162.232 17.56 161.744 17.272 161.264 17.016ZM164.936 19.776L166.808 20.328C166.264 21.112 165.56 21.848 164.696 22.536C163.848 23.224 163 23.792 162.152 24.24C161.992 24.064 161.752 23.84 161.432 23.568C161.128 23.296 160.864 23.088 160.64 22.944C161.488 22.56 162.296 22.096 163.064 21.552C163.848 20.992 164.472 20.4 164.936 19.776ZM161.312 21.096L162.632 19.992C163.128 20.232 163.64 20.512 164.168 20.832C164.712 21.152 165.216 21.48 165.68 21.816C166.16 22.152 166.552 22.464 166.856 22.752L165.44 24C165.152 23.712 164.776 23.4 164.312 23.064C163.848 22.712 163.352 22.368 162.824 22.032C162.312 21.68 161.808 21.368 161.312 21.096ZM182.24 15.768H185.24V29.544H182.24V15.768ZM190.76 15.768H193.784V29.544H190.76V15.768ZM177.056 27.624H199.016V30.432H177.056V27.624ZM177.896 20.232H198.272V23.016H177.896V20.232ZM189.68 32.712L192.296 31.272C192.984 31.768 193.736 32.328 194.552 32.952C195.384 33.56 196.184 34.176 196.952 34.8C197.72 35.424 198.352 35.984 198.848 36.48L195.992 38.16C195.56 37.68 194.976 37.12 194.24 36.48C193.52 35.84 192.76 35.192 191.96 34.536C191.16 33.864 190.4 33.256 189.68 32.712ZM183.272 31.368L186.344 32.544C185.736 33.232 185.056 33.92 184.304 34.608C183.552 35.296 182.768 35.944 181.952 36.552C181.136 37.176 180.336 37.712 179.552 38.16C179.36 37.952 179.12 37.72 178.832 37.464C178.544 37.208 178.256 36.96 177.968 36.72C177.696 36.496 177.44 36.304 177.2 36.144C177.968 35.728 178.736 35.256 179.504 34.728C180.272 34.2 180.984 33.64 181.64 33.048C182.312 32.456 182.856 31.896 183.272 31.368ZM210.992 15.768H213.656V21.6H210.992V15.768ZM217.208 15.768H219.92V21.6H217.208V15.768ZM215.72 26.76H217.976V38.064H215.72V26.76ZM207.584 17.52H223.16V19.992H207.584V17.52ZM212.624 29.376H221.12V31.224H212.624V29.376ZM212.624 32.568H221.12V34.44H212.624V32.568ZM208.88 22.224H223.28V24.696H208.88V22.224ZM207.704 22.224H210.32V27.528C210.32 28.328 210.288 29.192 210.224 30.12C210.16 31.048 210.04 32 209.864 32.976C209.704 33.936 209.464 34.872 209.144 35.784C208.824 36.68 208.408 37.496 207.896 38.232C207.768 38.056 207.568 37.848 207.296 37.608C207.04 37.384 206.776 37.16 206.504 36.936C206.232 36.728 206 36.568 205.808 36.456C206.4 35.592 206.824 34.64 207.08 33.6C207.352 32.544 207.52 31.488 207.584 30.432C207.664 29.376 207.704 28.4 207.704 27.504V22.224ZM211.184 25.92H221.408V28.008H213.584V38.112H211.184V25.92ZM220.28 25.92H222.704V35.712C222.704 36.24 222.656 36.664 222.56 36.984C222.464 37.32 222.248 37.584 221.912 37.776C221.576 37.952 221.184 38.064 220.736 38.112C220.288 38.16 219.752 38.176 219.128 38.16C219.096 37.84 219.024 37.472 218.912 37.056C218.8 36.64 218.664 36.28 218.504 35.976C218.84 35.992 219.144 36 219.416 36C219.688 36 219.88 35.992 219.992 35.976C220.184 35.976 220.28 35.88 220.28 35.688V25.92ZM205.04 15.648L207.704 16.44C207.256 17.832 206.712 19.24 206.072 20.664C205.448 22.088 204.76 23.44 204.008 24.72C203.256 25.984 202.472 27.096 201.656 28.056C201.592 27.832 201.48 27.52 201.32 27.12C201.16 26.72 200.984 26.32 200.792 25.92C200.6 25.52 200.432 25.192 200.288 24.936C200.928 24.184 201.544 23.312 202.136 22.32C202.744 21.328 203.296 20.264 203.792 19.128C204.288 17.976 204.704 16.816 205.04 15.648ZM203.12 22.248L205.784 19.584L205.856 19.632V38.136H203.12V22.248ZM226.376 17.088H245.576V19.944H226.376V17.088ZM225.104 27.264H246.968V30.168H225.104V27.264ZM227.816 21.504L230.456 20.712C230.728 21.24 230.992 21.8 231.248 22.392C231.52 22.968 231.752 23.544 231.944 24.12C232.152 24.68 232.304 25.184 232.4 25.632L229.592 26.52C229.512 26.072 229.384 25.568 229.208 25.008C229.032 24.432 228.824 23.84 228.584 23.232C228.344 22.608 228.088 22.032 227.816 21.504ZM241.496 20.64L244.592 21.432C244.304 22.056 244 22.672 243.68 23.28C243.376 23.888 243.072 24.472 242.768 25.032C242.48 25.576 242.2 26.056 241.928 26.472L239.408 25.728C239.664 25.264 239.92 24.736 240.176 24.144C240.448 23.552 240.696 22.952 240.92 22.344C241.16 21.736 241.352 21.168 241.496 20.64ZM234.488 18.288H237.488V38.136H234.488V18.288ZM253.28 34.392H266.504V37.176H253.28V34.392ZM251.984 27.48H268.04V38.112H264.944V30.24H254.936V38.136H251.984V27.48ZM256.688 15.432L259.976 16.512C259.448 17.488 258.88 18.488 258.272 19.512C257.68 20.52 257.08 21.48 256.472 22.392C255.864 23.288 255.288 24.088 254.744 24.792L252.152 23.736C252.696 23 253.248 22.16 253.808 21.216C254.368 20.256 254.896 19.272 255.392 18.264C255.904 17.256 256.336 16.312 256.688 15.432ZM262.448 19.704L264.728 18.024C265.528 18.664 266.344 19.384 267.176 20.184C268.024 20.968 268.8 21.768 269.504 22.584C270.224 23.384 270.792 24.128 271.208 24.816L268.712 26.736C268.328 26.048 267.792 25.296 267.104 24.48C266.432 23.648 265.688 22.816 264.872 21.984C264.056 21.152 263.248 20.392 262.448 19.704ZM249.416 22.416C250.632 22.384 251.984 22.344 253.472 22.296C254.976 22.232 256.552 22.168 258.2 22.104C259.864 22.04 261.552 21.976 263.264 21.912C264.976 21.848 266.656 21.784 268.304 21.72L268.184 24.504C266.52 24.6 264.84 24.688 263.144 24.768C261.448 24.832 259.784 24.904 258.152 24.984C256.536 25.048 255 25.112 253.544 25.176C252.088 25.224 250.768 25.272 249.584 25.32L249.416 22.416ZM282.652 36V38.5664H272.012V36H282.652ZM296.68 20.328H305.68V22.872H296.68V38.16H294.016V21.936L295.576 20.328H296.68ZM295.48 25.008H304.984V27.504H295.48V25.008ZM295.432 29.688H305.056V32.184H295.432V29.688ZM294.952 34.512H306.04V37.032H294.952V34.512ZM299.344 21.768H301.912V35.352H299.344V21.768ZM295.6 15.576L298.36 16.32C297.944 17.424 297.456 18.56 296.896 19.728C296.336 20.896 295.72 22.016 295.048 23.088C294.376 24.144 293.656 25.088 292.888 25.92C292.744 25.728 292.56 25.512 292.336 25.272C292.128 25.016 291.912 24.768 291.688 24.528C291.464 24.288 291.256 24.088 291.064 23.928C291.72 23.224 292.344 22.392 292.936 21.432C293.528 20.472 294.056 19.48 294.52 18.456C294.984 17.432 295.344 16.472 295.6 15.576ZM301.024 15.936L304 16.584C303.584 17.512 303.144 18.432 302.68 19.344C302.232 20.256 301.808 21.032 301.408 21.672L299.056 21C299.296 20.536 299.536 20.008 299.776 19.416C300.032 18.824 300.264 18.224 300.472 17.616C300.696 17.008 300.88 16.448 301.024 15.936ZM286.984 15.624L289.48 16.512C289.16 17.136 288.824 17.776 288.472 18.432C288.12 19.072 287.776 19.696 287.44 20.304C287.104 20.896 286.784 21.416 286.48 21.864L284.56 21.072C284.848 20.576 285.144 20.016 285.448 19.392C285.752 18.768 286.04 18.12 286.312 17.448C286.6 16.776 286.824 16.168 286.984 15.624ZM289.696 18.48L292.048 19.536C291.456 20.432 290.816 21.376 290.128 22.368C289.44 23.36 288.752 24.312 288.064 25.224C287.376 26.136 286.72 26.936 286.096 27.624L284.44 26.712C284.888 26.168 285.352 25.56 285.832 24.888C286.328 24.2 286.808 23.488 287.272 22.752C287.752 22 288.2 21.256 288.616 20.52C289.032 19.784 289.392 19.104 289.696 18.48ZM283.288 21.24L284.704 19.296C285.104 19.68 285.52 20.096 285.952 20.544C286.384 20.992 286.784 21.44 287.152 21.888C287.52 22.336 287.792 22.752 287.968 23.136L286.432 25.32C286.256 24.936 285.992 24.504 285.64 24.024C285.304 23.544 284.928 23.064 284.512 22.584C284.096 22.088 283.688 21.64 283.288 21.24ZM288.88 24.216L290.896 23.4C291.216 23.928 291.52 24.504 291.808 25.128C292.096 25.752 292.352 26.36 292.576 26.952C292.8 27.528 292.96 28.048 293.056 28.512L290.872 29.472C290.808 29.008 290.672 28.472 290.464 27.864C290.256 27.256 290.016 26.64 289.743 26.016C289.472 25.376 289.184 24.776 288.88 24.216ZM283.216 26.136C284.288 26.088 285.552 26.024 287.008 25.944C288.464 25.848 289.944 25.752 291.448 25.656L291.496 28.008C290.088 28.12 288.68 28.232 287.272 28.344C285.88 28.44 284.624 28.536 283.504 28.632L283.216 26.136ZM289.624 30.24L291.664 29.64C291.984 30.328 292.264 31.096 292.504 31.944C292.744 32.792 292.896 33.528 292.96 34.152L290.8 34.872C290.736 34.232 290.592 33.488 290.368 32.64C290.16 31.776 289.912 30.976 289.624 30.24ZM284.248 29.712L286.552 30.12C286.424 31.272 286.232 32.408 285.976 33.528C285.736 34.632 285.448 35.568 285.112 36.336C284.952 36.224 284.744 36.104 284.488 35.976C284.232 35.848 283.968 35.728 283.696 35.616C283.424 35.488 283.192 35.392 283 35.328C283.352 34.608 283.624 33.744 283.816 32.736C284.008 31.728 284.152 30.72 284.248 29.712ZM286.864 27.432H289.36V38.16H286.864V27.432ZM316 30.552H327.112V32.592H316V30.552ZM326.44 30.552H326.944L327.4 30.432L329.032 31.272C328.472 32.328 327.736 33.248 326.824 34.032C325.928 34.816 324.912 35.48 323.776 36.024C322.64 36.568 321.416 37.016 320.104 37.368C318.792 37.72 317.424 38 316 38.208C315.888 37.888 315.72 37.512 315.496 37.08C315.288 36.648 315.072 36.304 314.848 36.048C316.128 35.92 317.368 35.728 318.568 35.472C319.768 35.2 320.88 34.856 321.904 34.44C322.944 34.024 323.848 33.52 324.616 32.928C325.4 32.336 326.008 31.656 326.44 30.888V30.552ZM319.984 32.328C320.608 32.952 321.432 33.512 322.456 34.008C323.48 34.488 324.648 34.888 325.96 35.208C327.272 35.512 328.648 35.736 330.088 35.88C329.8 36.136 329.496 36.488 329.176 36.936C328.872 37.4 328.632 37.8 328.456 38.136C326.936 37.928 325.496 37.608 324.136 37.176C322.792 36.744 321.568 36.2 320.464 35.544C319.376 34.872 318.44 34.096 317.656 33.216L319.984 32.328ZM315.688 16.824H329.632V18.864H315.688V16.824ZM318.376 23.688H328.48V25.128H318.376V23.688ZM318.376 25.848H328.48V27.264H318.376V25.848ZM318.688 15.576H321.256V20.016H318.688V15.576ZM322.12 22.032H324.616V29.376H322.12V22.032ZM324.04 15.576H326.608V20.016H324.04V15.576ZM317.896 19.464L320.152 20.04C319.736 21.064 319.2 22.064 318.544 23.04C317.888 24.016 317.208 24.832 316.504 25.488C316.392 25.36 316.224 25.2 316 25.008C315.776 24.816 315.544 24.632 315.304 24.456C315.064 24.264 314.856 24.112 314.68 24C315.352 23.44 315.968 22.76 316.528 21.96C317.104 21.144 317.56 20.312 317.896 19.464ZM322.816 19.56L325.432 19.968C325.192 20.448 324.952 20.896 324.712 21.312C324.472 21.712 324.256 22.064 324.064 22.368L321.856 21.96C322.032 21.592 322.208 21.192 322.384 20.76C322.576 20.312 322.72 19.912 322.816 19.56ZM328.984 21.216V22.992H319.696V28.032H329.56V29.808H317.2V21.216H328.984ZM308.392 22.968H314.776V25.152H308.392V22.968ZM308.56 16.368H314.728V18.528H308.56V16.368ZM308.392 26.256H314.776V28.416H308.392V26.256ZM307.408 19.584H315.4V21.864H307.408V19.584ZM309.712 29.568H314.752V36.84H309.712V34.584H312.448V31.824H309.712V29.568ZM308.32 29.568H310.576V37.824H308.32V29.568ZM343.84 25.584L346.408 26.4C345.896 27.328 345.272 28.232 344.536 29.112C343.8 29.976 343 30.768 342.136 31.488C341.288 32.208 340.424 32.832 339.544 33.36C339.432 33.184 339.264 32.96 339.04 32.688C338.816 32.416 338.576 32.144 338.32 31.872C338.08 31.6 337.872 31.384 337.696 31.224C338.944 30.6 340.12 29.8 341.224 28.824C342.328 27.832 343.2 26.752 343.84 25.584ZM344.152 15.504L346.648 16.8C346.008 17.552 345.344 18.312 344.656 19.08C343.968 19.832 343.336 20.464 342.76 20.976L340.792 19.848C341.16 19.464 341.552 19.024 341.968 18.528C342.384 18.032 342.784 17.52 343.168 16.992C343.552 16.464 343.88 15.968 344.152 15.504ZM348.616 17.304L351.184 18.696C350.336 19.592 349.416 20.52 348.424 21.48C347.432 22.424 346.432 23.328 345.424 24.192C344.416 25.04 343.464 25.784 342.568 26.424L340.648 25.176C341.32 24.664 342.016 24.096 342.736 23.472C343.456 22.832 344.168 22.16 344.872 21.456C345.592 20.736 346.272 20.024 346.912 19.32C347.552 18.616 348.12 17.944 348.616 17.304ZM338.512 19.992L340.216 18.144C340.808 18.512 341.424 18.928 342.064 19.392C342.72 19.84 343.336 20.304 343.911 20.784C344.488 21.248 344.944 21.688 345.28 22.104L343.432 24.192C343.112 23.776 342.672 23.32 342.112 22.824C341.568 22.328 340.976 21.832 340.336 21.336C339.712 20.84 339.104 20.392 338.512 19.992ZM348.376 22.68L350.584 21.456C351.064 21.984 351.544 22.56 352.024 23.184C352.504 23.808 352.944 24.432 353.344 25.056C353.744 25.664 354.056 26.224 354.28 26.736L351.856 28.104C351.664 27.608 351.384 27.048 351.016 26.424C350.648 25.784 350.232 25.136 349.768 24.48C349.304 23.824 348.84 23.224 348.376 22.68ZM338.008 24.384C339.176 24.368 340.52 24.352 342.04 24.336C343.56 24.32 345.168 24.296 346.864 24.264C348.576 24.232 350.28 24.2 351.976 24.168L351.88 26.472C350.264 26.536 348.632 26.6 346.984 26.664C345.352 26.712 343.784 26.76 342.28 26.808C340.776 26.84 339.432 26.872 338.248 26.904L338.008 24.384ZM343 29.544C343.672 30.616 344.552 31.576 345.64 32.424C346.728 33.256 348 33.952 349.456 34.512C350.928 35.072 352.536 35.488 354.28 35.76C354.072 35.968 353.856 36.216 353.632 36.504C353.424 36.792 353.224 37.088 353.032 37.392C352.84 37.696 352.68 37.976 352.552 38.232C350.728 37.864 349.064 37.32 347.56 36.6C346.072 35.896 344.752 35.016 343.6 33.96C342.464 32.904 341.496 31.672 340.696 30.264L343 29.544ZM343.6 28.104H350.056V30.24H341.704L343.6 28.104ZM349.144 28.104H349.672L350.152 27.984L351.952 28.8C351.408 30.144 350.704 31.336 349.84 32.376C348.992 33.4 348.008 34.296 346.888 35.064C345.768 35.832 344.544 36.472 343.216 36.984C341.904 37.512 340.52 37.936 339.064 38.256C338.936 37.904 338.736 37.48 338.464 36.984C338.208 36.504 337.952 36.12 337.696 35.832C339.008 35.592 340.264 35.272 341.464 34.872C342.664 34.456 343.768 33.944 344.776 33.336C345.8 32.712 346.68 32 347.416 31.2C348.168 30.384 348.744 29.48 349.144 28.488V28.104ZM336.448 20.784L338.968 21.72C338.456 22.68 337.848 23.648 337.144 24.624C336.456 25.6 335.72 26.52 334.936 27.384C334.152 28.248 333.368 29 332.584 29.64C332.504 29.432 332.368 29.16 332.176 28.824C332 28.488 331.808 28.152 331.6 27.816C331.408 27.464 331.232 27.184 331.072 26.976C331.744 26.464 332.408 25.88 333.064 25.224C333.736 24.568 334.36 23.864 334.936 23.112C335.528 22.344 336.032 21.568 336.448 20.784ZM336.016 15.6L338.56 16.632C338.064 17.32 337.488 18.024 336.832 18.744C336.192 19.464 335.528 20.152 334.84 20.808C334.152 21.464 333.472 22.032 332.8 22.512C332.672 22.32 332.512 22.096 332.32 21.84C332.144 21.584 331.96 21.328 331.768 21.072C331.592 20.8 331.432 20.584 331.288 20.424C331.864 20.008 332.448 19.528 333.04 18.984C333.648 18.44 334.208 17.872 334.72 17.28C335.248 16.688 335.68 16.128 336.016 15.6ZM334.456 25.968L336.904 23.52L337.144 23.616V38.184H334.456V25.968ZM356.056 16.8H377.392V18.6H356.056V16.8ZM356.224 35.736H377.248V37.656H356.224V35.736ZM357.976 19.368H375.424V21.048H357.976V19.368ZM358.84 28.56H374.32V30.096H358.84V28.56ZM358.576 33.264H375.136V34.944H358.576V33.264ZM356.296 26.088H377.104V29.688H374.392V27.888H358.888V29.688H356.296V26.088ZM365.152 15.576H368.056V20.448H365.152V15.576ZM365.152 31.776H368.056V36.696H365.152V31.776ZM361.504 23.136V23.976H371.872V23.136H361.504ZM358.864 21.744H374.68V25.392H358.864V21.744ZM362.68 28.944L365.704 29.376C365.32 29.888 364.92 30.368 364.504 30.816C364.088 31.248 363.72 31.624 363.4 31.944L361.023 31.44C361.312 31.072 361.608 30.656 361.912 30.192C362.232 29.728 362.488 29.312 362.68 28.944ZM357.88 30.888C359.144 30.904 360.608 30.92 362.272 30.936C363.952 30.936 365.728 30.936 367.6 30.936C369.488 30.92 371.368 30.912 373.24 30.912L373.12 32.4C371.312 32.432 369.488 32.464 367.648 32.496C365.824 32.528 364.08 32.552 362.416 32.568C360.768 32.568 359.296 32.576 358 32.592L357.88 30.888ZM368.824 30.288L370.48 29.04C371.072 29.28 371.68 29.576 372.304 29.928C372.944 30.264 373.552 30.616 374.128 30.984C374.704 31.352 375.184 31.688 375.568 31.992L373.888 33.384C373.52 33.064 373.048 32.712 372.472 32.328C371.912 31.944 371.312 31.576 370.672 31.224C370.032 30.856 369.416 30.544 368.824 30.288Z" fill="white"/>
<defs>
<clipPath id="clip0_299_12256">
<rect width="56" height="56" fill="white"/>
</clipPath>
</defs>
</svg>
