<svg width="120" height="120" viewBox="0 0 120 120" fill="none" xmlns="http://www.w3.org/2000/svg">
<g clip-path="url(#clip0_4_75890)">
<path d="M31.9994 26.0017V18.0018C31.9994 16.8974 31.1039 16.0019 29.9994 16.0019H1.99996C0.89549 16.0019 0 16.8974 0 18.0018V26.0017H31.9994Z" fill="#424242"/>
<path d="M0 30.0016V96.0003H31.9994V30.0016H0ZM23.9995 56.0011H7.99984C6.89537 56.0011 5.99988 55.1056 5.99988 54.0011V38.0014C5.99988 36.897 6.89537 36.0015 7.99984 36.0015H23.9995C25.104 36.0015 25.9995 36.897 25.9995 38.0014V54.0011C25.9995 55.1056 25.104 56.0011 23.9995 56.0011Z" fill="#424242"/>
<path d="M0 108V118C0 119.104 0.89549 120 1.99996 120H29.9994C31.1039 120 31.9994 119.104 31.9994 118V108H0Z" fill="#424242"/>
<path d="M0 100H31.9994V104H0V100Z" fill="#424242"/>
<path d="M35.9993 100H61.9987V104H35.9993V100Z" fill="#424242"/>
<path d="M61.9987 8.00201V2.00213C61.9987 0.897657 61.1033 0.00216675 59.9988 0.00216675H37.9992C36.8948 0.00216675 35.9993 0.897657 35.9993 2.00213V8.00201H61.9987Z" fill="#424242"/>
<path d="M35.9993 22.0017H61.9987V96.0003H35.9993V22.0017Z" fill="#424242"/>
<path d="M35.9993 108V118C35.9993 119.104 36.8948 120 37.9992 120H59.9988C61.1033 120 61.9987 119.104 61.9987 118V108H35.9993Z" fill="#424242"/>
<path d="M35.9993 12.0019H61.9987V18.0018H35.9993V12.0019Z" fill="#424242"/>
<path d="M65.9509 41.4174L67.0212 45.5257L100.892 36.4936L99.8204 32.3853L65.9509 41.4174Z" fill="#424242"/>
<path d="M82.6643 105.486L116.534 96.4544L114.389 88.2328L80.5178 97.2649L82.6643 105.486Z" fill="#424242"/>
<path d="M113.379 84.3628L101.902 40.3637L68.0308 49.3957L79.5081 93.3948L113.379 84.3628Z" fill="#424242"/>
<path d="M64.9411 37.5473L98.8096 28.5162L95.9386 17.5018C95.6427 16.4354 94.5528 15.7978 93.4786 16.0624L63.4792 24.0622C62.4197 24.3523 61.7879 25.4372 62.0584 26.5016L64.9411 37.5473Z" fill="#424242"/>
<path d="M117.544 100.324L83.6721 109.356L86.0578 118.5C86.1965 119.015 86.5344 119.455 86.9982 119.72C87.3 119.903 87.6457 120 87.9982 120C88.173 120 88.3478 119.979 88.5177 119.94L118.517 111.94C119.577 111.65 120.208 110.564 119.938 109.5L117.544 100.324Z" fill="#424242"/>
</g>
<defs>
<clipPath id="clip0_4_75890">
<rect width="120" height="120" fill="white"/>
</clipPath>
</defs>
</svg>
