<svg width="120" height="120" viewBox="0 0 120 120" fill="none" xmlns="http://www.w3.org/2000/svg">
<path d="M80.657 97.0258L60.9204 119.659C60.4995 120.081 59.8448 120.128 59.4239 119.706L59.3771 119.659L39.5002 97.0258C39.1261 96.5563 39.1729 95.8519 39.6406 95.4763C39.8276 95.2885 40.0615 95.2415 40.3421 95.1945H52.2214V70.9653C52.2214 69.7444 53.2036 68.7584 54.4196 68.7584H65.878C67.094 68.7584 68.0761 69.7444 68.0761 70.9653V95.1945H79.8619C80.4699 95.2415 80.9376 95.758 80.8908 96.3685C80.8908 96.6502 80.7973 96.838 80.657 97.0258ZM119.943 58.9446C119.616 66.5514 114.985 72.0922 108.905 76.2244C102.826 80.4034 95.6698 80.6382 88.4206 80.2626H75.8398V70.9183C75.8398 65.3306 71.3032 60.7759 65.7377 60.7759H54.326C48.7605 60.8228 44.2707 65.3775 44.3175 70.9653V80.4504H32.2978C28.7434 80.2156 25.0018 80.1687 21.2603 79.6052C7.51023 77.3983 -1.84358 64.4384 0.307795 50.6334C2.22532 38.5187 12.5145 29.5032 24.768 29.3154L27.0129 29.1745C31.9704 10.2043 44.3642 -0.454673 61.1543 0.014886C75.793 0.390534 90.1979 10.2043 93.612 28.9397C114.19 32.6962 120.691 39.8805 119.943 58.9446Z" fill="#424242"/>
</svg>
