<svg width="120" height="120" viewBox="0 0 120 120" fill="none" xmlns="http://www.w3.org/2000/svg">
<path fill-rule="evenodd" clip-rule="evenodd" d="M38.9231 74.4305V45.5695C38.9231 44.6723 39.1638 43.819 39.6234 43.0751C40.061 42.353 40.6957 41.7403 41.4942 41.2807C42.282 40.8321 43.1353 40.5914 43.9997 40.5586C44.8641 40.5258 45.7282 40.6898 46.5488 41.0728L78.0792 55.4923C79.0092 55.9191 79.7421 56.5425 80.2563 57.2974C80.7923 58.0851 81.0769 59.0151 81.0769 59.9998C81.0769 60.9844 80.7923 61.9034 80.2563 62.6911C79.7421 63.4568 79.0092 64.0805 78.0792 64.4962L46.5488 78.9267C45.7282 79.2987 44.8638 79.4737 43.9997 79.4409C43.1353 79.3971 42.282 79.1564 41.4942 78.7188C40.6957 78.2594 40.061 77.6468 39.6234 76.9244C39.1638 76.181 38.9231 75.3274 38.9231 74.4305ZM103.133 14.0829H16.867C12.2611 14.0829 8.07094 15.9647 5.02945 18.9952C1.99898 22.0366 0.117188 26.2158 0.117188 30.8327V89.1673C0.117188 93.7732 1.99898 97.9633 5.02945 100.994C8.07094 104.036 12.2611 105.917 16.867 105.917H103.133C107.739 105.917 111.929 104.036 114.96 100.994C118.001 97.9636 119.883 93.7734 119.883 89.1673V30.8327C119.883 26.2158 118.001 22.0366 114.96 18.9952C111.929 15.9644 107.739 14.0829 103.133 14.0829Z" fill="#424242"/>
</svg>
