<svg width="24" height="24" viewBox="0 0 24 24" fill="none" xmlns="http://www.w3.org/2000/svg">
<path fill-rule="evenodd" clip-rule="evenodd" d="M11.4843 2.17029C11.7735 1.89636 12.2265 1.89636 12.5157 2.17029C14.5325 4.08026 17.2538 5.25059 20.25 5.25059C20.2977 5.25059 20.3453 5.2503 20.3928 5.24971C20.7202 5.24564 21.0123 5.45439 21.1146 5.7654C21.5271 7.02016 21.75 8.36012 21.75 9.75064C21.75 15.6927 17.6859 20.6836 12.1869 22.0989C12.0643 22.1305 11.9357 22.1305 11.8131 22.0989C6.31406 20.6836 2.25 15.6927 2.25 9.75064C2.25 8.36012 2.47287 7.02016 2.88541 5.7654C2.98767 5.45439 3.27984 5.24564 3.60721 5.24971C3.65473 5.2503 3.70233 5.25059 3.75 5.25059C6.74624 5.25059 9.46752 4.08026 11.4843 2.17029ZM12 8.25058C12.4142 8.25058 12.75 8.58637 12.75 9.00058V12.7506C12.75 13.1648 12.4142 13.5006 12 13.5006C11.5858 13.5006 11.25 13.1648 11.25 12.7506V9.00058C11.25 8.58637 11.5858 8.25058 12 8.25058ZM12 15.0006C11.5858 15.0006 11.25 15.3364 11.25 15.7506V15.7581C11.25 16.1723 11.5858 16.5081 12 16.5081H12.0075C12.4217 16.5081 12.7575 16.1723 12.7575 15.7581V15.7506C12.7575 15.3364 12.4217 15.0006 12.0075 15.0006H12Z" fill="#424242"/>
</svg>
