<svg width="120" height="120" viewBox="0 0 120 120" fill="none" xmlns="http://www.w3.org/2000/svg">
<path fill-rule="evenodd" clip-rule="evenodd" d="M93.4269 95.4855C102.861 86.5956 108.75 73.9856 108.75 60C108.75 33.0761 86.9239 11.25 60 11.25C33.0761 11.25 11.25 33.0761 11.25 60C11.25 73.9856 17.1393 86.5956 26.5731 95.4855C35.3006 103.71 47.0617 108.75 60 108.75C72.9383 108.75 84.6994 103.71 93.4269 95.4855ZM30.7256 89.0615C37.5981 80.489 48.158 75 60 75C71.842 75 82.4019 80.489 89.2744 89.0615C81.8014 96.5889 71.445 101.25 60 101.25C48.555 101.25 38.1986 96.5889 30.7256 89.0615ZM78.75 45C78.75 55.3553 70.3553 63.75 60 63.75C49.6447 63.75 41.25 55.3553 41.25 45C41.25 34.6447 49.6447 26.25 60 26.25C70.3553 26.25 78.75 34.6447 78.75 45Z" fill="#424242"/>
</svg>
