<svg width="21" height="20" viewBox="0 0 21 20" fill="none" xmlns="http://www.w3.org/2000/svg">
<path fill-rule="evenodd" clip-rule="evenodd" d="M10.5 0.25C5.115 0.25 0.75 4.615 0.75 10C0.75 15.385 5.115 19.75 10.5 19.75C15.885 19.75 20.25 15.385 20.25 10C20.25 4.615 15.885 0.25 10.5 0.25ZM8.78 7.22C8.71134 7.14631 8.62854 7.08721 8.53654 7.04622C8.44454 7.00523 8.34522 6.98318 8.24452 6.98141C8.14382 6.97963 8.04379 6.99816 7.9504 7.03588C7.85701 7.0736 7.77218 7.12974 7.70096 7.20096C7.62974 7.27218 7.5736 7.35701 7.53588 7.4504C7.49816 7.54379 7.47963 7.64382 7.48141 7.74452C7.48318 7.84522 7.50523 7.94454 7.54622 8.03654C7.58721 8.12854 7.64631 8.21134 7.72 8.28L9.44 10L7.72 11.72C7.64631 11.7887 7.58721 11.8715 7.54622 11.9635C7.50523 12.0555 7.48318 12.1548 7.48141 12.2555C7.47963 12.3562 7.49816 12.4562 7.53588 12.5496C7.5736 12.643 7.62974 12.7278 7.70096 12.799C7.77218 12.8703 7.85701 12.9264 7.9504 12.9641C8.04379 13.0018 8.14382 13.0204 8.24452 13.0186C8.34522 13.0168 8.44454 12.9948 8.53654 12.9538C8.62854 12.9128 8.71134 12.8537 8.78 12.78L10.5 11.06L12.22 12.78C12.2887 12.8537 12.3715 12.9128 12.4635 12.9538C12.5555 12.9948 12.6548 13.0168 12.7555 13.0186C12.8562 13.0204 12.9562 13.0018 13.0496 12.9641C13.143 12.9264 13.2278 12.8703 13.299 12.799C13.3703 12.7278 13.4264 12.643 13.4641 12.5496C13.5018 12.4562 13.5204 12.3562 13.5186 12.2555C13.5168 12.1548 13.4948 12.0555 13.4538 11.9635C13.4128 11.8715 13.3537 11.7887 13.28 11.72L11.56 10L13.28 8.28C13.3537 8.21134 13.4128 8.12854 13.4538 8.03654C13.4948 7.94454 13.5168 7.84522 13.5186 7.74452C13.5204 7.64382 13.5018 7.54379 13.4641 7.4504C13.4264 7.35701 13.3703 7.27218 13.299 7.20096C13.2278 7.12974 13.143 7.0736 13.0496 7.03588C12.9562 6.99816 12.8562 6.97963 12.7555 6.98141C12.6548 6.98318 12.5555 7.00523 12.4635 7.04622C12.3715 7.08721 12.2887 7.14631 12.22 7.22L10.5 8.94L8.78 7.22Z" fill="#C70707"/>
</svg>
