<svg width="25" height="24" viewBox="0 0 25 24" fill="none" xmlns="http://www.w3.org/2000/svg">
<rect x="11.9375" width="1" height="6" rx="0.5" fill="#C4C4C4"/>
<rect x="0.4375" y="12.5" width="1" height="6" rx="0.5" transform="rotate(-90 0.4375 12.5)" fill="black"/>
<rect x="6.87109" y="22.6426" width="1" height="6" rx="0.5" transform="rotate(-150 6.87109 22.6426)" fill="#2B2B2B"/>
<rect x="18.8711" y="22.1426" width="1" height="6" rx="0.5" transform="rotate(150 18.8711 22.1426)" fill="#575757"/>
<rect x="23.0801" y="17.5664" width="1" height="6" rx="0.5" transform="rotate(120 23.0801 17.5664)" fill="#6D6D6D"/>
<rect x="22.5801" y="5.56641" width="1" height="6" rx="0.5" transform="rotate(60 22.5801 5.56641)" fill="#989898"/>
<rect x="12.9375" y="24" width="1" height="6" rx="0.5" transform="rotate(180 12.9375 24)" fill="#414141"/>
<rect x="24.4375" y="11.5" width="1" height="6" rx="0.5" transform="rotate(90 24.4375 11.5)" fill="#828282"/>
<rect x="18.0039" y="1.35742" width="1" height="6" rx="0.5" transform="rotate(30 18.0039 1.35742)" fill="#AEAEAE"/>
<rect x="6.00391" y="1.85742" width="1" height="6" rx="0.5" transform="rotate(-30 6.00391 1.85742)" fill="#D9D9D9"/>
<rect x="1.79492" y="6.43359" width="1" height="6" rx="0.5" transform="rotate(-60 1.79492 6.43359)" fill="#EFEFEF"/>
<rect x="2.29492" y="18.4336" width="1" height="6" rx="0.5" transform="rotate(-120 2.29492 18.4336)" fill="#161616"/>
</svg>
