<svg width="21" height="20" viewBox="0 0 21 20" fill="none" xmlns="http://www.w3.org/2000/svg">
<path fill-rule="evenodd" clip-rule="evenodd" d="M0.75 10C0.75 4.615 5.115 0.25 10.5 0.25C15.885 0.25 20.25 4.615 20.25 10C20.25 15.385 15.885 19.75 10.5 19.75C5.115 19.75 0.75 15.385 0.75 10ZM10.5 6.25C10.6989 6.25 10.8897 6.32902 11.0303 6.46967C11.171 6.61032 11.25 6.80109 11.25 7V10.75C11.25 10.9489 11.171 11.1397 11.0303 11.2803C10.8897 11.421 10.6989 11.5 10.5 11.5C10.3011 11.5 10.1103 11.421 9.96967 11.2803C9.82902 11.1397 9.75 10.9489 9.75 10.75V7C9.75 6.80109 9.82902 6.61032 9.96967 6.46967C10.1103 6.32902 10.3011 6.25 10.5 6.25ZM10.5 14.5C10.6989 14.5 10.8897 14.421 11.0303 14.2803C11.171 14.1397 11.25 13.9489 11.25 13.75C11.25 13.5511 11.171 13.3603 11.0303 13.2197C10.8897 13.079 10.6989 13 10.5 13C10.3011 13 10.1103 13.079 9.96967 13.2197C9.82902 13.3603 9.75 13.5511 9.75 13.75C9.75 13.9489 9.82902 14.1397 9.96967 14.2803C10.1103 14.421 10.3011 14.5 10.5 14.5Z" fill="#F08200"/>
</svg>
