<svg width="396" height="640" viewBox="0 0 396 640" fill="none" xmlns="http://www.w3.org/2000/svg">
<path d="M157.82 611.13C157.32 615.41 138.21 626.1 134.72 623.98C131.72 622.16 136.95 613.56 135.76 610.77C130.67 614.47 126.96 619.24 120.5 620.96C118.83 616.04 121.88 611.41 122.73 605.77C118.53 607.71 108.03 617.74 104.73 614.74C102.71 612.9 108.39 601.51 108.98 598.16C105.31 598.9 94.9597 604.04 93.1697 601.33C90.6197 597.46 97.3797 591.99 98.0797 587.84C93.8797 588.44 91.1997 591.41 87.2997 590.51C85.0597 582.12 96.1497 574.88 94.9997 568C98.2797 586.18 108.54 600.59 127.04 606.19C137.14 609.25 147.46 610.9 157.81 611.14L157.82 611.13Z" fill="#BCBBBB"/>
<path d="M341.995 220.786C358.915 240.786 380.815 303.686 370.505 332.626L366.415 344.116C365.815 345.806 363.985 346.916 363.865 348.466C363.465 348.756 363.205 349.186 362.875 349.556C362.575 349.896 362.375 350.386 362.045 350.686C354.885 357.016 349.205 364.796 340.985 370.626C298.605 400.666 232.835 399.146 186.385 378.486C194.645 388.366 206.115 391.256 217.035 395.656C256.815 409.196 333.045 399.846 355.115 364.646C357.705 367.676 353.795 387.236 356.805 391.086C353.365 399.386 354.955 409.256 353.865 418.286C353.735 419.366 353.235 420.416 353.215 421.546C353.135 425.046 350.865 429.426 352.345 433.156C353.535 436.146 358.425 434.386 360.875 434.666C370.495 435.796 379.685 436.106 389.015 433.536C391.445 432.866 393.625 432.086 395.845 432.816C395.625 433.666 395.535 434.546 395.605 435.426C384.285 449.356 371.135 463.716 364.945 480.376L361.905 488.576C357.775 499.696 345.845 506.556 332.875 508.536L333.565 551.556C333.835 568.466 332.105 584.956 327.555 601.006C325.445 608.446 321.525 614.306 314.435 617.286C306.885 620.456 298.805 623.196 290.805 623.716C274.445 624.786 258.175 624.716 241.755 620.846C228.625 617.756 217.695 608.956 214.695 595.686C210.605 577.636 210.245 559.016 210.685 540.596C211.695 537.846 211.245 534.826 211.575 531.546L215.655 490.426C208.195 504.226 207.495 519.816 208.935 535.096C177.375 534.646 132.975 528.316 112.605 501.786L93.1549 476.446C110.845 524.586 154.305 542.916 204.815 538.566L204.925 572.606C203.895 578.386 204.205 584.416 201.565 590.256C197.485 599.266 190.645 605.696 180.965 608.636C172.755 611.126 164.175 612.766 155.835 612.576C145.485 612.346 135.165 610.686 125.065 607.626C106.565 602.026 96.3049 587.616 93.0249 569.436C90.4349 555.076 88.5049 540.716 87.9049 525.576L86.4348 488.776L82.5 481C82.56 479.71 80.0349 465 80.0349 465V453.426C78.7649 446.996 76.1649 441.466 74.6449 435.636C74.0849 433.496 73.7148 431.526 72.9248 429.466C72.0848 427.266 72.3748 423.496 70.8548 421.606C70.6048 420.636 70.7448 418.706 70.0448 417.806L67.4949 391.346L67.3648 377.286C67.2848 368.346 68.1948 359.366 69.0448 350.466C69.9148 341.356 73.3048 332.436 73.0648 323.296C74.4148 321.486 74.6249 318.726 75.1549 316.526C76.3649 311.506 78.2849 306.626 78.9049 301.486C80.3449 300.506 81.3549 298.596 81.9949 296.546C86.1349 283.246 90.7148 270.496 92.7948 256.226C84.8748 270.366 80.5448 285.816 77.9548 301.286C45.8348 279.586 21.1048 246.446 6.67478 210.056C2.17478 198.696 0.534824 187.566 0.0948237 175.476C-0.925176 147.416 6.31479 120.136 20.3148 95.966C34.3148 71.796 61.8349 47.766 91.7449 44.376C94.0549 31.036 101.885 19.366 114.145 14.026C130.815 6.76604 141.905 17.256 148.885 32.036C186.655 19.166 234.405 14.716 272.605 24.966C281.445 8.35604 295.985 -6.47397 315.495 2.92603C326.775 8.36603 336.115 18.566 339.745 30.476C345.755 50.206 331.245 61.356 314.895 67.316C334.535 111.526 321.925 156.526 326.325 202.206L342.025 220.776L341.995 220.786ZM107.675 53.436C107.675 54.426 107.735 55.436 107.995 56.406C110.165 64.656 109.085 73.216 106.865 81.396C105.915 81.226 104.425 82.316 103.935 83.496C98.8148 95.676 90.5649 105.556 80.5249 114.186C78.5749 115.856 77.5148 117.456 78.1848 119.936C67.9548 124.016 60.0448 132.316 58.8248 143.686C56.8848 161.716 56.6048 184.606 76.8448 192.336C81.8448 194.246 84.1248 197.276 86.9248 201.726C91.2948 208.696 99.4848 212.536 106.745 215.686L109.105 212.606C131.285 226.496 170.215 218.746 193.775 210.536C197.155 209.356 201.075 209.606 203.045 206.336C170.885 214.086 117.395 229.006 92.6249 199.426C126.185 207.556 158.975 209.046 186.145 186.896C193.415 180.966 198.965 173.596 201.735 164.686C205.555 152.376 201.055 140.156 190.985 132.356C169.935 116.056 137.595 112.356 112.795 112.006C121.275 109.126 122.795 94.486 120.155 88.026C115.425 92.176 110.055 93.596 105.425 96.246C103.555 99.116 105.385 106.586 108.975 107.656C109.275 107.746 109.455 108.146 109.695 108.326C109.725 109.416 110.545 109.976 111.975 111.456L94.0748 112.616C94.3348 110.896 94.1848 109.156 93.7148 107.486C99.4948 101.396 104.575 94.686 107.565 86.456C113.095 84.536 121.905 82.346 122.745 76.526C122.905 75.396 124.125 74.506 123.785 73.066C122.575 67.846 114.015 69.456 109.335 68.316C113.535 64.706 127.185 65.506 126.565 60.046C126.445 58.986 124.945 58.296 123.985 57.476C123.115 56.736 122.055 54.566 122.005 53.436C124.135 45.346 105.405 45.056 101.335 47.246C103.955 49.216 105.145 52.066 107.655 53.426L107.675 53.436ZM215.985 70.726C209.085 81.366 233.795 90.856 241.485 86.976C233.065 79.176 226.945 85.276 215.985 70.726ZM214.765 110.646L214.805 111.406C214.965 114.276 216.985 116.376 219.235 117.746C221.485 119.116 225.025 119.936 227.485 117.966C232.995 113.556 235.615 106.616 236.085 98.986C227.895 96.556 220.545 93.806 212.955 88.906C209.945 96.426 211.545 103.676 213.565 110.806C213.925 111.226 214.585 110.916 214.765 110.656V110.646ZM205.855 296.276C206.925 298.346 209.635 297.686 211.975 298.086C250.875 304.716 258.475 308.826 297.355 291.086C292.125 284.716 285.325 294.906 274.565 294.006C272.175 281.856 268.685 270.546 261.425 260.266C261.045 264.736 263.635 268.226 265.035 272.356C267.565 279.836 270.045 287.256 269.925 295.436C251.805 303.166 230.015 293.316 213.785 294.306C209.515 288.096 202.835 284.126 195.675 280.706C205.045 265.156 212.145 249.336 217.655 232.496C218.525 229.856 219.615 227.246 218.385 223.886C199.755 240.796 176.915 275.436 153.755 284.636C128.745 294.576 112.555 251.906 102.725 235.086C102.865 256.926 109.415 277.236 118.405 296.116C132.055 324.756 149.555 321.336 151.945 322.646L165.175 329.896C167.305 317.746 174.005 307.296 184.825 301.956C179.625 298.056 188.675 295.496 189.755 288.516C190.165 285.856 187.835 283.056 190.475 280.406C192.355 286.236 193.095 292.176 196.675 297.686C199.985 296.066 203.265 296.946 205.845 296.276H205.855ZM260.855 259.016C260.855 258.736 260.635 258.516 260.355 258.516C260.075 258.516 259.855 258.736 259.855 259.016C259.855 259.296 260.075 259.516 260.355 259.516C260.635 259.516 260.855 259.296 260.855 259.016ZM153.855 352.016C152.135 352.716 151.405 354.566 151.805 355.926C152.795 359.316 167.595 363.366 170.795 363.096C165.645 352.556 163.615 342.626 164.895 331.026C161.215 331.736 146.815 332.546 146.775 337.056C146.735 341.566 160.015 345.146 164.185 347.806L153.855 352.026V352.016ZM182.805 376.686C178.295 372.096 174.625 369.236 171.885 364.196C168.735 365.366 156.605 368.566 158.775 371.906C161.375 375.906 177.715 377.036 182.805 376.686ZM185.855 378.016C185.855 377.736 185.635 377.516 185.355 377.516C185.075 377.516 184.855 377.736 184.855 378.016C184.855 378.296 185.075 378.516 185.355 378.516C185.635 378.516 185.855 378.296 185.855 378.016ZM332.525 497.706C344.795 487.046 350.345 471.456 348.415 456.346C345.325 464.496 343.695 471.816 340.405 479.166C337.115 486.516 329.085 493.906 332.525 497.706Z" fill="#323235"/>
<path d="M290.795 623.716C289.175 627.696 269.275 643.926 266.875 638.826C264.925 634.706 267.535 630.136 266.465 625.446C265.555 626.636 249.565 645.826 250.005 636.546L250.575 624.366C246.445 625.956 234.805 640.216 231.595 636.216C230.305 630.416 233.525 625.086 234.725 619.306C229.825 621.276 219.335 628.796 215.915 626.096C213.105 623.866 219.565 613.946 220.115 610.256C215.305 611.346 211.585 615.446 207.115 613.956C204.595 613.116 206.585 608.726 207.545 607.176L214.665 595.676C217.675 608.946 228.605 617.746 241.725 620.836C258.145 624.696 274.415 624.766 290.775 623.706L290.795 623.716Z" fill="#BCBBBB"/>
<path d="M210.674 540.596C210.014 539.686 209.845 538.806 209.155 538.476C207.995 537.916 205.965 538.196 205.905 539.546C205.395 551.046 206.815 561.986 204.915 572.606L204.804 538.566C154.294 542.916 110.835 524.586 93.1445 476.446L112.594 501.786C132.964 528.316 177.354 534.656 208.924 535.096C207.484 519.816 208.195 504.226 215.645 490.426L211.564 531.546C211.234 534.836 211.684 537.846 210.674 540.596Z" fill="#4D4B4C"/>
<path d="M122.765 76.5264C121.925 82.3464 113.115 84.5364 107.585 86.4564C104.595 94.6864 99.5147 101.396 93.7347 107.486C90.2347 111.176 86.1547 114.386 81.8347 117.376C86.5147 116.936 90.2947 114.066 94.0947 112.616L111.995 111.456C110.565 109.966 109.745 109.406 109.715 108.326C111.065 108.396 112.805 108.476 113.305 107.546C114.165 105.936 114.275 104.296 114.075 102.576C113.805 100.296 112.685 98.4264 110.545 98.8364C106.905 99.5364 108.635 105.416 108.995 107.656C105.395 106.586 103.575 99.1164 105.445 96.2464C110.065 93.5964 115.435 92.1764 120.175 88.0264C122.805 94.4864 121.285 109.126 112.815 112.006C137.615 112.356 169.955 116.066 191.005 132.356C201.075 140.146 205.575 152.376 201.755 164.686C198.995 173.596 193.435 180.966 186.165 186.896C158.995 209.046 126.205 207.556 92.6448 199.426C117.415 229.006 170.895 214.086 203.065 206.336C201.095 209.606 197.175 209.356 193.795 210.536C170.235 218.746 131.305 226.496 109.125 212.606L106.765 215.686C99.4948 212.536 91.3147 208.696 86.9447 201.726C84.1547 197.276 81.8648 194.246 76.8648 192.336C56.6248 184.606 56.9047 161.716 58.8447 143.686C60.0647 132.316 67.9747 124.016 78.2047 119.936C77.5347 117.456 78.5947 115.856 80.5447 114.186C90.5847 105.556 98.8447 95.6764 103.955 83.4964C104.455 82.3164 105.945 81.2364 106.885 81.3964C107.515 81.5064 108.015 82.3964 109.215 81.9164L122.785 76.5264H122.765ZM101.365 135.526C99.8148 133.036 70.4547 130.916 68.5747 136.596C66.5847 142.596 75.6647 151.056 80.6047 154.666C87.5347 159.736 103.905 139.586 101.375 135.526H101.365ZM117.065 185.286C113.185 177.816 104.165 174.666 96.1847 177.086C92.9747 178.066 90.3647 180.756 90.4747 184.506C103.635 175.546 105.665 183.606 117.065 185.286Z" fill="#4D4B4C"/>
<path d="M213.784 294.296C211.054 294.466 208.404 295.626 205.854 296.276C203.304 296.926 199.984 296.056 196.684 297.686C193.104 292.176 192.364 286.226 190.484 280.406C187.844 283.066 190.174 285.866 189.764 288.516C188.684 295.486 179.634 298.056 184.834 301.956C174.014 307.296 167.324 317.746 165.184 329.896L151.954 322.646C149.564 321.336 132.054 324.756 118.414 296.116C109.424 277.246 102.874 256.926 102.734 235.086C112.564 251.896 128.764 294.576 153.764 284.636C176.924 275.436 199.764 240.786 218.394 223.886C219.614 227.236 218.524 229.846 217.664 232.496C212.154 249.336 205.054 265.156 195.684 280.706C202.854 284.126 209.524 288.096 213.794 294.306L213.784 294.296Z" fill="#BCBBBB"/>
<path d="M355.095 364.646C333.025 399.836 256.795 409.196 217.015 395.656C206.095 391.256 194.635 388.366 186.365 378.486C232.815 399.136 298.595 400.666 340.965 370.626C349.185 364.796 354.855 357.006 362.025 350.686C361.965 353.636 360.255 356.416 358.515 359.186L355.085 364.666L355.095 364.646Z" fill="#4D4B4C"/>
<path d="M205.854 296.276C208.404 295.626 211.055 294.466 213.785 294.296C230.015 293.306 251.804 303.156 269.924 295.426C270.044 287.246 267.565 279.816 265.035 272.346C263.635 268.226 261.054 264.726 261.424 260.256C268.684 270.546 272.174 281.856 274.564 293.996C285.324 294.896 292.124 284.716 297.354 291.076C258.474 308.816 250.874 304.706 211.974 298.076C209.634 297.676 206.924 298.336 205.854 296.266V296.276Z" fill="#4D4B4C"/>
<path d="M214.805 111.406C215.935 111.636 217.975 113.046 219.405 111.906C222.395 109.516 221.955 104.556 219.675 101.796C218.835 100.776 217.565 100.876 216.735 101.106C212.955 102.156 214.665 108.616 214.775 110.646C214.595 110.906 213.935 111.216 213.575 110.796C211.565 103.666 209.955 96.4165 212.965 88.8965C220.565 93.7965 227.905 96.5565 236.095 98.9765C235.625 106.606 233.005 113.546 227.495 117.956C225.035 119.926 221.525 119.136 219.245 117.736C216.965 116.336 214.975 114.256 214.815 111.396L214.805 111.406Z" fill="#4D4B4C"/>
<path d="M153.854 352.016L164.184 347.796C160.014 345.136 146.735 341.496 146.775 337.046C146.815 332.596 161.214 331.726 164.894 331.016C163.604 342.616 165.644 352.546 170.794 363.086C167.584 363.356 152.794 359.316 151.804 355.916C151.404 354.556 152.134 352.706 153.854 352.006V352.016Z" fill="#BCBBBB"/>
<path d="M124.005 57.4763C124.965 58.2963 126.475 58.9864 126.585 60.0464C127.195 65.4964 113.545 64.6963 109.355 68.3163C114.035 69.4563 122.595 67.8563 123.805 73.0663C124.135 74.5063 122.925 75.3964 122.765 76.5264L109.195 81.9163C107.995 82.3963 107.495 81.5064 106.865 81.3964C109.085 73.2164 110.165 64.6564 107.995 56.4064C113.215 55.0864 119.025 55.4064 124.005 57.4864V57.4763Z" fill="#BCBBBB"/>
<path d="M182.805 376.686C177.715 377.036 161.375 375.916 158.775 371.906C156.605 368.566 168.735 365.356 171.885 364.196C174.625 369.236 178.295 372.096 182.805 376.686Z" fill="#BCBBBB"/>
<path d="M332.525 497.706C329.085 493.906 336.975 486.836 340.405 479.166C343.835 471.496 345.325 464.496 348.415 456.346C350.345 471.456 344.795 487.046 332.525 497.706Z" fill="#4D4B4C"/>
<path d="M78.8947 301.476C78.6147 301.346 78.1846 301.446 77.9346 301.276C80.5246 285.806 84.8547 270.366 92.7747 256.216C90.6947 270.486 86.1246 283.246 81.9746 296.536C81.3346 298.586 80.3246 300.496 78.8846 301.476H78.8947Z" fill="#4D4B4C"/>
<path d="M215.985 70.7256C226.945 85.2756 233.065 79.1656 241.485 86.9756C233.795 90.8556 209.085 81.3756 215.985 70.7256Z" fill="#4D4B4C"/>
<path d="M122.025 53.4362C117.235 52.3862 112.344 51.6862 107.674 53.4362C105.164 52.0762 103.974 49.2262 101.354 47.2562C105.424 45.0562 124.155 45.3562 122.025 53.4462V53.4362Z" fill="#BCBBBB"/>
<path d="M214.804 111.406L214.764 110.646C214.654 108.616 212.944 102.156 216.724 101.106C217.564 100.876 218.825 100.776 219.665 101.796C221.945 104.556 222.394 109.516 219.394 111.906C217.964 113.046 215.924 111.636 214.794 111.406H214.804Z" fill="#BCBBBB"/>
<path d="M122.025 53.4363C122.075 54.5663 123.135 56.7363 124.005 57.4763C119.025 55.4063 113.215 55.0863 107.995 56.3963C107.745 55.4363 107.675 54.4263 107.675 53.4263C112.345 51.6763 117.225 52.3763 122.025 53.4263V53.4363Z" fill="#4D4B4C"/>
<path d="M109.704 108.326C109.454 108.146 109.285 107.746 108.985 107.656C108.625 105.416 106.895 99.536 110.535 98.836C112.665 98.426 113.794 100.296 114.064 102.576C114.264 104.286 114.154 105.936 113.294 107.546C112.794 108.476 111.064 108.406 109.704 108.326Z" fill="#BCBBBB"/>
<path d="M94.0852 112.616C90.2852 114.066 86.5052 116.936 81.8252 117.376C86.1452 114.386 90.2252 111.166 93.7252 107.486C94.1952 109.156 94.3452 110.896 94.0852 112.616Z" fill="#262628"/>
<path d="M185.354 378.516C185.631 378.516 185.854 378.292 185.854 378.016C185.854 377.739 185.631 377.516 185.354 377.516C185.078 377.516 184.854 377.739 184.854 378.016C184.854 378.292 185.078 378.516 185.354 378.516Z" fill="#4D4B4C"/>
<path d="M260.354 259.516C260.631 259.516 260.854 259.292 260.854 259.016C260.854 258.739 260.631 258.516 260.354 258.516C260.078 258.516 259.854 258.739 259.854 259.016C259.854 259.292 260.078 259.516 260.354 259.516Z" fill="#4D4B4C"/>
<path d="M362.875 349.546C363.195 349.176 363.465 348.756 363.865 348.456C363.835 348.896 363.065 349.176 362.875 349.546Z" fill="#4D4B4C"/>
<path d="M101.365 135.526C103.905 139.596 87.5247 159.746 80.5947 154.666C75.6547 151.056 66.5747 142.596 68.5647 136.596C70.4547 130.916 99.8047 133.036 101.355 135.526H101.365Z" fill="#323235"/>
<path d="M117.065 185.286C105.655 183.606 103.625 175.546 90.475 184.506C90.365 180.756 92.975 178.066 96.185 177.086C104.165 174.666 113.185 177.816 117.065 185.286Z" fill="#323235"/>
</svg>
