<svg width="272" height="56" viewBox="0 0 272 56" fill="none" xmlns="http://www.w3.org/2000/svg">
<g clip-path="url(#clip0_2866_8736)">
<path d="M-8.42616 3.17928C-13.1667 -1.45085 -17.9785 -5.95833 -22.5544 -10.6935C-25.231 -13.4629 -25.5488 -17.0021 -24.2728 -20.5385C-22.9711 -24.1468 -20.1963 -26.1627 -16.4335 -26.7665C-14.3228 -27.1053 -12.4424 -26.3823 -10.5349 -25.2818C-11.2708 -24.054 -11.9504 -22.9197 -12.6267 -21.7914C-16.1022 -22.875 -18.1553 -22.3959 -19.6698 -20.1699C-21.1104 -18.0537 -21.1199 -15.3453 -19.3635 -13.5056C-15.8806 -9.858 -12.2526 -6.34864 -8.26895 -2.36631C-7.07906 -3.73034 -6.00911 -5.0666 -4.82397 -6.29104C-2.59597 -8.59425 -0.271761 -10.8033 1.95759 -13.1051C4.19304 -15.4138 4.19304 -18.7056 2.03687 -20.9092C-0.0162983 -23.0071 -2.93613 -23.0274 -5.04555 -20.958C-7.25863 -18.7876 -7.29522 -15.5398 -5.1045 -13.1783C-4.60374 -12.6389 -4.01151 -12.1842 -3.29256 -11.5392C-3.90241 -10.8934 -4.42011 -10.4062 -4.86259 -9.858C-5.29016 -9.32811 -5.63981 -8.7352 -5.98675 -8.22427C-11.9118 -12.8253 -12.6023 -19.8853 -7.92337 -24.1868C-4.36048 -27.4624 0.513594 -27.6738 4.21268 -24.7147C8.00325 -21.6817 9.02374 -16.1706 6.53351 -12.0453C6.15405 -11.4172 5.71428 -10.7999 5.1959 -10.2842C0.652504 -5.76657 -3.91461 -1.27332 -8.42616 3.17928Z" fill="#E2ECC6"/>
<path d="M50.3765 16.4722C49.7375 13.4737 48.0178 11.0723 45.4035 9.528C41.4314 7.18211 35.0028 6.00848 26.9325 13.736C25.8835 14.6596 24.6503 16.0995 23.2239 17.7657C19.9571 21.5807 15.0214 27.3431 11.8922 26.2691C10.3723 25.746 9.00757 23.7789 8.41533 21.2588C7.79938 18.6399 7.99114 14.978 10.375 12.5569C13.3768 9.50768 18.1689 9.33082 23.1934 12.0833C23.8636 12.4499 24.7038 12.2046 25.0711 11.5344C25.4377 10.8643 25.1924 10.024 24.5222 9.65675C17.2548 5.67645 11.4307 7.54192 8.40381 10.6156C5.74892 13.3118 4.72166 17.6323 5.72249 21.8904C6.53902 25.3659 8.55831 28.0451 10.9916 28.8827C15.8996 30.5713 21.1253 24.4673 25.3245 19.5628C26.6357 18.0314 27.8737 16.5853 28.7776 15.7946L28.8244 15.7519C34.3083 10.4922 39.4128 9.20072 43.9968 11.9078C45.9544 13.0645 47.1911 14.7937 47.6715 17.0468C48.4833 20.8557 47.0373 25.7324 43.7048 30.427C41.6177 33.3664 34.7894 42.3712 30.9209 45.0993C27.8581 47.2609 24.5452 44.0741 23.2632 42.6043C22.7618 42.029 21.8876 41.9694 21.3117 42.4715C20.7364 42.9736 20.6767 43.8471 21.1789 44.4231C23.5851 47.1809 26.2196 48.6087 28.7038 48.6087C30.0366 48.6087 31.3268 48.1974 32.514 47.3605C37.5012 43.843 45.8765 32.1461 45.9599 32.0282C49.7389 26.7055 51.3489 21.0346 50.3765 16.4708V16.4722Z" fill="white"/>
<path d="M43.994 15.9154C43.5455 15.4905 43.2249 14.9172 42.7452 14.5405C42.2844 14.1793 41.5946 13.6528 41.1752 13.7768C39.2792 14.3352 37.1149 14.6916 35.6513 15.87C32.2713 18.5913 28.9944 21.5301 26.1369 24.786C23.1954 28.1381 22.3904 33.2372 26.5265 37.2527C27.4243 38.1241 27.8099 39.7274 28.0037 41.0562C28.1657 42.1641 28.5234 42.6519 29.5202 42.7915C29.6334 42.6879 29.7323 42.6316 29.7791 42.5469C29.8536 42.41 29.9234 42.2589 29.943 42.1065C30.3543 38.8959 32.2517 36.7615 34.7466 34.8587C36.0097 33.8958 36.9516 32.3888 37.743 30.9638C38.5995 29.4195 39.1464 27.6977 39.7664 26.0294C40.7537 23.3718 43.6979 21.7455 43.685 18.5567C43.6844 18.348 43.9581 18.1162 44.1411 17.9326C44.8749 17.1954 44.6798 16.5652 43.994 15.916V15.9154Z" fill="white"/>
</g>
<path d="M61.256 34.392H74.504V37.176H61.256V34.392ZM59.96 27.504H76.016V38.136H72.92V30.264H62.912V38.136H59.96V27.504ZM64.664 15.432L67.952 16.512C66.392 19.488 64.352 22.704 62.72 24.792L60.128 23.76C61.736 21.576 63.632 18.12 64.664 15.432ZM70.424 19.728L72.704 18.048C75.08 19.968 77.96 22.752 79.208 24.816L76.688 26.736C75.56 24.72 72.824 21.792 70.424 19.728ZM57.416 22.416C62.264 22.296 69.704 22.008 76.304 21.72L76.16 24.504C69.512 24.864 62.312 25.152 57.584 25.344L57.416 22.416ZM91.28 29.136H101.816V38.064H99.008V31.704H93.968V38.16H91.28V29.136ZM90.8 20.472H101.288V26.712H98.528V22.92H90.8V20.472ZM93.728 17.328L96.536 17.544C96.128 20.568 95.48 24.408 95 26.712H92.192C92.744 24.288 93.368 20.352 93.728 17.328ZM90.416 16.32H102.512V18.768H90.416V16.32ZM89.528 25.344H103.352V27.864H89.528V25.344ZM92.36 34.68H100.64V37.248H92.36V34.68ZM81.872 23.16H88.808V25.32H81.872V23.16ZM82.016 16.368H88.832V18.552H82.016V16.368ZM81.872 26.52H88.808V28.68H81.872V26.52ZM80.696 19.704H89.672V21.96H80.696V19.704ZM83.192 29.904H88.976V37.2H83.192V34.944H86.504V32.184H83.192V29.904ZM81.8 29.904H84.224V38.16H81.8V29.904ZM120.584 20.976L123.656 21.864C120.632 30.504 115.04 35.544 106.448 38.232C106.112 37.512 105.2 36.12 104.624 35.424C112.928 33.24 118.088 28.8 120.584 20.976ZM111.32 21.168C113.744 28.272 118.928 33.384 127.472 35.304C126.776 35.976 125.84 37.344 125.384 38.184C116.384 35.832 111.44 30.336 108.44 22.032L111.32 21.168ZM105.056 19.416H127.04V22.248H105.056V19.416ZM114.488 15.624H117.464V21.144H114.488V15.624ZM130.808 25.536H137.648V27.768H130.808V25.536ZM129.656 17.808H137.384V20.232H129.656V17.808ZM128.816 21.84H140.552V24.312H128.816V21.84ZM132.368 15.624H135.032V23.088H132.368V15.624ZM138.896 16.2L141.56 16.968C139.184 22.92 135.2 27.528 130.232 30.336C129.848 29.76 128.864 28.656 128.288 28.152C133.16 25.752 136.904 21.552 138.896 16.2ZM133.472 28.944H136.16V35.448C136.16 36.696 135.944 37.368 135.104 37.752C134.24 38.136 133.112 38.184 131.6 38.184C131.48 37.44 131.12 36.408 130.784 35.712C131.72 35.736 132.752 35.736 133.064 35.736C133.376 35.736 133.472 35.664 133.472 35.4V28.944ZM137.048 25.536H137.624L138.152 25.392L139.712 26.616C138.536 28.056 136.904 29.664 135.44 30.696C135.128 30.24 134.456 29.568 134.072 29.208C135.152 28.392 136.448 26.952 137.048 25.968V25.536ZM128.624 31.176C131.672 30.984 136.256 30.624 140.528 30.264V32.712C136.424 33.096 132.032 33.48 128.912 33.744L128.624 31.176ZM142.448 20.016H151.256V22.68H142.448V20.016ZM142.784 15.6L145.688 16.056C144.872 20.856 143.36 25.44 141.152 28.296C140.672 27.768 139.496 26.712 138.848 26.256C140.888 23.832 142.136 19.8 142.784 15.6ZM146.984 21.624L149.936 21.888C148.904 30.096 146.432 35.232 140.36 38.256C140.072 37.584 139.232 36.264 138.704 35.64C144.176 33.24 146.264 28.728 146.984 21.624ZM144.032 22.08C144.992 28.176 147.08 33.384 151.52 35.688C150.848 36.264 149.936 37.392 149.504 38.184C144.68 35.304 142.592 29.688 141.416 22.488L144.032 22.08ZM153.512 31.464H174.512V33.744H153.512V31.464ZM157.76 27.36H167.984V29.4H157.76V27.36ZM162.56 30.36H165.392V35.496C165.392 36.792 165.128 37.44 164.12 37.8C163.16 38.16 161.816 38.184 159.992 38.184C159.848 37.416 159.464 36.408 159.104 35.76C160.256 35.808 161.696 35.784 162.056 35.784C162.44 35.76 162.56 35.688 162.56 35.4V30.36ZM167.312 27.36H168.008L168.608 27.216L170.216 28.68C168.632 29.952 166.496 31.32 164.576 32.256C164.264 31.824 163.616 31.128 163.28 30.792C164.72 30.072 166.496 28.728 167.312 27.84V27.36ZM153.488 24.264H174.56V29.208H171.704V26.352H156.224V29.208H153.488V24.264ZM154.88 16.68L158.24 17.352C158.192 17.544 158 17.664 157.616 17.736L158.048 25.176H155.384L154.88 16.68ZM170.552 16.416H173.288C173.144 19.368 172.904 23.016 172.64 25.296H169.88C170.192 22.944 170.456 19.296 170.552 16.416ZM167.168 16.416H171.608V18.216H167.168V16.416ZM159.728 15.744L161.072 17.28C159.752 17.928 157.928 18.432 156.656 18.744L155.504 17.256C156.776 16.968 158.624 16.224 159.728 15.744ZM156.392 19.032H160.904V20.808H156.392V19.032ZM156.464 21.648H160.952V23.424H156.464V21.648ZM167.264 19.032H171.32V20.808H167.264V19.032ZM167.192 21.648H171.248V23.424H167.192V21.648ZM164.816 15.768L166.664 16.32C165.584 17.784 163.784 19.152 162.152 20.016C161.84 19.656 161.096 19.032 160.64 18.72C162.296 18 163.904 16.944 164.816 15.768ZM161.24 17.016L162.536 15.936C163.952 16.608 165.728 17.736 166.616 18.576L165.248 19.776C164.408 18.96 162.656 17.784 161.24 17.016ZM164.912 19.8L166.808 20.352C165.704 21.912 163.832 23.352 162.152 24.24C161.816 23.904 161.072 23.256 160.616 22.944C162.32 22.176 164 21.048 164.912 19.8ZM161.312 21.12L162.632 20.016C164.072 20.736 165.92 21.912 166.856 22.776L165.416 24C164.576 23.136 162.776 21.912 161.312 21.12ZM182.216 15.792H185.216V29.544H182.216V15.792ZM190.736 15.792H193.76V29.544H190.736V15.792ZM177.056 27.648H199.016V30.456H177.056V27.648ZM177.872 20.256H198.272V23.016H177.872V20.256ZM189.656 32.712L192.296 31.272C194.336 32.784 197.312 35.016 198.848 36.48L195.992 38.16C194.648 36.72 191.792 34.368 189.656 32.712ZM183.272 31.368L186.32 32.544C184.52 34.632 181.88 36.816 179.552 38.16C178.952 37.56 177.872 36.648 177.2 36.144C179.456 34.968 182.024 32.976 183.272 31.368ZM210.992 15.792H213.656V21.624H210.992V15.792ZM217.208 15.792H219.92V21.624H217.208V15.792ZM215.696 26.76H217.952V38.064H215.696V26.76ZM207.56 17.52H223.136V19.992H207.56V17.52ZM212.6 29.376H221.096V31.248H212.6V29.376ZM212.6 32.592H221.096V34.44H212.6V32.592ZM208.856 22.248H223.28V24.72H208.856V22.248ZM207.68 22.248H210.296V27.552C210.296 30.696 209.936 35.304 207.896 38.232C207.464 37.728 206.36 36.792 205.784 36.48C207.536 33.888 207.68 30.216 207.68 27.504V22.248ZM211.16 25.944H221.408V28.008H213.56V38.136H211.16V25.944ZM220.256 25.944H222.704V35.736C222.704 36.792 222.56 37.392 221.888 37.776C221.216 38.136 220.352 38.184 219.128 38.16C219.056 37.536 218.792 36.6 218.504 36C219.152 36.024 219.752 36.024 219.968 36C220.208 36 220.256 35.928 220.256 35.688V25.944ZM205.016 15.672L207.68 16.44C206.312 20.64 204.104 25.2 201.656 28.08C201.416 27.36 200.72 25.728 200.264 24.96C202.208 22.704 203.984 19.176 205.016 15.672ZM203.12 22.248L205.784 19.608L205.856 19.656V38.136H203.12V22.248ZM226.376 17.112H245.552V19.968H226.376V17.112ZM225.08 27.288H246.944V30.192H225.08V27.288ZM227.816 21.504L230.432 20.736C231.272 22.272 232.112 24.312 232.376 25.632L229.592 26.52C229.352 25.224 228.584 23.112 227.816 21.504ZM241.496 20.664L244.568 21.456C243.704 23.28 242.72 25.248 241.928 26.496L239.408 25.752C240.152 24.36 241.04 22.248 241.496 20.664ZM234.464 18.312H237.464V38.136H234.464V18.312ZM253.256 34.392H266.504V37.176H253.256V34.392ZM251.96 27.504H268.016V38.136H264.92V30.264H254.912V38.136H251.96V27.504ZM256.664 15.432L259.952 16.512C258.392 19.488 256.352 22.704 254.72 24.792L252.128 23.76C253.736 21.576 255.632 18.12 256.664 15.432ZM262.424 19.728L264.704 18.048C267.08 19.968 269.96 22.752 271.208 24.816L268.688 26.736C267.56 24.72 264.824 21.792 262.424 19.728ZM249.416 22.416C254.264 22.296 261.704 22.008 268.304 21.72L268.16 24.504C261.512 24.864 254.312 25.152 249.584 25.344L249.416 22.416Z" fill="white"/>
<defs>
<clipPath id="clip0_2866_8736">
<rect width="56" height="56" fill="white"/>
</clipPath>
</defs>
</svg>
