<svg width="30" height="30" viewBox="0 0 30 30" fill="none" xmlns="http://www.w3.org/2000/svg">
<path d="M21.1015 5.43179C18.5125 6.46751 15.7397 7.1415 12.845 7.39127C12.0106 7.46326 11.166 7.50002 10.3125 7.50002H9.375C5.75063 7.50002 2.8125 10.4382 2.8125 14.0625C2.8125 17.312 5.17431 20.0099 8.27496 20.5332C8.6928 22.2445 9.27257 23.8922 9.99706 25.4593C10.5771 26.714 12.0898 27.1093 13.2254 26.4537L14.0458 25.98C15.1459 25.3449 15.5028 23.9892 15.0108 22.8949C14.7173 22.2419 14.4553 21.5717 14.2268 20.8863C16.6235 21.2088 18.9273 21.8235 21.1015 22.6933C22.0086 19.9816 22.5 17.0794 22.5 14.0625C22.5 11.0456 22.0086 8.14348 21.1015 5.43179Z" fill="#C70707"/>
<path d="M22.8258 4.6759C23.8301 7.62052 24.375 10.7779 24.375 14.0625C24.375 17.3471 23.8301 20.5045 22.8258 23.4491C22.7568 23.6513 22.6859 23.8526 22.6127 24.0528C22.4347 24.539 22.6846 25.0774 23.1708 25.2554C23.657 25.4334 24.1954 25.1835 24.3734 24.6973C24.5484 24.2192 24.712 23.7355 24.8637 23.2466C25.5183 21.1382 25.9534 18.9336 26.1425 16.6597C26.7887 15.9866 27.1875 15.0708 27.1875 14.0625C27.1875 13.0542 26.7887 12.1384 26.1425 11.4653C25.9534 9.19149 25.5183 6.98685 24.8637 4.87842C24.712 4.38956 24.5484 3.9059 24.3734 3.42777C24.1954 2.94155 23.657 2.69168 23.1708 2.86965C22.6846 3.04763 22.4347 3.58607 22.6127 4.07228C22.6859 4.27243 22.7568 4.47372 22.8258 4.6759Z" fill="#C70707"/>
</svg>
