<svg width="200" height="200" viewBox="0 0 200 200" fill="none" xmlns="http://www.w3.org/2000/svg">
<rect width="200" height="200" fill="white"/>
<path d="M112.5 33.839C112.5 22.7028 99.0358 17.1256 91.1612 25.0002L53.6612 62.5002H37.5755C28.0643 62.5002 18.2588 68.0372 15.4109 78.3757C13.5123 85.2679 12.5 92.5209 12.5 100C12.5 107.48 13.5123 114.732 15.4109 121.625C18.2588 131.963 28.0643 137.5 37.5755 137.5H53.6612L91.1612 175C99.0358 182.875 112.5 177.298 112.5 166.161V33.839Z" fill="#2D92C1"/>
<path d="M154.864 42.5472C157.305 40.1065 161.262 40.1065 163.703 42.5472C195.433 74.2773 195.433 125.722 163.703 157.452C161.262 159.893 157.305 159.893 154.864 157.452C152.423 155.011 152.423 151.054 154.864 148.613C181.713 121.765 181.713 78.2346 154.864 51.3861C152.423 48.9453 152.423 44.988 154.864 42.5472Z" fill="#2D92C1"/>
<path d="M132.769 64.645C135.21 62.2042 139.167 62.2042 141.608 64.645C161.134 84.1712 161.134 115.829 141.608 135.356C139.167 137.796 135.21 137.796 132.769 135.356C130.329 132.915 130.329 128.958 132.769 126.517C147.414 111.872 147.414 88.1285 132.769 73.4838C130.329 71.0431 130.329 67.0858 132.769 64.645Z" fill="#2D92C1"/>
</svg>
