<?xml version="1.0" encoding="UTF-8"?>
<svg xmlns="http://www.w3.org/2000/svg" xmlns:xlink="http://www.w3.org/1999/xlink" width="22px" height="22px" viewBox="0 0 22 22" version="1.1">
<g id="surface1">
<rect x="0" y="0" width="22" height="22" style="fill:rgb(100%,100%,100%);fill-opacity:1;stroke:none;"/>
<path style=" stroke:none;fill-rule:nonzero;fill:rgb(17.647059%,57.254905%,75.686276%);fill-opacity:1;" d="M 12.375 3.722656 C 12.375 2.496094 10.894531 1.882812 10.027344 2.75 L 5.902344 6.875 L 4.132812 6.875 C 3.085938 6.875 2.007812 7.484375 1.695312 8.621094 C 1.488281 9.378906 1.375 10.175781 1.375 11 C 1.375 11.824219 1.488281 12.621094 1.695312 13.378906 C 2.007812 14.515625 3.085938 15.125 4.132812 15.125 L 5.902344 15.125 L 10.027344 19.25 C 10.894531 20.117188 12.375 19.503906 12.375 18.277344 Z M 12.375 3.722656 "/>
<path style=" stroke:none;fill-rule:nonzero;fill:rgb(17.647059%,57.254905%,75.686276%);fill-opacity:1;" d="M 17.035156 4.679688 C 17.304688 4.410156 17.738281 4.410156 18.007812 4.679688 C 21.496094 8.171875 21.496094 13.828125 18.007812 17.320312 C 17.738281 17.589844 17.304688 17.589844 17.035156 17.320312 C 16.765625 17.050781 16.765625 16.617188 17.035156 16.347656 C 19.988281 13.394531 19.988281 8.605469 17.035156 5.652344 C 16.765625 5.382812 16.765625 4.949219 17.035156 4.679688 Z M 17.035156 4.679688 "/>
<path style=" stroke:none;fill-rule:nonzero;fill:rgb(17.647059%,57.254905%,75.686276%);fill-opacity:1;" d="M 14.605469 7.109375 C 14.875 6.84375 15.308594 6.84375 15.578125 7.109375 C 17.726562 9.257812 17.726562 12.742188 15.578125 14.890625 C 15.308594 15.15625 14.875 15.15625 14.605469 14.890625 C 14.335938 14.621094 14.335938 14.183594 14.605469 13.917969 C 16.214844 12.304688 16.214844 9.695312 14.605469 8.082031 C 14.335938 7.816406 14.335938 7.378906 14.605469 7.109375 Z M 14.605469 7.109375 "/>
</g>
</svg>
