<svg width="272" height="56" viewBox="0 0 272 56" fill="none" xmlns="http://www.w3.org/2000/svg">
<g clip-path="url(#clip0_170_11177)">
<path d="M-8.4264 3.17928C-13.167 -1.45085 -17.9787 -5.95833 -22.5546 -10.6935C-25.2312 -13.4629 -25.549 -17.0021 -24.2731 -20.5385C-22.9714 -24.1468 -20.1965 -26.1627 -16.4338 -26.7665C-14.323 -27.1053 -12.4426 -26.3823 -10.5351 -25.2818C-11.271 -24.054 -11.9507 -22.9197 -12.6269 -21.7914C-16.1024 -22.875 -18.1556 -22.3959 -19.67 -20.1699C-21.1106 -18.0537 -21.1201 -15.3453 -19.3638 -13.5056C-15.8808 -9.858 -12.2529 -6.34864 -8.2692 -2.36631C-7.07931 -3.73034 -6.00936 -5.0666 -4.82421 -6.29104C-2.59622 -8.59425 -0.272005 -10.8033 1.95734 -13.1051C4.19279 -15.4138 4.19279 -18.7056 2.03662 -20.9092C-0.0165424 -23.0071 -2.93638 -23.0274 -5.04579 -20.958C-7.25887 -18.7876 -7.29547 -15.5398 -5.10474 -13.1783C-4.60399 -12.6389 -4.01175 -12.1842 -3.2928 -11.5392C-3.90265 -10.8934 -4.42035 -10.4062 -4.86283 -9.858C-5.29041 -9.32811 -5.64006 -8.7352 -5.987 -8.22427C-11.912 -12.8253 -12.6025 -19.8853 -7.92361 -24.1868C-4.36072 -27.4624 0.51335 -27.6738 4.21244 -24.7147C8.00301 -21.6817 9.02349 -16.1706 6.53327 -12.0453C6.1538 -11.4172 5.71403 -10.7999 5.19566 -10.2842C0.65226 -5.76657 -3.91485 -1.27332 -8.4264 3.17928Z" fill="#E2ECC6"/>
<path d="M50.3764 16.4717C49.7374 13.4733 48.0176 11.0718 45.4034 9.52752C41.4312 7.18162 35.0027 6.00799 26.9323 13.7355C25.8834 14.6591 24.6501 16.099 23.2238 17.7653C19.957 21.5802 15.0213 27.3426 11.892 26.2686C10.3722 25.7455 9.00744 23.7784 8.41521 21.2584C7.79926 18.6394 7.99102 14.9776 10.3749 12.5564C13.3767 9.50719 18.1688 9.33033 23.1933 12.0828C23.8634 12.4494 24.7037 12.2041 25.0709 11.5339C25.4375 10.8638 25.1922 10.0235 24.5221 9.65626C17.2547 5.67596 11.4306 7.54143 8.40369 10.6151C5.7488 13.3113 4.72154 17.6318 5.72237 21.8899C6.5389 25.3654 8.55819 28.0447 10.9915 28.8822C15.8994 30.5708 21.1252 24.4669 25.3244 19.5623C26.6356 18.0309 27.8736 16.5849 28.7775 15.7941L28.8242 15.7514C34.3082 10.4918 39.4126 9.20023 43.9967 11.9073C45.9543 13.064 47.191 14.7932 47.6714 17.0463C48.4832 20.8552 47.0371 25.732 43.7046 30.4265C41.6176 33.366 34.7893 42.3708 30.9208 45.0988C27.858 47.2604 24.5451 44.0736 23.2631 42.6039C22.7616 42.0286 21.8875 41.9689 21.3115 42.471C20.7363 42.9732 20.6766 43.8466 21.1787 44.4226C23.5849 47.1805 26.2195 48.6082 28.7036 48.6082C30.0365 48.6082 31.3267 48.1969 32.5138 47.36C37.5011 43.8425 45.8764 32.1456 45.9597 32.0277C49.7388 26.705 51.3488 21.0341 50.3764 16.4703V16.4717Z" fill="white"/>
<path d="M43.9945 15.9149C43.5459 15.49 43.2254 14.9167 42.7457 14.54C42.2849 14.1788 41.5951 13.6523 41.1756 13.7763C39.2797 14.3347 37.1154 14.6911 35.6517 15.8695C32.2718 18.5908 28.9949 21.5296 26.1374 24.7855C23.1959 28.1377 22.3908 33.2367 26.527 37.2522C27.4248 38.1236 27.8104 39.7269 28.0042 41.0557C28.1661 42.1636 28.5239 42.6515 29.5207 42.791C29.6339 42.6874 29.7328 42.6311 29.7795 42.5464C29.8541 42.4095 29.9239 42.2584 29.9435 42.106C30.3548 38.8954 32.2522 36.761 34.7471 34.8582C36.0102 33.8953 36.9521 32.3883 37.7435 30.9633C38.6 29.419 39.1469 27.6972 39.7669 26.0289C40.7542 23.3713 43.6984 21.7451 43.6855 18.5562C43.6848 18.3475 43.9586 18.1158 44.1416 17.9321C44.8754 17.1949 44.6803 16.5647 43.9945 15.9155V15.9149Z" fill="white"/>
</g>
<path d="M61.28 34.392H74.504V37.176H61.28V34.392ZM59.984 27.48H76.04V38.112H72.944V30.24H62.936V38.136H59.984V27.48ZM64.688 15.432L67.976 16.512C67.448 17.488 66.88 18.488 66.272 19.512C65.68 20.52 65.08 21.48 64.472 22.392C63.864 23.288 63.288 24.088 62.744 24.792L60.152 23.736C60.696 23 61.248 22.16 61.808 21.216C62.368 20.256 62.896 19.272 63.392 18.264C63.904 17.256 64.336 16.312 64.688 15.432ZM70.448 19.704L72.728 18.024C73.528 18.664 74.344 19.384 75.176 20.184C76.024 20.968 76.8 21.768 77.504 22.584C78.224 23.384 78.792 24.128 79.208 24.816L76.712 26.736C76.328 26.048 75.792 25.296 75.104 24.48C74.432 23.648 73.688 22.816 72.872 21.984C72.056 21.152 71.248 20.392 70.448 19.704ZM57.416 22.416C58.632 22.384 59.984 22.344 61.472 22.296C62.976 22.232 64.552 22.168 66.2 22.104C67.864 22.04 69.552 21.976 71.264 21.912C72.976 21.848 74.656 21.784 76.304 21.72L76.184 24.504C74.52 24.6 72.84 24.688 71.144 24.768C69.448 24.832 67.784 24.904 66.152 24.984C64.536 25.048 63 25.112 61.544 25.176C60.088 25.224 58.768 25.272 57.584 25.32L57.416 22.416ZM91.28 29.136H101.84V38.064H99.032V31.704H93.992V38.16H91.28V29.136ZM90.8 20.448H101.312V26.688H98.552V22.896H90.8V20.448ZM93.752 17.304L96.536 17.544C96.408 18.552 96.256 19.616 96.08 20.736C95.904 21.856 95.72 22.936 95.528 23.976C95.352 25.016 95.176 25.928 95 26.712H92.216C92.36 26.104 92.496 25.416 92.624 24.648C92.768 23.88 92.912 23.08 93.056 22.248C93.2 21.4 93.328 20.56 93.44 19.728C93.552 18.88 93.656 18.072 93.752 17.304ZM90.416 16.296H102.512V18.744H90.416V16.296ZM89.552 25.344H103.376V27.864H89.552V25.344ZM92.36 34.656H100.64V37.224H92.36V34.656ZM81.872 23.136H88.808V25.32H81.872V23.136ZM82.016 16.368H88.832V18.528H82.016V16.368ZM81.872 26.496H88.808V28.68H81.872V26.496ZM80.72 19.68H89.672V21.96H80.72V19.68ZM83.216 29.904H88.976V37.2H83.216V34.92H86.528V32.184H83.216V29.904ZM81.8 29.904H84.224V38.136H81.8V29.904ZM120.608 20.952L123.68 21.864C122.672 24.744 121.368 27.24 119.768 29.352C118.168 31.464 116.264 33.248 114.056 34.704C111.864 36.144 109.328 37.32 106.448 38.232C106.352 37.976 106.192 37.672 105.968 37.32C105.744 36.968 105.512 36.616 105.272 36.264C105.048 35.928 104.832 35.648 104.624 35.424C107.392 34.688 109.816 33.688 111.896 32.424C113.976 31.16 115.736 29.592 117.176 27.72C118.616 25.832 119.76 23.576 120.608 20.952ZM111.32 21.144C112.136 23.528 113.264 25.664 114.704 27.552C116.144 29.44 117.92 31.04 120.032 32.352C122.16 33.664 124.64 34.64 127.472 35.28C127.248 35.504 127 35.792 126.728 36.144C126.472 36.496 126.224 36.848 125.984 37.2C125.744 37.568 125.552 37.888 125.408 38.16C122.416 37.392 119.84 36.272 117.68 34.8C115.52 33.312 113.688 31.504 112.184 29.376C110.696 27.248 109.448 24.792 108.44 22.008L111.32 21.144ZM105.056 19.416H127.04V22.224H105.056V19.416ZM114.512 15.6H117.464V21.12H114.512V15.6ZM130.832 25.512H137.648V27.744H130.832V25.512ZM129.656 17.784H137.408V20.208H129.656V17.784ZM128.84 21.84H140.576V24.312H128.84V21.84ZM132.392 15.6H135.056V23.064H132.392V15.6ZM138.92 16.2L141.584 16.944C140.4 19.92 138.832 22.544 136.88 24.816C134.944 27.088 132.728 28.928 130.232 30.336C130.12 30.144 129.944 29.912 129.704 29.64C129.464 29.352 129.216 29.072 128.96 28.8C128.704 28.528 128.488 28.304 128.312 28.128C130.744 26.928 132.864 25.304 134.672 23.256C136.496 21.208 137.912 18.856 138.92 16.2ZM133.472 28.944H136.184V35.448C136.184 36.056 136.112 36.544 135.968 36.912C135.824 37.28 135.536 37.56 135.104 37.752C134.672 37.928 134.168 38.04 133.592 38.088C133.032 38.136 132.368 38.16 131.6 38.16C131.552 37.792 131.448 37.376 131.288 36.912C131.128 36.448 130.96 36.048 130.784 35.712C131.264 35.728 131.728 35.736 132.176 35.736C132.624 35.736 132.92 35.736 133.064 35.736C133.24 35.72 133.352 35.688 133.4 35.64C133.448 35.592 133.472 35.504 133.472 35.376V28.944ZM137.048 25.512H137.648L138.176 25.368L139.712 26.616C139.136 27.336 138.464 28.064 137.696 28.8C136.944 29.536 136.192 30.16 135.44 30.672C135.296 30.448 135.08 30.192 134.792 29.904C134.52 29.616 134.288 29.384 134.096 29.208C134.448 28.92 134.816 28.592 135.2 28.224C135.584 27.84 135.936 27.448 136.256 27.048C136.592 26.648 136.856 26.288 137.048 25.968V25.512ZM128.648 31.176C129.656 31.096 130.808 31.008 132.104 30.912C133.416 30.816 134.792 30.712 136.232 30.6C137.688 30.488 139.12 30.368 140.528 30.24V32.712C139.184 32.84 137.816 32.968 136.424 33.096C135.032 33.208 133.696 33.32 132.416 33.432C131.136 33.544 129.976 33.64 128.936 33.72L128.648 31.176ZM142.448 19.992H151.28V22.656H142.448V19.992ZM142.784 15.6L145.712 16.056C145.44 17.64 145.088 19.192 144.656 20.712C144.224 22.216 143.72 23.616 143.144 24.912C142.568 26.208 141.904 27.336 141.152 28.296C141.008 28.104 140.792 27.88 140.504 27.624C140.232 27.368 139.944 27.112 139.64 26.856C139.336 26.6 139.072 26.4 138.848 26.256C139.536 25.44 140.136 24.472 140.648 23.352C141.16 22.216 141.592 20.992 141.944 19.68C142.296 18.352 142.576 16.992 142.784 15.6ZM147.008 21.6L149.96 21.864C149.608 24.6 149.064 27.016 148.328 29.112C147.608 31.192 146.608 32.984 145.328 34.488C144.048 35.992 142.4 37.248 140.384 38.256C140.288 38.032 140.144 37.752 139.952 37.416C139.76 37.08 139.552 36.744 139.328 36.408C139.104 36.088 138.896 35.832 138.704 35.64C140.528 34.824 142 33.784 143.12 32.52C144.256 31.24 145.128 29.696 145.736 27.888C146.344 26.064 146.768 23.968 147.008 21.6ZM144.032 22.056C144.368 24.088 144.832 26 145.424 27.792C146.032 29.568 146.832 31.136 147.824 32.496C148.816 33.84 150.048 34.896 151.52 35.664C151.312 35.856 151.08 36.096 150.824 36.384C150.568 36.688 150.32 36.992 150.08 37.296C149.856 37.616 149.672 37.912 149.528 38.184C147.912 37.208 146.576 35.96 145.52 34.44C144.48 32.904 143.64 31.128 143 29.112C142.36 27.096 141.84 24.888 141.44 22.488L144.032 22.056ZM153.512 31.44H174.512V33.72H153.512V31.44ZM157.76 27.36H168.008V29.376H157.76V27.36ZM162.584 30.36H165.416V35.472C165.416 36.128 165.328 36.632 165.152 36.984C164.976 37.336 164.64 37.6 164.144 37.776C163.648 37.952 163.064 38.056 162.392 38.088C161.72 38.136 160.928 38.16 160.016 38.16C159.952 37.776 159.832 37.36 159.656 36.912C159.48 36.464 159.296 36.072 159.104 35.736C159.504 35.752 159.904 35.768 160.304 35.784C160.72 35.784 161.088 35.784 161.408 35.784C161.744 35.784 161.968 35.784 162.08 35.784C162.272 35.768 162.4 35.736 162.464 35.688C162.544 35.64 162.584 35.536 162.584 35.376V30.36ZM167.336 27.36H168.032L168.632 27.216L170.24 28.68C169.712 29.096 169.128 29.52 168.488 29.952C167.864 30.368 167.216 30.776 166.544 31.176C165.888 31.576 165.232 31.928 164.576 32.232C164.432 32.008 164.224 31.752 163.952 31.464C163.68 31.176 163.456 30.952 163.28 30.792C163.776 30.536 164.28 30.24 164.792 29.904C165.304 29.552 165.784 29.192 166.232 28.824C166.696 28.456 167.064 28.128 167.336 27.84V27.36ZM153.512 24.24H174.56V29.184H171.704V26.328H156.224V29.184H153.512V24.24ZM154.904 16.68L158.264 17.352C158.2 17.544 157.992 17.672 157.64 17.736L158.048 25.176H155.408L154.904 16.68ZM170.576 16.392H173.312C173.264 17.384 173.208 18.424 173.144 19.512C173.08 20.584 173.008 21.624 172.928 22.632C172.848 23.64 172.76 24.52 172.664 25.272H169.88C169.992 24.488 170.096 23.592 170.192 22.584C170.288 21.576 170.368 20.536 170.432 19.464C170.496 18.376 170.544 17.352 170.576 16.392ZM167.192 16.392H171.632V18.192H167.192V16.392ZM159.752 15.72L161.096 17.28C160.424 17.584 159.68 17.864 158.864 18.12C158.048 18.376 157.312 18.576 156.656 18.72L155.528 17.256C155.96 17.144 156.432 17 156.944 16.824C157.456 16.648 157.96 16.464 158.456 16.272C158.952 16.08 159.384 15.896 159.752 15.72ZM156.416 19.032H160.904V20.808H156.416V19.032ZM156.464 21.624H160.952V23.424H156.464V21.624ZM167.288 19.032H171.344V20.808H167.288V19.032ZM167.216 21.624H171.248V23.424H167.216V21.624ZM164.816 15.744L166.664 16.32C166.136 17.04 165.456 17.728 164.624 18.384C163.792 19.04 162.976 19.576 162.176 19.992C162 19.816 161.76 19.6 161.456 19.344C161.152 19.072 160.888 18.864 160.664 18.72C161.48 18.352 162.264 17.912 163.016 17.4C163.768 16.888 164.368 16.336 164.816 15.744ZM161.264 17.016L162.56 15.912C163.04 16.136 163.536 16.408 164.048 16.728C164.56 17.032 165.04 17.344 165.488 17.664C165.952 17.984 166.336 18.28 166.64 18.552L165.248 19.776C164.976 19.504 164.616 19.2 164.168 18.864C163.72 18.528 163.24 18.2 162.728 17.88C162.232 17.56 161.744 17.272 161.264 17.016ZM164.936 19.776L166.808 20.328C166.264 21.112 165.56 21.848 164.696 22.536C163.848 23.224 163 23.792 162.152 24.24C161.992 24.064 161.752 23.84 161.432 23.568C161.128 23.296 160.864 23.088 160.64 22.944C161.488 22.56 162.296 22.096 163.064 21.552C163.848 20.992 164.472 20.4 164.936 19.776ZM161.312 21.096L162.632 19.992C163.128 20.232 163.64 20.512 164.168 20.832C164.712 21.152 165.216 21.48 165.68 21.816C166.16 22.152 166.552 22.464 166.856 22.752L165.44 24C165.152 23.712 164.776 23.4 164.312 23.064C163.848 22.712 163.352 22.368 162.824 22.032C162.312 21.68 161.808 21.368 161.312 21.096ZM182.24 15.768H185.24V29.544H182.24V15.768ZM190.76 15.768H193.784V29.544H190.76V15.768ZM177.056 27.624H199.016V30.432H177.056V27.624ZM177.896 20.232H198.272V23.016H177.896V20.232ZM189.68 32.712L192.296 31.272C192.984 31.768 193.736 32.328 194.552 32.952C195.384 33.56 196.184 34.176 196.952 34.8C197.72 35.424 198.352 35.984 198.848 36.48L195.992 38.16C195.56 37.68 194.976 37.12 194.24 36.48C193.52 35.84 192.76 35.192 191.96 34.536C191.16 33.864 190.4 33.256 189.68 32.712ZM183.272 31.368L186.344 32.544C185.736 33.232 185.056 33.92 184.304 34.608C183.552 35.296 182.768 35.944 181.952 36.552C181.136 37.176 180.336 37.712 179.552 38.16C179.36 37.952 179.12 37.72 178.832 37.464C178.544 37.208 178.256 36.96 177.968 36.72C177.696 36.496 177.44 36.304 177.2 36.144C177.968 35.728 178.736 35.256 179.504 34.728C180.272 34.2 180.984 33.64 181.64 33.048C182.312 32.456 182.856 31.896 183.272 31.368ZM216.536 15.96H219.032V22.128H216.536V15.96ZM205.88 32.4H207.92V37.512H205.88V32.4ZM212.744 35.16C213.864 35.032 215.208 34.848 216.776 34.608C218.344 34.368 219.928 34.12 221.528 33.864L221.696 36.312C220.256 36.6 218.8 36.872 217.328 37.128C215.872 37.4 214.552 37.648 213.368 37.872L212.744 35.16ZM219.608 31.44L221.768 30.936C222.056 31.64 222.32 32.392 222.56 33.192C222.8 33.992 223 34.776 223.16 35.544C223.336 36.296 223.448 36.96 223.496 37.536L221.168 38.136C221.136 37.576 221.048 36.904 220.904 36.12C220.76 35.352 220.576 34.56 220.352 33.744C220.128 32.928 219.88 32.16 219.608 31.44ZM215.48 22.608V27.624H220.232V22.608H215.48ZM213.224 20.16H222.608V30.072H213.224V20.16ZM204.872 21.672V23.16H209.048V21.672H204.872ZM202.424 19.776H211.664V25.008H202.424V19.776ZM201.296 16.536H212.72V18.912H201.296V16.536ZM204.224 31.848H209.624V33.72H204.224V31.848ZM201.44 25.92H211.28V27.96H203.624V38.088H201.44V25.92ZM210.272 25.92H212.528V35.76C212.528 36.256 212.472 36.656 212.36 36.96C212.248 37.28 212.032 37.56 211.712 37.728C211.392 37.904 211.008 38.008 210.56 38.04C210.128 38.088 209.616 38.112 209.024 38.112C209.008 37.808 208.936 37.456 208.808 37.056C208.696 36.656 208.568 36.304 208.424 36C208.76 36.016 209.072 36.024 209.36 36.024C209.664 36.024 209.872 36.024 209.984 36.024C210.176 36.024 210.272 35.92 210.272 35.712V25.92ZM207.392 27H209.024V29.184C209.024 29.376 209.04 29.496 209.072 29.544C209.104 29.576 209.184 29.592 209.312 29.592C209.344 29.592 209.4 29.592 209.48 29.592C209.56 29.592 209.64 29.592 209.72 29.592C209.816 29.592 209.88 29.592 209.912 29.592C210.056 29.592 210.144 29.584 210.176 29.568C210.224 29.536 210.264 29.472 210.296 29.376C210.44 29.504 210.656 29.624 210.944 29.736C211.232 29.832 211.496 29.904 211.736 29.952C211.64 30.384 211.464 30.688 211.208 30.864C210.968 31.04 210.632 31.128 210.2 31.128C210.104 31.128 209.984 31.128 209.84 31.128C209.696 31.128 209.552 31.128 209.408 31.128C209.264 31.128 209.152 31.128 209.072 31.128C208.384 31.128 207.928 31 207.704 30.744C207.496 30.472 207.392 29.96 207.392 29.208V27ZM216.776 21.096H218.864V28.776H219.056V35.568H216.56V28.776H216.776V21.096ZM204.872 26.856H206.456V27.84C206.456 28.304 206.416 28.784 206.336 29.28C206.256 29.76 206.088 30.232 205.832 30.696C205.576 31.16 205.168 31.584 204.608 31.968C204.464 31.776 204.248 31.568 203.96 31.344C203.672 31.12 203.432 30.944 203.24 30.816C203.72 30.544 204.072 30.232 204.296 29.88C204.536 29.528 204.688 29.168 204.752 28.8C204.832 28.432 204.872 28.096 204.872 27.792V26.856ZM226.376 17.088H245.576V19.944H226.376V17.088ZM225.104 27.264H246.968V30.168H225.104V27.264ZM227.816 21.504L230.456 20.712C230.728 21.24 230.992 21.8 231.248 22.392C231.52 22.968 231.752 23.544 231.944 24.12C232.152 24.68 232.304 25.184 232.4 25.632L229.592 26.52C229.512 26.072 229.384 25.568 229.208 25.008C229.032 24.432 228.824 23.84 228.584 23.232C228.344 22.608 228.088 22.032 227.816 21.504ZM241.496 20.64L244.592 21.432C244.304 22.056 244 22.672 243.68 23.28C243.376 23.888 243.072 24.472 242.768 25.032C242.48 25.576 242.2 26.056 241.928 26.472L239.408 25.728C239.664 25.264 239.92 24.736 240.176 24.144C240.448 23.552 240.696 22.952 240.92 22.344C241.16 21.736 241.352 21.168 241.496 20.64ZM234.488 18.288H237.488V38.136H234.488V18.288ZM253.28 34.392H266.504V37.176H253.28V34.392ZM251.984 27.48H268.04V38.112H264.944V30.24H254.936V38.136H251.984V27.48ZM256.688 15.432L259.976 16.512C259.448 17.488 258.88 18.488 258.272 19.512C257.68 20.52 257.08 21.48 256.472 22.392C255.864 23.288 255.288 24.088 254.744 24.792L252.152 23.736C252.696 23 253.248 22.16 253.808 21.216C254.368 20.256 254.896 19.272 255.392 18.264C255.904 17.256 256.336 16.312 256.688 15.432ZM262.448 19.704L264.728 18.024C265.528 18.664 266.344 19.384 267.176 20.184C268.024 20.968 268.8 21.768 269.504 22.584C270.224 23.384 270.792 24.128 271.208 24.816L268.712 26.736C268.328 26.048 267.792 25.296 267.104 24.48C266.432 23.648 265.688 22.816 264.872 21.984C264.056 21.152 263.248 20.392 262.448 19.704ZM249.416 22.416C250.632 22.384 251.984 22.344 253.472 22.296C254.976 22.232 256.552 22.168 258.2 22.104C259.864 22.04 261.552 21.976 263.264 21.912C264.976 21.848 266.656 21.784 268.304 21.72L268.184 24.504C266.52 24.6 264.84 24.688 263.144 24.768C261.448 24.832 259.784 24.904 258.152 24.984C256.536 25.048 255 25.112 253.544 25.176C252.088 25.224 250.768 25.272 249.584 25.32L249.416 22.416Z" fill="white"/>
<defs>
<clipPath id="clip0_170_11177">
<rect width="56" height="56" fill="white"/>
</clipPath>
</defs>
</svg>
