<svg width="35" height="35" viewBox="0 0 35 35" fill="none" xmlns="http://www.w3.org/2000/svg">
<g id="Lines">
<rect id="Rectangle 1" x="17.2292" y="0.5" width="1.41667" height="8.5" rx="0.708334" fill="#C4C4C4"/>
<rect id="Rectangle 5" x="0.9375" y="18.2083" width="1.41667" height="8.5" rx="0.708334" transform="rotate(-90 0.9375 18.2083)" fill="black"/>
<rect id="Rectangle 7" x="10.0508" y="32.5766" width="1.41667" height="8.5" rx="0.708333" transform="rotate(-150 10.0508 32.5766)" fill="#2B2B2B"/>
<rect id="Rectangle 9" x="27.0508" y="31.8683" width="1.41667" height="8.5" rx="0.708333" transform="rotate(150 27.0508 31.8683)" fill="#575757"/>
<rect id="Rectangle 11" x="33.0142" y="25.3865" width="1.41667" height="8.5" rx="0.708333" transform="rotate(120 33.0142 25.3865)" fill="#6D6D6D"/>
<rect id="Rectangle 13" x="32.3059" y="8.38654" width="1.41667" height="8.5" rx="0.708333" transform="rotate(60 32.3059 8.38654)" fill="#989898"/>
<rect id="Rectangle 4" x="18.6458" y="34.5" width="1.41667" height="8.5" rx="0.708334" transform="rotate(180 18.6458 34.5)" fill="#414141"/>
<rect id="Rectangle 6" x="34.9375" y="16.7917" width="1.41667" height="8.5" rx="0.708333" transform="rotate(90 34.9375 16.7917)" fill="#828282"/>
<rect id="Rectangle 8" x="25.8242" y="2.4234" width="1.41667" height="8.5" rx="0.708333" transform="rotate(30 25.8242 2.4234)" fill="#AEAEAE"/>
<rect id="Rectangle 10" x="8.82422" y="3.13171" width="1.41667" height="8.5" rx="0.708333" transform="rotate(-30 8.82422 3.13171)" fill="#D9D9D9"/>
<rect id="Rectangle 12" x="2.86084" y="9.61346" width="1.41667" height="8.5" rx="0.708333" transform="rotate(-60 2.86084 9.61346)" fill="#EFEFEF"/>
<rect id="Rectangle 14" x="3.56909" y="26.6135" width="1.41667" height="8.5" rx="0.708333" transform="rotate(-120 3.56909 26.6135)" fill="#161616"/>
</g>
</svg>
