<svg width="24" height="24" viewBox="0 0 24 24" fill="none" xmlns="http://www.w3.org/2000/svg">
<path d="M11.5 0C11.7204 0 11.9408 0.0471328 12.1421 0.136685L21.1648 3.90259C22.2189 4.34093 23.0048 5.36371 23 6.59859C22.976 11.2742 21.021 19.8288 12.765 23.7172C11.9648 24.0943 11.0352 24.0943 10.235 23.7172C1.97898 19.8288 0.0239801 11.2742 2.17948e-05 6.59859C-0.00476986 5.36371 0.781062 4.34093 1.83523 3.90259L10.8627 0.136685C11.0592 0.0471328 11.2796 0 11.5 0Z" fill="#FF5722"/>
<path d="M11.75 5C11.0227 5 10.4375 5.58516 10.4375 6.3125V12.4375C10.4375 13.1648 11.0227 13.75 11.75 13.75C12.4773 13.75 13.0625 13.1648 13.0625 12.4375V9.375V6.3125C13.0625 5.58516 12.4773 5 11.75 5ZM13.5 17.25C13.5 16.7859 13.3156 16.3408 12.9874 16.0126C12.6593 15.6844 12.2141 15.5 11.75 15.5C11.2859 15.5 10.8408 15.6844 10.5126 16.0126C10.1844 16.3408 10 16.7859 10 17.25C10 17.7141 10.1844 18.1592 10.5126 18.4874C10.8408 18.8156 11.2859 19 11.75 19C12.2141 19 12.6593 18.8156 12.9874 18.4874C13.3156 18.1592 13.5 17.7141 13.5 17.25Z" fill="white"/>
</svg>
