<svg width="93" height="24" viewBox="0 0 93 24" fill="none" xmlns="http://www.w3.org/2000/svg">
<rect width="24" height="24" fill="white"/>
<path d="M11.5 0C11.7204 0 11.9408 0.0471328 12.1421 0.136685L21.1648 3.90259C22.2189 4.34093 23.0048 5.36371 23 6.59859C22.976 11.2742 21.021 19.8288 12.765 23.7172C11.9648 24.0943 11.0352 24.0943 10.235 23.7172C1.97898 19.8288 0.0239801 11.2742 2.17948e-05 6.59859C-0.00476986 5.36371 0.781062 4.34093 1.83523 3.90259L10.8627 0.136685C11.0592 0.0471328 11.2796 0 11.5 0Z" fill="#FF5722"/>
<path d="M11.75 5C11.0227 5 10.4375 5.58516 10.4375 6.3125V12.4375C10.4375 13.1648 11.0227 13.75 11.75 13.75C12.4773 13.75 13.0625 13.1648 13.0625 12.4375V9.375V6.3125C13.0625 5.58516 12.4773 5 11.75 5ZM13.5 17.25C13.5 16.7859 13.3156 16.3408 12.9874 16.0126C12.6593 15.6844 12.2141 15.5 11.75 15.5C11.2859 15.5 10.8408 15.6844 10.5126 16.0126C10.1844 16.3408 10 16.7859 10 17.25C10 17.7141 10.1844 18.1592 10.5126 18.4874C10.8408 18.8156 11.2859 19 11.75 19C12.2141 19 12.6593 18.8156 12.9874 18.4874C13.3156 18.1592 13.5 17.7141 13.5 17.25Z" fill="white"/>
<path d="M37.064 8.416H42.168V9.392H37.064V8.416ZM39.576 5.696C39.2773 6.144 38.904 6.61867 38.456 7.12C38.008 7.61067 37.512 8.08533 36.968 8.544C36.424 8.992 35.8587 9.392 35.272 9.744C35.1973 9.60533 35.1013 9.44 34.984 9.248C34.8667 9.04533 34.7493 8.88533 34.632 8.768C35.2187 8.448 35.7893 8.05867 36.344 7.6C36.8987 7.13067 37.4053 6.63467 37.864 6.112C38.3227 5.58933 38.6907 5.08267 38.968 4.592H40.072C40.456 5.12533 40.8933 5.648 41.384 6.16C41.8853 6.66133 42.4133 7.12 42.968 7.536C43.5227 7.952 44.072 8.29867 44.616 8.576C44.4987 8.71467 44.376 8.88533 44.248 9.088C44.1307 9.28 44.024 9.456 43.928 9.616C43.4053 9.30667 42.872 8.93333 42.328 8.496C41.784 8.05867 41.272 7.6 40.792 7.12C40.312 6.62933 39.9067 6.15467 39.576 5.696ZM36.408 11.344V13.296H38.216V11.344H36.408ZM35.48 10.464H39.176V14.192H35.48V10.464ZM40.952 11.344V13.296H42.84V11.344H40.952ZM40.008 10.464H43.816V14.192H40.008V10.464ZM36.952 14.464L38.056 14.72C37.8213 15.712 37.4533 16.6027 36.952 17.392C36.4507 18.1813 35.8107 18.8213 35.032 19.312C34.9893 19.248 34.9253 19.1627 34.84 19.056C34.7547 18.96 34.664 18.864 34.568 18.768C34.4827 18.6827 34.3973 18.608 34.312 18.544C35.016 18.1173 35.5867 17.5467 36.024 16.832C36.4613 16.1173 36.7707 15.328 36.952 14.464ZM36.68 16.608L37.384 15.968C37.704 16.224 38.0453 16.512 38.408 16.832C38.7813 17.152 39.0587 17.4293 39.24 17.664L38.52 18.4C38.328 18.1547 38.056 17.8613 37.704 17.52C37.352 17.168 37.0107 16.864 36.68 16.608ZM41.224 14.48L42.312 14.704C42.1413 15.7493 41.816 16.6613 41.336 17.44C40.856 18.208 40.2107 18.8107 39.4 19.248C39.3573 19.184 39.2933 19.0987 39.208 18.992C39.1227 18.896 39.0373 18.8 38.952 18.704C38.8667 18.608 38.7867 18.528 38.712 18.464C39.4373 18.0907 40.0027 17.5627 40.408 16.88C40.8133 16.1973 41.0853 15.3973 41.224 14.48ZM40.872 16.672L41.608 15.984C41.9387 16.24 42.2907 16.5227 42.664 16.832C43.0373 17.1307 43.3893 17.4293 43.72 17.728C44.0613 18.016 44.3387 18.272 44.552 18.496L43.768 19.296C43.5653 19.0613 43.2987 18.7893 42.968 18.48C42.6373 18.1813 42.2853 17.872 41.912 17.552C41.5493 17.232 41.2027 16.9387 40.872 16.672ZM29.848 8.032H34.968V9.152H29.848V8.032ZM32.088 4.56H33.192V19.264H32.088V4.56ZM32.056 8.704L32.808 8.944C32.68 9.584 32.52 10.2453 32.328 10.928C32.1467 11.6107 31.9387 12.2827 31.704 12.944C31.4693 13.6053 31.2187 14.2187 30.952 14.784C30.6853 15.3493 30.408 15.8347 30.12 16.24C30.0667 16.08 29.976 15.904 29.848 15.712C29.72 15.5093 29.608 15.3387 29.512 15.2C29.7787 14.8373 30.04 14.4053 30.296 13.904C30.552 13.4027 30.792 12.8587 31.016 12.272C31.24 11.6853 31.4427 11.088 31.624 10.48C31.8053 9.86133 31.9493 9.26933 32.056 8.704ZM33.112 10.064C33.208 10.1707 33.3467 10.3627 33.528 10.64C33.72 10.9173 33.9227 11.216 34.136 11.536C34.36 11.856 34.5627 12.1547 34.744 12.432C34.936 12.7093 35.064 12.9067 35.128 13.024L34.456 13.92C34.36 13.7173 34.232 13.4613 34.072 13.152C33.912 12.8427 33.7307 12.5173 33.528 12.176C33.336 11.8347 33.1547 11.52 32.984 11.232C32.8133 10.944 32.6747 10.72 32.568 10.56L33.112 10.064ZM45.784 11.056H60.28V12.08H45.784V11.056ZM50.232 4.672L50.952 5.424C50.504 5.60533 50.008 5.776 49.464 5.936C48.92 6.096 48.408 6.23467 47.928 6.352C47.9067 6.24533 47.864 6.12267 47.8 5.984C47.7467 5.84533 47.688 5.72267 47.624 5.616C48.0827 5.488 48.552 5.33867 49.032 5.168C49.5227 4.98667 49.9227 4.82133 50.232 4.672ZM47.24 5.264L48.648 5.584C48.616 5.69067 48.5093 5.75467 48.328 5.776L48.552 11.52H47.48L47.24 5.264ZM47.8 7.2H50.568V8.064H47.8V7.2ZM55.336 7.2H58.12V8.064H55.336V7.2ZM55.32 9.12H58.088V9.968H55.32V9.12ZM55.288 5.264H58.184V6.128H55.288V5.264ZM47.88 9.12H50.568V9.968H47.88V9.12ZM52.04 5.808H54.824V6.656H51.96L52.04 5.808ZM51.672 7.648H54.024V8.496H51.592L51.672 7.648ZM51.544 4.72L52.552 4.784C52.5307 5.232 52.4987 5.70133 52.456 6.192C52.4133 6.68267 52.3707 7.16267 52.328 7.632C52.2853 8.09067 52.2373 8.49067 52.184 8.832L51.208 8.768C51.2613 8.40533 51.3093 7.99467 51.352 7.536C51.4053 7.07733 51.448 6.60267 51.48 6.112C51.512 5.61067 51.5333 5.14667 51.544 4.72ZM53.48 7.648H54.488V11.44H53.48V7.648ZM51.288 9.168H52.216V11.312H51.288V9.168ZM57.608 5.264H58.712C58.7013 5.92533 58.68 6.63467 58.648 7.392C58.616 8.14933 58.5787 8.88533 58.536 9.6C58.504 10.304 58.4667 10.912 58.424 11.424H57.288C57.352 10.9013 57.4053 10.2827 57.448 9.568C57.4907 8.85333 57.5227 8.12267 57.544 7.376C57.576 6.61867 57.5973 5.91467 57.608 5.264ZM49.832 11.424L50.808 11.792C50.488 12.3573 50.0827 12.896 49.592 13.408C49.112 13.92 48.584 14.3787 48.008 14.784C47.4427 15.1893 46.856 15.52 46.248 15.776C46.184 15.6907 46.104 15.5893 46.008 15.472C45.9227 15.3547 45.832 15.2427 45.736 15.136C45.6507 15.0187 45.5653 14.928 45.48 14.864C46.056 14.6507 46.6213 14.368 47.176 14.016C47.7307 13.664 48.2373 13.264 48.696 12.816C49.1653 12.368 49.544 11.904 49.832 11.424ZM56.184 11.424C56.4827 11.872 56.8613 12.3093 57.32 12.736C57.7893 13.1627 58.3013 13.5467 58.856 13.888C59.4213 14.2187 59.9867 14.4907 60.552 14.704C60.4773 14.768 60.3867 14.8533 60.28 14.96C60.184 15.0667 60.0933 15.1787 60.008 15.296C59.9227 15.4027 59.848 15.504 59.784 15.6C59.1973 15.3547 58.616 15.0347 58.04 14.64C57.464 14.2453 56.9307 13.808 56.44 13.328C55.9493 12.8373 55.5333 12.3253 55.192 11.792L56.184 11.424ZM49.496 13.76H56.52V14.736H49.496V13.76ZM47.32 16.064H58.92V17.088H47.32V16.064ZM52.344 12.496H53.56V19.28H52.344V12.496ZM62.536 5.744L63.08 4.912C63.4533 5.008 63.848 5.13067 64.264 5.28C64.68 5.41867 65.08 5.568 65.464 5.728C65.8587 5.87733 66.184 6.016 66.44 6.144L65.912 7.088C65.656 6.93867 65.336 6.784 64.952 6.624C64.568 6.464 64.1627 6.304 63.736 6.144C63.3093 5.984 62.9093 5.85067 62.536 5.744ZM61.736 9.12C62.312 8.97067 63 8.784 63.8 8.56C64.6107 8.336 65.4267 8.112 66.248 7.888L66.376 8.848C65.6613 9.08267 64.936 9.31733 64.2 9.552C63.4747 9.776 62.8133 9.97867 62.216 10.16L61.736 9.12ZM68.616 5.728H75.032V6.64H67.912L68.616 5.728ZM74.728 5.728H74.92L75.112 5.68L75.928 5.92C75.704 6.336 75.448 6.752 75.16 7.168C74.8827 7.584 74.6 7.93067 74.312 8.208L73.352 7.872C73.5973 7.616 73.848 7.312 74.104 6.96C74.36 6.59733 74.568 6.24533 74.728 5.904V5.728ZM70.6 6.064H71.704C71.608 6.62933 71.464 7.136 71.272 7.584C71.0907 8.02133 70.824 8.41067 70.472 8.752C70.1307 9.09333 69.6827 9.38667 69.128 9.632C68.5733 9.86667 67.8907 10.064 67.08 10.224C67.0267 10.096 66.9413 9.94667 66.824 9.776C66.7067 9.60533 66.6 9.46667 66.504 9.36C67.24 9.24267 67.8533 9.088 68.344 8.896C68.8453 8.704 69.2453 8.48 69.544 8.224C69.8533 7.95733 70.088 7.648 70.248 7.296C70.4187 6.93333 70.536 6.52267 70.6 6.064ZM71.656 6.336C71.7307 6.67733 71.848 7.01333 72.008 7.344C72.1787 7.664 72.4293 7.968 72.76 8.256C73.0907 8.544 73.5387 8.79467 74.104 9.008C74.68 9.22133 75.416 9.392 76.312 9.52C76.2053 9.63733 76.088 9.79733 75.96 10C75.832 10.192 75.7413 10.3627 75.688 10.512C74.7387 10.3413 73.96 10.1173 73.352 9.84C72.744 9.552 72.264 9.22667 71.912 8.864C71.56 8.49067 71.288 8.10133 71.096 7.696C70.9147 7.28 70.7707 6.864 70.664 6.448L71.656 6.336ZM68.872 4.56L69.944 4.72C69.6773 5.30667 69.3307 5.888 68.904 6.464C68.488 7.02933 67.9707 7.552 67.352 8.032C67.2453 7.92533 67.1013 7.81333 66.92 7.696C66.7493 7.57867 66.5893 7.49333 66.44 7.44C67.0373 7.024 67.5387 6.56 67.944 6.048C68.3493 5.52533 68.6587 5.02933 68.872 4.56ZM65.064 12.912V14.016H73.128V12.912H65.064ZM65.064 14.784V15.904H73.128V14.784H65.064ZM65.064 11.056V12.128H73.128V11.056H65.064ZM63.896 10.24H74.328V16.704H63.896V10.24ZM70.344 17.536L71.32 16.928C71.9067 17.1093 72.4987 17.3013 73.096 17.504C73.6933 17.7067 74.2587 17.9093 74.792 18.112C75.3253 18.3253 75.784 18.5227 76.168 18.704L74.824 19.312C74.4933 19.1413 74.088 18.9547 73.608 18.752C73.128 18.5493 72.6107 18.3413 72.056 18.128C71.5013 17.9253 70.9307 17.728 70.344 17.536ZM66.568 16.88L67.672 17.376C67.2347 17.632 66.7333 17.8827 66.168 18.128C65.6133 18.3733 65.0373 18.5973 64.44 18.8C63.8427 19.0027 63.2773 19.1787 62.744 19.328C62.68 19.2427 62.5947 19.1413 62.488 19.024C62.3813 18.9173 62.2693 18.8053 62.152 18.688C62.0453 18.5813 61.944 18.496 61.848 18.432C62.4027 18.3147 62.968 18.176 63.544 18.016C64.1307 17.856 64.6853 17.68 65.208 17.488C65.7307 17.296 66.184 17.0933 66.568 16.88ZM82.808 5.344H92.216V6.432H82.808V5.344ZM82.408 5.344H83.576V9.728C83.576 10.432 83.5493 11.1947 83.496 12.016C83.4533 12.8373 83.3573 13.6747 83.208 14.528C83.0587 15.3707 82.84 16.1973 82.552 17.008C82.2747 17.808 81.896 18.544 81.416 19.216C81.352 19.152 81.256 19.0773 81.128 18.992C81.0107 18.9067 80.888 18.8267 80.76 18.752C80.632 18.6773 80.52 18.6187 80.424 18.576C80.872 17.936 81.2293 17.2427 81.496 16.496C81.7627 15.7387 81.96 14.9707 82.088 14.192C82.2267 13.4027 82.312 12.6293 82.344 11.872C82.3867 11.104 82.408 10.3893 82.408 9.728V5.344ZM85.592 11.376V12.8H90.488V11.376H85.592ZM85.592 9.104V10.496H90.488V9.104H85.592ZM84.504 8.176H91.608V13.728H84.504V8.176ZM85.08 14.608L86.152 14.88C85.9067 15.52 85.5973 16.1547 85.224 16.784C84.8507 17.4027 84.472 17.9307 84.088 18.368C84.0133 18.304 83.9173 18.2293 83.8 18.144C83.6827 18.0693 83.5653 17.9947 83.448 17.92C83.3307 17.8453 83.224 17.7813 83.128 17.728C83.5333 17.3333 83.9013 16.8587 84.232 16.304C84.5733 15.7493 84.856 15.184 85.08 14.608ZM89.608 14.896L90.632 14.48C90.888 14.8107 91.1387 15.168 91.384 15.552C91.6293 15.9253 91.8533 16.2987 92.056 16.672C92.2693 17.0453 92.4293 17.376 92.536 17.664L91.432 18.16C91.336 17.872 91.192 17.5413 91 17.168C90.808 16.784 90.5893 16.3947 90.344 16C90.0987 15.6053 89.8533 15.2373 89.608 14.896ZM87.448 6.208L88.76 6.448C88.632 6.864 88.504 7.29067 88.376 7.728C88.2587 8.16533 88.1413 8.528 88.024 8.816L86.968 8.576C87.064 8.23467 87.1547 7.84 87.24 7.392C87.336 6.944 87.4053 6.54933 87.448 6.208ZM87.384 13.36H88.536V18.032C88.536 18.32 88.4987 18.5493 88.424 18.72C88.3493 18.8907 88.2053 19.0187 87.992 19.104C87.7787 19.1787 87.4907 19.2267 87.128 19.248C86.776 19.2693 86.3333 19.2747 85.8 19.264C85.7787 19.1147 85.736 18.944 85.672 18.752C85.608 18.56 85.5387 18.3893 85.464 18.24C85.848 18.2507 86.1947 18.256 86.504 18.256C86.8133 18.256 87.0213 18.256 87.128 18.256C87.2987 18.2453 87.384 18.16 87.384 18V13.36ZM78.392 5.568L79.08 4.72C79.4 4.85867 79.7307 5.02933 80.072 5.232C80.4133 5.43467 80.7333 5.64267 81.032 5.856C81.3307 6.05867 81.576 6.256 81.768 6.448L81.048 7.408C80.8667 7.20533 80.6267 6.99733 80.328 6.784C80.0293 6.56 79.7093 6.34133 79.368 6.128C79.0373 5.91467 78.712 5.728 78.392 5.568ZM77.608 9.888L78.28 9.008C78.6 9.136 78.9307 9.296 79.272 9.488C79.624 9.66933 79.9493 9.86133 80.248 10.064C80.5573 10.256 80.808 10.4427 81 10.624L80.296 11.584C80.1147 11.4027 79.8747 11.2107 79.576 11.008C79.2773 10.7947 78.952 10.592 78.6 10.4C78.2587 10.1973 77.928 10.0267 77.608 9.888ZM77.944 18.384C78.1787 17.9573 78.4347 17.4613 78.712 16.896C79 16.32 79.288 15.712 79.576 15.072C79.8747 14.432 80.1413 13.808 80.376 13.2L81.336 13.872C81.1227 14.4373 80.8827 15.024 80.616 15.632C80.36 16.24 80.0933 16.8373 79.816 17.424C79.5387 18.0107 79.272 18.5547 79.016 19.056L77.944 18.384Z" fill="#FF5722"/>
<path d="M29 20.4H93V21.2H29V20.4Z" fill="#FF5722"/>
</svg>
