<svg width="24" height="24" viewBox="0 0 24 24" fill="none" xmlns="http://www.w3.org/2000/svg">
<g id="heroicons-mini/speaker-wave">
<g id="Union">
<path d="M12.6 4.50012C12.6 4.14106 12.3866 3.81635 12.057 3.67394C11.7274 3.53152 11.3447 3.59865 11.0832 3.84474L6.24313 8.40012H3.20074C2.82875 8.40012 2.49508 8.62898 2.36112 8.97602C1.99846 9.91554 1.80005 10.9357 1.80005 12.0001C1.80005 13.0645 1.99846 14.0847 2.36112 15.0242C2.49508 15.3713 2.82875 15.6001 3.20074 15.6001H6.24313L11.0832 20.1555C11.3447 20.4016 11.7274 20.4687 12.057 20.3263C12.3866 20.1839 12.6 19.8592 12.6 19.5001V4.50012Z" fill="#424242"/>
<path d="M19.7398 6.06044C19.3883 5.70897 18.8184 5.70897 18.467 6.06044C18.1155 6.41192 18.1155 6.98176 18.467 7.33324C21.0444 9.9107 21.0444 14.0896 18.467 16.667C18.1155 17.0185 18.1155 17.5884 18.467 17.9398C18.8184 18.2913 19.3883 18.2913 19.7398 17.9398C23.0202 14.6594 23.0202 9.34085 19.7398 6.06044Z" fill="#424242"/>
<path d="M17.1945 8.60601C16.843 8.25454 16.2731 8.25454 15.9217 8.60601C15.5702 8.95748 15.5702 9.52733 15.9217 9.87881C17.0932 11.0504 17.0932 12.9499 15.9217 14.1214C15.5702 14.4729 15.5702 15.0428 15.9217 15.3942C16.2731 15.7457 16.843 15.7457 17.1945 15.3942C19.069 13.5197 19.069 10.4805 17.1945 8.60601Z" fill="#424242"/>
</g>
</g>
</svg>
