<svg width="50" height="50" viewBox="0 0 50 50" fill="none" xmlns="http://www.w3.org/2000/svg">
<path d="M32.0312 0C36.7775 0 40.625 3.84766 40.625 8.59375C40.625 8.87051 40.6113 9.14414 40.5857 9.41406C40.8559 9.38867 41.1295 9.375 41.4062 9.375C46.1525 9.375 50 13.2227 50 17.9688C50 20.8756 48.5564 23.4447 46.3477 25C48.5564 26.5553 50 29.1244 50 32.0312C50 36.7775 46.1525 40.625 41.4062 40.625C41.1295 40.625 40.8559 40.6113 40.5857 40.5857C40.6113 40.8559 40.625 41.1295 40.625 41.4062C40.625 46.1525 36.7775 50 32.0312 50C29.1244 50 26.5553 48.5564 25 46.3477C23.4447 48.5564 20.8756 50 17.9688 50C13.2227 50 9.375 46.1525 9.375 41.4062C9.375 41.1295 9.38867 40.8559 9.41406 40.5857C9.14141 40.6117 8.86758 40.6248 8.59375 40.625C3.84766 40.625 0 36.7775 0 32.0312C0 29.1246 1.44336 26.5553 3.65234 25C1.44336 23.4447 0 20.8754 0 17.9688C0 13.2227 3.84766 9.375 8.59375 9.375C8.87051 9.375 9.14414 9.38867 9.41406 9.41406C9.38867 9.14414 9.375 8.87051 9.375 8.59375C9.375 3.84766 13.2227 0 17.9688 0C20.8754 0 23.4447 1.44336 25 3.65234C26.5553 1.44336 29.1246 0 32.0312 0ZM25 13.5352C23.4447 15.7441 20.8756 17.1875 17.9688 17.1875C17.692 17.1875 17.4184 17.1738 17.1482 17.1482C17.1742 17.4209 17.1873 17.6947 17.1875 17.9688C17.1875 20.8756 15.7441 23.4447 13.5352 25C15.7441 26.5553 17.1875 29.1244 17.1875 32.0312C17.1875 32.308 17.1738 32.5816 17.1482 32.8516C17.4184 32.826 17.692 32.8125 17.9688 32.8125C20.8754 32.8125 23.4447 34.2559 25 36.4646C26.5553 34.2559 29.1246 32.8125 32.0312 32.8125C32.308 32.8125 32.5816 32.826 32.8516 32.8516C32.8256 32.5789 32.8125 32.3051 32.8125 32.0312C32.8125 29.1246 34.2559 26.5553 36.4646 25C34.2559 23.4447 32.8125 20.8754 32.8125 17.9688C32.8125 17.692 32.826 17.4184 32.8516 17.1482C32.5789 17.1742 32.3051 17.1873 32.0312 17.1875C29.1244 17.1875 26.5553 15.7441 25 13.5352Z" fill="#545454"/>
</svg>
