<?xml version="1.0" encoding="UTF-8"?>
<svg id="_圖層_1" data-name="圖層 1" xmlns="http://www.w3.org/2000/svg" xmlns:xlink="http://www.w3.org/1999/xlink" viewBox="0 0 1280 1280">
  <defs>
    <style>
      .cls-1 {
        fill: #c1c2c1;
      }

      .cls-2 {
        fill: #714b42;
      }

      .cls-3 {
        fill: #6f4a42;
      }

      .cls-4 {
        fill: #565456;
      }

      .cls-5 {
        fill: #080808;
      }

      .cls-6 {
        fill: #4d4d4d;
      }

      .cls-7 {
        fill: #fff;
      }

      .cls-8 {
        fill: #5c5b5a;
      }

      .cls-9 {
        fill: #d4a53c;
      }

      .cls-10 {
        fill: none;
      }

      .cls-11 {
        fill: #4c4c4d;
      }

      .cls-12 {
        fill: #3a302e;
      }

      .cls-13 {
        fill: #353334;
      }

      .cls-14 {
        fill: #4d4c4c;
      }

      .cls-15 {
        fill: #bdbdbd;
      }

      .cls-16 {
        fill: #3a3a3a;
      }

      .cls-17 {
        fill: #4e4d4e;
      }

      .cls-18 {
        fill: #53362f;
      }

      .cls-19 {
        fill: url(#_未命名漸層_822);
      }

      .cls-20 {
        fill: #4f4e4f;
      }

      .cls-21 {
        fill: #dad7d8;
      }

      .cls-22 {
        fill: #4f4e4e;
      }

      .cls-23 {
        fill: #4d4c4d;
      }

      .cls-24 {
        fill: #bbb9ba;
      }

      .cls-25 {
        fill: #c1c1c1;
      }

      .cls-26 {
        fill: #c1c2c2;
      }

      .cls-27 {
        fill: #c6c6c6;
      }

      .cls-28 {
        fill: #b6b7b6;
      }

      .cls-29 {
        fill: #4a4949;
      }

      .cls-30 {
        fill: #dddbdb;
      }

      .cls-31 {
        clip-path: url(#clippath);
      }

      .cls-32 {
        fill: #2f2f35;
      }

      .cls-33 {
        fill: #b5b6b5;
      }

      .cls-34 {
        fill: #b5b5b5;
      }

      .cls-35 {
        fill: #7498ad;
        font-family: jf-openhuninn-1.1, jf-openhuninn-1.1;
        font-size: 48px;
      }
    </style>
    <linearGradient id="_未命名漸層_822" data-name="未命名漸層 822" x1="-8.35" y1="1418.17" x2="1283.98" y2="1418.17" gradientTransform="translate(0 1476.39) scale(1 -.85)" gradientUnits="userSpaceOnUse">
      <stop offset="0" stop-color="#2e4c54"/>
      <stop offset=".67" stop-color="#587383"/>
    </linearGradient>
    <clipPath id="clippath">
      <rect class="cls-10" x="-6.15" y="576.49" width="1292.33" height="118.09"/>
    </clipPath>
  </defs>
  <rect class="cls-19" x="-8.35" y="-20.92" width="1292.33" height="597.41"/>
  <g>
    <path class="cls-7" d="M472.79,579.31c-.42-1.51.76-2.78,2.16-3.15,1.79-.47,2.36.41,3.04.36.31-.02,1.43-3.24,3.93-2.13-2.17-3.49,4.56-4.32,2.78-2.11-.1.13-2.79-.35-.7,1.79l3.52-.38-1.36-3.77,25.41-17.45c4.7-.34,3.55-1.12,5.45-3.67,2.11-2.83,9.73-10.62,12.64-11.92,2.72-1.22,3.64.4,5.28-3.88l2.77,1.38,1.06-2.8,3.77,1.45,3.24-3.54-3.08-.68-1.12,2.28-2.11.49,1.4-3.5c-1.67-1.48-16.35,3.36-19.28,2.84-3.18-.57-1.43-6.82-4.62-6.73l-65.8,12.79-2.16,1.38.66,4.82-.71,1.42-25.9,4.44-12.11-68.38,121.68-22.65c1.81.4,2.72,1.56,3,3.37l11.91,61.08c3.47-3.53,7.1-6.96,10.42-10.6,7.89-8.65,16.47-18.45,23.61-27.65,2.04-2.62,3.51-6.52,6.29-9.15,1.52-1.44,5.01-2.52,5.32-3.08.13-.23-.37-2.35.15-4.05,1.04-3.42,7.29-11.89,9.42-15.88,3.12-5.87,8.1-18.76,11.77-23.15.8-.95,3.04-1,4.26-1.19.53-1.84-1.44-2.89-1.82-4.18-.33-1.13,5.35-15.12,6.44-16.81.93-1.44,2.03-2.26,3.8-2.18l-1.37-5.13c18.8-61.54,18.87-128.98-.59-190.45-1.43-4.51-11.15-28.4-10.55-30.56.17-.61.8-1.15,1.27-1.59-.68-1.22-2.58-1.21-3.31-1.93-.31-.3-4-7.12-4.11-7.53-.56-2.02,1.11-4.72.34-6.95-5.2,0-4.5-4.08-6.21-6.59-18-26.35-39.18-56.8-63.88-77.36-.88-.73-4.69-3.99-5.62-3.14.56,3.44,3.54,9.13-.66,10.92-5.72,2.21-44.59,7.14-46.42,9.89-.46.69-.62,1.77-.58,2.6.16,3.93,3.21,19.82,4.48,23.62.32.94.41,2.38,1.52,2.74l38.59-6.91,3.7,1.77,17.27,92.93c-.63,1.23-2.59,1.51-3.83,1.78-6.27,1.37-18.39,4.21-24.27,4.54-7.1.39-2.04-6.8-6.99-7.09-6.22-.36-26.82,4.39-34.19,5.88-3.21.65-6.35,1.78-9.67,1.92-.43,2.54,1.95,6.79,0,8.78l-1.38.72-28.14,4.2-17.55-95.37c.17-.73,12.3-3.65,14.11-2.87l18.14-3.97-16.01-91.41c.33-1.02,1.32-1.11,2.16-1.4,7.2-2.41,16.68-2.71,24.2-4.59.51-.13,2.34.18,1.64-1.14-.21-.39-6.7-3.74-7.72-4.21-30.06-13.78-62.23-22.37-95-25.71-1.49-.15-5.34-.64-6.05-2.02h163.17c11.72,7.55,25.99,15.49,36.51,24.58.66.57,4.79,4.61,4.93,4.93.6,1.37-.25,2.2-.38,3.47h2.81s-2.11,1.41-2.11,1.41c.1,3.44,2.74,1.29,4.42,1.52.99.14,4.85,3.16,5.79,4.06,10.13,9.7,21.13,18.34,30.48,29.18,3.43,3.98,22.32,27.37,23.01,30.33.98,4.19-.8,2.84-1.94,5.8,1.52-.59,5.25.19,6.37,1.18,2.23,1.96,5.21,12.51,7.18,15.82,1.74,2.93,5.23,2.92,5.93,6.67s.05,4.71-1.93,7.55c1.1,2.04,2.98.07,4.21.67,2.13,1.03,6.7,11.15,8.13,13.67,1.65,2.89,4.9,5.81,5.83,9.66.14,1.7-3.39.95-1.67,4.45.77,1.56,2.25.72,2.35.81.73.7.59,2.49.1,3.38l2.11-1.07c2.49-.13.69,2.73,1.1,3.9.89,2.57,4.73,7.33,6.06,10.7s2,8.18,3.36,11.73l-4.9-1.4-.66,2.4,4.15,1.87-.63,2,1.36.39-1.4.67c.82,4.06,3.38,2.37,5.59,4.95-3.28,3.12-3.48.48-3.97.36-.91-.23-2.07.07-3.04,0v2.08c.16.22,4.84.76,5.19.7.47-.07.56-2.21,2.52-1.38l1.41,8.42c-2.75.85-1.86-2.23-4.2-2.1.74,2.27.94,3.05-.7,4.9l2.8.7c-6.92.09-1.11,4.94,2.8,1.41,1.06,1.94-.67,4.4-.41,5.63.4,1.96,3.62,1.02,3.11,3.74-.4,2.11-3.77.72-3.38,3.26,6.79-2.14,4.29,9.45,7.01,13.33l-4.92-.71.1-2.48-2.91-1.02.71-2.09h-2.1s.69,2.8.69,2.8c-3.56-1.39-5.42-1.44-3.4,2.71l3.41.1v2.82s2.8-.71,2.8-.71v2.11c-4.02-1.79-3.13,3.05-.22,3.44,1.9.26,2.96-4.11,2.33-5.55l3.44.08c.12,2.31,1.61,5.95,1.52,8.04-.06,1.57-1.43,2.49-1.31,3.32.1.7,2.62,4.65,1.97,5.4-1.9.44-1.02-.88-2.26-1.63-.62-.37-2.17-.19-2.53-.6-.2-.23-.83-4.35-2.24-5.48l-1.73,1.39-1.78-3.51-2.78.75c1.17,1.72-2.75,3.06-3.19,5.58l-2.44-1.41c-.69,2.63,1.51,2.94,2.07,5.27-2.55,2.98-1.71-1.41-4.18-1.06-1.89,4.7,1.61,3.22,2.99,4.14.97.64.86,2.62,2.61,2.17.62-1.15.13-3.12.5-4.03.3-.76,1.25-.82,1.37-1.1.23-.55,1.73-7.01,3.05-5.38-1.44,2.9.38,1.61.93,2.95.94,2.26,2.3,12.83,6.03,8.53l-.35-3.76c.98-.75,2.57-2.13,3.55-.7l1.83,9.52c-2.7,2.42-.51,1.92-.09,4.19.86,4.62.64,9.96.77,14.66-.09.53-4.88-.36-4.83,5.69.04,4.31,2.6.93,4.1,2.73,2.9,3.47.74,8.85.66,12.66-.44,21.93-3.34,43.38-7.64,64.65-.29,1.43.11,3.1-.23,4.68-.61,2.78-3.42,13.18-5.22,14.43-2.41,1.69-5.83.47-7.23,4-.79,2.01,1.89-.08,2.47,1l1.03,6.34h-4.21s-.04,2.06-.04,2.06l-3.44-.38-1.42.8c.78,1.96.19,6.52,3.49,4.89v-3.15c1.7-.13,3.06,1.49,4.19-.35l-1.39-1.75c1.72-.17,2.34-.09,2.67,1.59.11.56-.35,5.26-.57,5.43l-2.09-.71,1.4,1.86v2.35s-2.11,0-2.11,0l-1.05-2.82-1.07,4.21-2.8-1.4c-.02,1.8-.74,4.08.14,5.79.64,1.24,2.45,1.61,2.52,2.24.03.27-1.24,4.94-1.41,5.15-.34.39-3.06.44-3.32,1.98l1.37,3.77c-1.57.76-6.24-.58-7.01,1.07-.83,1.77,4.46,1.37,4.89,2.8l-4.87,2.49c-.2,1.95.4,3.11,2.12,3.86-2.39,4.37-3.84,11.5-6.19,15.59-.66,1.15-1.82,1.35-2.07,1.77-.71,1.17-.16,3.69-1.96,4.7-1.07.02-1.42-4.85-5.15-4.03-.22.05-3.24,3.47-1.16,4.04,2.56.58,2.45-3.64,3.5-1.39,1.16,2.5,2.25,4.51.36,6.7-2.92,3.39-2.62,3.7-4.25,7.58-1.51,3.59-7.22,11.13-10.14,13.82-.55.5-1.54.02-2.05.63-.9,1.08-.45,4.38-.75,4.97-.96,1.85-1.95-1.74-2.89-2.04-4.67-1.49-.25,3.52.06,4.16,1.3,2.71-4.19,5.33-3.15,1.39-1.96-.39-1.37.72-1.41,2.12l-7.01-.71c-.21,1.68,1.43,2.6,2.8,2.82l-.44,1.45-2.3,1.69c3.56,3.43,1.1,3.3.32,5.32-4.24,10.99-7.71,11.97-15.13,19.93-1.53,1.64-2.78,5.35-5.2,6.73-1.55.88-3.12.38-3.78.78-.36.22-2.54,6.37-4.68,6.87l-2.49-3.82,1.45-.79c.83-3.82-3.1-3.76-4.95-1.35-1.74,2.28,2.81.72,2.12,3.16-1.63-.32-5.98,3.61-4.91,4.91l4.21.71c.09-1.6-1.41-3.03.36-4.2l2.44,3.14-3.24,3.12-2.7-1.35-.97,1.65c3.05,2.96-1.71,3.18-2.23,3.68-.78.73-.8,2.19-1.7,3.14-3.98,4.2-7.1,6.19-11.43,9.58-.57.45-1.29-.02-.88,1.6M107.84,579.66c-1.98-2.28-10.13-7.74-9.85-10.48.16-1.56,2.9-2.92.36-4.62-4.83,3.62-4.6-1.07-6.97-2.87-1.45-1.1-2.87.14-4.09-.57-1.34-.78-1.62-3.75-2.06-4.12-.54-.45-3.29-.31-4.73-1.24-3.74-2.42-6.37-8.16-8.86-11.49-3.35-4.47-12.8-12.51-14.7-16.94-.66-1.53.48-2.67.37-4.16-6.34-.4-9.07-9-11.87-13.79l1.37-1.3c.01-.59-1.39-2.79-1.82-3.18-1.08-.97-.19.36-1.98-1.79-2.04-2.45-2.04-.93-3.3-1.38-3.14-1.11-16.22-22.44-17.68-26.52-1.19-3.33.51-1.12-2.2-4.76-5.73-7.67-15.18-31.03-18.29-40.66-.89-2.76-1.06-5.89-2.48-8.4v-202.83l1.4-2.8c1.46,1.82-.25,10.16,3.52,6.65-2.03-3.24.32-6.4,0-10.16l-4.91,1.4v-31.58l5.37-9.07c1.67-.49,8.75,5.15,9.37,1.68.05-.29-1.35-2.85-1.54-2.99-.34-.26-2.76,1.08-3.37-.5l2.11-.35-1.5-4.11-3.41,1.31c2.28-10.35,8.02-19.41,11.89-29.18l3.54.41c.86-2.7-3.61-.3-2.8-2.44.74-1.94,5.19-6.8,6.6-8.84,1.56-2.25,2.25-5.66,5.03-7.67l2.39.72c-.37-3.2,3.28-3.76,2.81-6.32l-1.75,1.4c-.54.11-.43-.64-.33-1.03.54-2.26,5.18-10.99,8.08-10.84l-.09-2.18,2.52-.7c-1.49-3.87,2.96-8.21,5.71-10.78,1.68-1.58,2.32-2.19,4.13-4.64.17,3,3.94.84,2.81,4.92l1.06-1.42c2.1,1.49,5.24,2.09,6.33-.65-.63-1.6-1.07-3.39-1.77-4.96.73-.08,1.88.89,2.8.7l-.71-2.09c3.3.05,5.26-3.02,3.05-5.69l-3.74.06c.51-1.6-.22-3.22,1.75-4.04l3.87,1.23-2.8-3.15c1.29-2.77,3.62-3.03,5.21-4.61,2.03-2.01,2.94-6.13,4.27-7.66,2.99-3.43,7.84-7.39,11.21-10.54,2.67-2.49,6.05-6.84,8.83-8.72,1.14-.77,3.59-.74,4.85-2.51l.7,2.8c-.19-1.75,2.5-2.31,2.7-3.21.18-.8-.99-1.92-.28-3.09.67-1.11,5.06-2.51,5.66-4.91,2.17,2.41,4.15,2.65,4.62-1.01l-2.14-1.46c2.15-1.55,3.95-3.57,5.97-5.24,5.75-4.77,14.17-10.63,20.45-14.64,2.48-1.58,9.17-5.98,11.5-6.75,1.67-.55,21.43-.9,22.43-.38l.34,1.41,1.35-1.47,36.9.07c.41,1.73-1.16,5-1.11,5.67.02.26,2.01,2.99,2.85,2.75l.04-1.44,1.72-.69c-2.37-2.11-.17-3.91-1.41-6.3h103.17l-25,4.13c-7.87-.42-17.1,4.3-24.57,4.9-2.25.18-5.81-.72-6.79-.5-.83.19-3.45,2.83-5.55,3.6-5.53,2.03-11.9,2.16-16.88,3.47-1.22.32-2.49,1.92-3.85,2.46-36.35,14.43-71.08,33.84-100.55,60.17-6.88,6.15-13.29,13-19.64,19.66l16.06,3.24c-2.48,17.61-11.16,33.77-16.76,50.44,2.9-.58,9.03-.46,10.87-2.81s4.87-12.99,5.98-16.48c.62-1.94,1.74-8.88,3.25-9.4,3.42-1.17,20.81,6.15,25.2,7.61l.92,1.17-20.25,44.47,16.13-7.42,18.94,29.88c-4.58-27.48-10.32-54.8-15-82.26-.81-4.78-2.58-11.52-2.94-15.96-.27-3.33.86-4.03,3.75-4.75,21.27-5.28,45.96-8.13,67.8-12.2,15.77-2.94,35.64-8.89,51.42-9.7,1.44-.07,2.42.29,3.74.66l-2.1,1.39,2.81,1.22c7.04,30.01,11.48,60.56,17.02,90.89,3.63,19.85,10.6,43.96,12.36,63.44,1.56,17.24-5.76,25.03-21.82,29.24-3.03.79-12.92,2.93-15.47,2.5-3.38-.57-5.2-7.02-7.1-9.81-1.17-1.72-8.49-10.05-7.46-11.13,5.59-1.32,23.11-.84,23.18-8.75-7.92-39.82-14.13-80-21.98-119.83-.35-1.76-1.91-10.32-2.56-10.77-.51-.36-1.18-.34-1.79-.38l-68.04,12.75-2.4,1.84,28.58,152.25c.34,2.16.4,4.65-1.63,5.92-1.43.89-17.16,3.84-19.77,4.09-1.68.16-3.42.24-5.09,0l-5.72-28.68-17.14,9.1c-4.91-8.95-7.74-19.33-13.42-28.01-1.12-1.7-3.69-2.83-3.64-5.21l1.03-1.89c3.63-.45,12.44-8.39,15.15-7.6,3.08.9,12.64,21.35,15.93,24.48l-6.66-35.78c-2.84,1.06-17.56,10.55-19.27,9.07l-3.17-6.82-50.86,19.9-3.16-2.56-10.83-18.45c2.75-3.27,7.64-3.53,10.02-7.53l13.74-23.8c-5.03-.16-17.48,7.54-21.29,6.2l-11.58-20.02c-.16-1.73,2.53-2.45,3.41-3.56,1.62-2.07,4.53-7.06,5.73-9.51,1.79-3.65,11.03-29.11,9.69-30.66-1.35-.3-1.67.69-2.39,1.47-10.82,11.82-18.5,27.46-26.53,41.27l-1.61-.51-1.01.92c2.29,4.26-2.26,6.83-3.8,9.48-.53.91-.79,4-1.81,5.18-.69.79-2.59.02-2.82,2.95l1.38.64c-1.41,3-3.58,6.24-4.96,9.13-1.9,3.98-2.63,8.75-4.06,13.45-.7,2.3-2.88,10.41-3.58,11.73-.48.91-1.96.27-2.14.45-.7.67,1.17,2.65,1.09,3.56-.31,3.58-4.83,12.42-5.84,16.6-1.26,5.2-.44,11.04-2.69,16.26-.5,1.16-1.55,2.27-2.38,3.23l2.15,1.51-3.59,23.79c.93,15.09-2.96,31.83-1.34,46.91.52,4.8,3.43,11.5,3.51,16.26.04,2.18-1.97,4.62-1.48,6.82.13.58,2.76,1.06,3.38,4.52.81,4.52,2.05,9.89,2.65,14.19.37,2.61-.21,6.41.48,9.34,1,4.28,4.21,9.32,4.44,14.51.05,1.16-1.32,1.74-1.06,2.11.05.08.94-.09,1.16.23,4.97,7.22,7.72,19.6,11.31,28.37,5.66,13.81,12.71,29.14,20.98,41.44,10.62,15.79,22.53,32.73,35.32,46.83,2.69,2.96,14.79,14.66,14.76,17.55,0,.52-2.21-.07-1.44,1.76,3.02.68,1.58-1.42,3.15-2.79,4.25,5.12,9.63,8.53,14.72,12.64,14.79,11.93,31.76,25.04,48.32,34.49,4.06,2.32,8.61,3.87,12.6,6.35M199.08,3.82l-4.49-1.46c-1.45,2.12-5.97,4.47-1.12,5.66l.73-3.51c.21-.15,4.57,1.33,4.88-.69ZM184.23,11.41c.12-.18.77-4.17.73-4.39-.76-3.73-5.88,1.77-4.83,4.51l-3.1-.69-1.11,1.73,5.61,3.86-.68-4.18c.79-.16,3.03-.33,3.37-.85ZM189.25,6.62c-1.95-.59-4.25,4.19-3.5,4.91l5.61.7.05-3.12-2.03-.51-.13-1.98ZM175.21,11.54l-5.15-.47-3.26,1.51c.73,2.62,10.49.65,8.41-1.04ZM517.7,58.57c-14.45-8.83-28.61-18.54-44.21-25.28l6.99,33.4c11.74-2.01,24.79-3.37,36.2-6.71,1.02-.3,1.22.4,1.02-1.41ZM527.69,53.46c1.23.74,4.42.11,4.05-1.56-2.53-2.7-5.31-6.5-7.7-1.41,1.66.3,3.24,2.73,3.65,2.97ZM141.98,56.56c-3.75.77.07,6.96,3.74,2.35l-3.74-2.35ZM130.48,62.54c3.02,1.43,6.1-1.55,1.96-2.96-3.85-1.3-3.36.85-4,1.03-.48.13-2.12-.56-3.05.06-.56,2.66,3.19.42,4.43.69.53.11.48,1.09.67,1.18ZM131.71,67.68c3.79,5.01,7.46-1.78,3.5-3.9-1.81-.97-2.87,1.48-5.22,1.13-1.35-.2-3.81-2.93-6-2.84l.41,2.14-2.55,1.03,1.44,3.84-2.8,1.06.44,1.8,4.47,1.36c.23,1.27-1.27.39-1.89.87-.57.44-.96,1.78-1.49,2.42,3.17,5.88,4.08-.27,5.53-1.51.67-.57,1.97-.48,2.82-1.4,1.21-1.31,1.4-4.27,1.37-6.01ZM49.59,92.96c.83,2.57,2.37,1.27,3.69,1.56.93.2,3.5,2.29,4.03.17.26-1.05-.99-3.03-1.74-2.99-.39.02-.99,1.04-1.54,1.12-.93.14-2.04-1.88-4.44.13ZM41.86,122.42c-2.18-.32-3.83,1.27-3.5,3.5l3.5,1.07v-4.57ZM35.46,139.17c.49-.85-.14-2.2-.9-2.78l-3.21-.64c.85,2.06.32,3.53,0,5.61.26.28,3.99-1.99,4.11-2.19ZM30.64,144.89l-3.51-.41c-1.65,1.83-.96,3.43-3.9,3.87.27,4.51,1.75,4.14,4.32,1.17l3.08-4.63ZM512.02,184.11c.16-2.13.2-4.3-.09-6.43-.85-6.27-2.96-15.18-4.36-21.6-.33-1.52-1.4-6.7-2.48-7.35-2.02-.54-4.57-.54-6.62-.28-9.13,1.14-24.67,4.1-33.55,6.45-1.09.29-3.56.84-4.13,1.69l6.48,35.22,44.76-7.7ZM20.16,156.08c-.84-4.47-5.17-1.64-3.55.03.1.1,1.31-.24,1.87.2.86.67.93,2.23,2.85,2.52,2.31.35,3.06-2.19,2.99-4.12l-4.17,1.37ZM17.3,176.47c6.44-.73.09-4.35-1.74-2.13-1.36,1.66-1.36,4.56.71,5.63,2.91-.05.75-3.22,1.03-3.5ZM127.5,194l16.54-4.88c1.25-1.79-5.04-10.68-6.38-12.66l-10.17,17.54ZM669.3,194c-.18-3.29-3.73-6.01-6.28-3.09l.8,2.27,5.47.82ZM3.27,202.43c5.05-1.18,3.56-7.26,6.21-10.18-5.37-5.17-3.2,3.24-3.49,3.76-.13.23-2.58,1-3.12,2.22-.15.33,1.41,2.91.4,4.2ZM18.01,198.92c.27.29,6.37-3.06,6.13-4.57l-1.93-2.13c-4.55,1.23-2.69,1.13-3.2,3.25-.26,1.1-1.36,2.06-1.01,3.45ZM642.48,212.82c.9-2.61-1.22-3.93-3.34-4.78-2.58,3.81,1.88,4.24-.72,8.42l4.06-3.64ZM639.83,229.1l2.82-.34.58-2.01-5.87-8.17c-1.32,3.01-2.41,1.75-4.55,3.15,3,2.75,1.33,5.18,6.34,4.15l.67,3.22ZM671.4,229.1c-1.18-.31-1.86,1.16-2.58,1.31-.48.09-3.17-2.29-3.02-.26.06.77,4.09,4.18,5.58,3.15v-4.2ZM641.34,232c-.56,1.27,3.61,5.46,4.1,3.05l-2.46-4.55-1.64,1.5ZM678.42,249.45l-1.4,1.39c-1.83-.08-3.68.26-4.9,1.76,2.23,2.84,5.92-.65,6.3-3.15ZM681.03,288.2c-2.01-2.86-3.27.03-4.49.42-1.62.52-4.26-.87-3.72,1.53,2.28-.91,4.7,2.15,5.96,2.14.16,0,.74-2.1,2.41-1.49-.21-.57-.05-2.45-.15-2.6ZM681.23,291.57c-1.83-.13-2.08,2.17-3.93,2.74-1.26.39-.89-.99-1.13-1.13-1.58-.89-3.84,1.22-3.35,2.91l4.54,1.79-.35-2.11h4.92c-.96-1.54-1.37-2.43-.7-4.21ZM671.06,303.51c-5.47,5.13,3.55,9.23,2.34,3.3-.27-1.3-1.39-2.43-2.34-3.3ZM688.07,305.02c-7.3.19-2.71,5.07,1.92,5.49l.97-1.63-1.99-3.69c-.27-.28-.57-.17-.9-.16ZM649.13,331.41c2.46,2.38,6.71-2.83,1.22-3.08l-1.79,1.12c-.35.44.31,1.7.58,1.96ZM658.77,328.76c-5.91.62-.8,2.55-.69,3.87.02.2-2.45.64-1.41,3.14l3.57-1.84-1.47-5.17ZM671.4,340.69l.4-5.63-3.9-.69c-.38,1.66,1.4,2.45.97,4.04-.51,1.89-3.88,3.86-3.77,6.48,3.29.77,1.56-3.34,4.83-3.61l-.62-1.3,2.1.7ZM673.51,343.5h-2.08s-.72,6.31-.72,6.31h2.1c-1.22,2.72.29,5.86,3.5,5.62-1.33-1.77.45-3.31.45-3.85-.02-.94-2.59-2.36.25-4.22-1.45-1.77-4.16-.98-3.5-3.86ZM674.92,359.65l2.1-1.08-1.06-1.74c-2.7.64-2.46,4.01-2.67,6.45-.07.84-.88,1,.58,1.96l2.35-2.54-1.3-3.04ZM674.36,369.3c-.98-.61-2.68-2.23-4.37-2.95-.97-.42-1.75-.52-2.79-.39-.45,2.52.74,3.78,3.14,4.25l.71-1.44,3.86,4.56-.35,1.74,3.16-5.59c-1.02-.13-2.52.36-3.37-.17ZM661.6,396.82c-.25-.25,1.55-6.52-2.35-5.53-3.99,1.01-2.61,12.97,4.35,8.96v-3.38s-2-.06-2-.06ZM654.75,434.2c.57-.46,2.08-.16,2.61-1.23-4.64-6.16-7.25,4.64-4.54,5.26,2.2.5.86-3.16,1.93-4.03ZM51.69,448.07l-4.12,1.73,3.07,5.99,1.76-.37c-.17-2.99-2.33-4.19-.71-7.36ZM637.72,462.8c1.19.21,6.04-.58,5.61-2.44-.63-2.72-7.09-1.99-5.61,2.44ZM594.2,495.1c-3.19,2.41,1.75,4.06,3.5,3.19,2.59-1.3.65-4.14,1.1-5.33.19-.52,1.4-1.01,1.64-1.86.27-.97-2.98-7.68-3.76-7.77-3.36-.39-1.09,6.01-1.43,7.65-.22,1.05-1.88,2.69-2.45,3.78l1.41.35ZM511.36,483.9l-69.42,12.27c-.82.45-1.25.94-1.26,1.92-.05,4.6,3.4,11.75,3.67,16.67l69.87-12.3c.88-.49.62-1.12.56-1.9-.43-5.21-3.05-11.29-3.4-16.66ZM95.13,528.16l-1.9-.65c-.79,2.3-4.22,2.41-3.64,5.48,2.74-1.2,6.41-.51,5.53-4.83ZM575.96,539.29c-1.16-8.43-6.96-2.01-7.72,2.81l7.72-2.81ZM94.51,542.12l-5.61-2.11c.31,3.83,4.14,7.67,5.61,2.11ZM561.22,547.02c3.51.73,4.85-1.72,7-3.86-3.24-2.17-8.21-.87-7,3.86ZM146.89,553.84c.53-.47,1.67-2.36,1.68-2.98-.89-4.26-9.77-3.19-7.38.39.24.36,1.27.48,1.52.89.72,1.2.53,3.05,1.98,4,.05-2.81,1.52-1.7,2.2-2.31ZM544.89,550.63c-.85.12-2.91,1.27-2.62,2.35l4.54,2.47c2.3-1.66.77-5.2-1.92-4.82ZM149.26,566.68l-1.46,3.82c.36,2.36,4.26,4.52,3.17,1.11-.58-1.82-1.49-1.1.39-3.86l-2.1-1.07Z"/>
    <path class="cls-7" d="M555.61,287.35l14.74-1.4c-.03,1.28-.31,7.51,1.15,7.78,6.69.01,16.34-4.21,22.46-4.24.8,0,1.46-.03,2.06.6,1.43,1.13,2.01,6.22,2.31,8.23,1.13,7.47,2.14,21.22.48,28.37-1.46,6.26-4.65,9.08-10.54,11.22-2.55.93-8.79,2.58-11.37,2.74-4.54.28-5.55-8.9-7.95-12.21.39-1.82,9.08-1.36,11.54-3.92s2.52-12.76,1.77-16.44c-.16-.81-.19-1.44-1.13-1.7l-10.78,2.55c-1.73,16.38-12.41,30.43-26.21,38.71l-12.38-10.79c9.07-5.79,17.93-14,20.35-24.92-3.3-.93-10.86,2.72-13.36,1.07-.86-.57-4.04-11.95-1.59-12.87s15.38-1.97,16.28-3.01l-.63-8.36c-1.18-1.15-9.81,5.56-11.58,5.42-.78-.06-5.21-4.88-5.95-4.01.32,6.62-.9,13.17-2.11,19.65l-12.57-2.88c-.63-.87,2.26-10.73.67-13.52l-4.25-.45c.9,7.57,2.34,15.1,3.72,22.6,1.63,8.89,7.54,25.06,1.21,32.5-2.71,3.18-15.38,7.17-19.2,5.84-.73-.26-7.63-12.79-7.48-13.55.43-2.18,10.6.24,11.8-3.67.53-1.72-2.64-20.49-3.38-21.27-1.8-.28-1.09.16-1.46.99-1.27,2.8-6.74,19.36-9.41,19.35l-11.3-11.95c5.16-7.76,9.39-16.74,10.95-25.93l-12.63,1.8c-1.34-.82-3.41-11.66-2.48-13.06,1.23-1.85,19.5-3.38,22.84-4.89-1.18-3.09-18.95-6.35-18.96-7.37l4.99-10.82,9.79,1.67,6.28-7.33-26.92,4.14c-1.21-.41-3.56-10.89-3.19-12.09.47-1.55,3.91-2.03,5.4-2.37,12.3-2.81,25.53-3.67,37.77-7.17,2.3-.93,11.46,3.32,11.5,5.17l-13.25,22.59c-.41,1.43,3.49,1.75,4.81,2.73,3.06,2.27-.58,4.34-1.39,6.98.83,1.33,1.09.67,1.96.62,3.06-.18,7.47-1.73,10.27-1.61,2.36.1,5.45,2.73,6.95,2.6,1.11-.1,12.36-6.5,12.38-7.21l-9.47-7.24-5.48,4.67c-1.77-1.17-12.02-5.82-11.66-7.87,4.81-5.22,9.45-12.03,12.46-18.46.97-2.07,4.04-11.76,4.61-12.22,1.67-1.34,12.24.65,15.2.38,1.78,1.21-.6,5.68-1.16,7.36l.76,1.43,33.6-6.24c1.33.43,3.63,10.68,3.17,12.1-.65,2.02-3.96,1.54-5.5,2.26-2.65,1.25-2.78,6.18-3.9,8.73-1.32,3.02-3.23,5.72-4.39,8.81.25,1.74,10.19,2.91,12.13,3.12,1.8.19,8.41-.71,8.76,1.08-1.51,2.2-5.92,14.63-7.44,14.91-4.74-.89-9.62-1.27-14.34-2.27-2.77-.59-9.64-3.47-11.52-3.2-.76.11-6.76,4.88-7.62,5.77-.6.61-1.54.58-1.18,1.97ZM565.43,251.56l-15.43,3.15c1.14,1.39,8.94,6.78,10.07,6.56,1.92-.49,6.12-8.96,5.36-9.72Z"/>
    <path class="cls-7" d="M475.62,396.81c7.75-1.2,15.56-2.29,23.28-3.69,4.5-.82,25.33-6.1,27.95-4.38l3.86,19.33-50.89,9.85,2.78,15.41,60.41-10.9,2.27,1.24,3.69,19.51c-.94,1.38-19.73,3.77-23,4.39-42.05,7.88-85.34,17.73-127.46,24.14-2.55.39-9.34,1.97-11.03.24-1.95-5.9-3.3-12.92-3.5-18.98,1.09-2.14,11.81-2.66,14.69-3.57.78-.25,1.7-.24,1.82-1.33-5.36-2.95-13.68-4.07-18.75-6.87-.78-.43-1.63-.64-1.53-1.79.08-.86,8.27-11.74,9.62-14.28,3.43-6.4,5.87-13.98,7.79-20.98.69-2.52,1.96-12.34,3.55-13.29,8.66-1.13,17.34.96,25.92,1.83l-3.33,13.06.9,1.49,22.87-5.26-2.76-20.52,25.53-5.03c1.61.11,1.8,1.53,2.15,2.81.69,2.51,2.48,16.97,3.15,17.56ZM451.64,424.3l-35.22,6.34c-1.72,1.6-9.62,16.01-8.9,16.71l45.93-8.49.86-.94-2.67-13.63Z"/>
    <path class="cls-7" d="M298.74,474.75c-3.96,7.8-6.96,16.04-10.86,23.87-6.71,13.45-16.95,27.79-22.86,41.01-.37.84-.94,1.39-.66,2.49l20.88-4.73c4.08.21,7.38-1.78,11.25-2.78,8.01-2.07,15.99-4.22,24.03-6.15,1.11-.89.46-.71-.01-1.42-1.99-3.03-18.22-16.19-18.24-17.55l20.56-14.97c10.67,7.88,20.79,16.62,30.32,25.83,4.13,3.99,8.81,8.42,12.62,12.64,2.22,2.45,6.43,6.97,8.12,9.48.42.63.7.77.13,1.53l-22.33,18.5c-1.25.2-.89-.48-1.24-.88-2.13-2.43-7.96-13.65-11.2-13.71l-105.07,29.69c-1.42-3.18-14.41-20.6-13.97-22.34.58-2.3,6.86-4.13,9.04-6.47,9.89-10.56,24.57-44.27,30.52-58.61,1.74-4.19,5.99-19.11,8.04-21.44.35-.4.7-.75,1.24-.89,3.19-.97,9.45,2.25,12.84,3.04,5.63,1.32,11.43,1.68,16.85,3.86Z"/>
    <path class="cls-7" d="M255.13,111.29l-4.12,24.47,7.23-.59c3.43.77,5.41,16,4.07,19.25-1.93,2.53-13.85,2.35-16.22,4.13-1.98,1.49,1.61,11.27,2.81,13.4,3.49.36,14.26-3.75,16.57-1.87,1.18.96,4.08,15.62,3.69,17.11-.21.81-1,1.52-1.81,1.76l-27.15,4.98c-1.57,1.12.59,16.11,4.87,16.91,6.3,1.18,19.58-4.48,26.3-4.59l4.83,17.47c-.37,1.17-3.95,2.85-5.22,3.25-5.61,1.77-28.26,5.95-33.65,5.63-18.84-1.11-18.14-14.82-21.73-28.8-2.11-8.23-7.21-.19-9.33-5.41-.51-1.24-3.03-15.57-2.67-16.31,2.3-3.37,18.26-3.1,19.26-6.07.92-2.74-3.1-8.98-3.54-12.08-4.27-1.47-14.44,5.14-17.06,1.26-1.07-1.58-3.57-15.17-3.2-17.15.58-3.07,6.78-2.61,6.93-4.19l-11.08-21.71c.26-1.12,14.02-7.6,16.3-7.35,1.29.37,13.34,18.66,12.98,20.52-3.02,3.97-8.74,4.76-12.99,7.29-.77.46-1.95.5-.55,1.58l18.43-3.68,4.33-31.12c1.11-.77,21.12.97,21.7,1.89Z"/>
    <path class="cls-7" d="M424.36,280.33c8.28-1.28,20.58.4,15.02-11.99-3.82.89-24.05,3.34-25.62,5.25-.51.62-.73,1.27-.59,2.07l4.91,25c1.78,1.25,37.37-9.12,42.82-6.69,2.97.57,5.55,1.31,5.53,4.86-.03,4.47-1.35,13.6-2.14,18.25-1.09,6.39-3.62,12.54-4.76,18.93,5.55,4.99,13.16,5.9,19.58,9.24-2.05,1.88-6.58,13.34-7.72,14.03-3.85,2.34-15.24-6.53-19.22-7.99l-11.46,13.86c-2.01,1.18-9.84-7.27-10.74-6.22-.43,2.35,1.97,7.08,0,8.78-1.27,1.09-14.64,3.3-15.81,1.76l-19.68-107.38,57.97-10.94c.65.23,1.3.54,1.7,1.14.8,1.22,3.73,18.21,3.88,20.68.54,9.23-1.36,14.1-10.36,16.99-3,.96-15.35,4.11-17.36,2.31-.8-.72-6.66-11.28-5.96-11.93ZM448.93,309.81c-.46-.46-11.51,1.07-12.61,2.53-.76,2.44,7.39,11.12,9.45,12.91l3.16-15.44ZM427.88,353.32c.76.79,6.32-5.13,6.99-5.98,1.27-1.6,3.92-4.78,3.42-6.85l-16.03-20.85,5.61,33.68Z"/>
    <path class="cls-7" d="M197.58,361.65c-2.74.67-12.74,3.29-14.69,1.89l-5.54-24.66c-12.01-.34-8.31,2.87-9.16,11.27-.32,3.14-3.57,17.92-6.75,18.51-4.47-1.23-9.27-4.32-13.92-4.12-1.85.08-15.81,2.54-16.52,3.15-1.88,1.62.3,5.29,0,7.38l-12.9,2.06-1.9-6.2c-.23-.19-.64-.09-.97-.13-4.5-.51-20.46,5.06-23.07,4.21-1.39-.45-3.12-7.58-1.88-8.72,3.02-2.78,21.98-3.14,23.61-5.23l-.82-3.58-19.2,3.5-4.9-26.87c.66-1.93,16.69-3.36,19.59-4.67l-.73-3.49-23.44,3.53-1.44-7.8c.48-.88,1.28-1.04,2.15-1.31,2.91-.92,19.94-2.79,20.63-3.58.38-1.86-2.1-6.01.49-6.88l11.73-1.57,1.47,4.97c.32.56.84.66,1.43.73,4.07.46,17.86-5.24,20.74-3.24.71,1.64,2.55,7.12,1.08,8.14-2.91,2.03-20.88,2.66-21.25,5.2l.54,2.42,19.49-2.65,5.7,27.99-19.66,2.81.66,3.2c2.09,1.48,16.39-3.6,20.03-3.21.91.1,1.55.75,2.13,1.39,4.23-4.72,3.09-10.62,2.37-16.39-.98-7.81-4.15-17.32-4.78-24.74-.17-1.94-.2-3.55,1.87-4.3,2.77-1.01,7.25-1.21,10.89-2.45,4.03-1.38,8.79-3.69,12.71-5.53,2.2-1.03,8.21-5.08,9.4-5.37,3.38-.84,12.87,5.41,16.3,7.23.04,1.72-20.7,9.58-23.67,10.7-2.21.83-8.32,2.15-9.59,3.04-2.24,1.56-.9,8.99,1.28,9.04,4.44-.31,35.17-7.8,36.58-6.31.75.8,2.64,10.58,2.16,11.28-2.1,1.9-11.55,1.66-12.28,3.94-.53,1.64,3.73,17.46,4.07,21.04.14,1.45.28,2.95,0,4.38ZM131.01,336.48c.05-1.12.25-3.06-1.14-3.45s-9.94,1.42-5.42,4.08l6.56-.63ZM109.93,339.96c1.88-5.68-10.87-2.86-5.89,1.37l5.89-1.37ZM132.39,342.8l-6.95,1.45c-.99,5.49,4.42,2.4,7.67,2.04l-.72-3.5ZM111.24,347.11c-.96-.6-5.25.22-6.24.96l.11,3.06c2.17,1.32,9.72-1.79,6.13-4.03Z"/>
    <path class="cls-7" d="M425.05,175.07c.46,3.31.9,6.69,1.61,9.97.77,3.58,3.02,9.71,3.2,13.02.15,2.69-3.45,3.81-5.51,4.7-16.27,7.09-33.32,13.04-49.8,19.68l-28.36,11.42-1.45-1.28-10.6-24.55,47.98-18.71.09-74.3c1.33-.92,29.71-.25,30.62,1.05l-4.5,62.75c.42,1.2,1.07,1.18,2.17,1.05,2.54-.3,13.44-5.76,14.54-4.78Z"/>
    <path class="cls-7" d="M385.17,374.96l-7.12-13.57c0-1.6,9.29-.7,10.39-4.36.49-1.63-2.76-21.73-3.85-21.99l-10.03,1.47c-.29,13.86,1.17,27.92-2.86,41.37l-15.3-6.02,2.74-19.58c-1.74-26.57-8.14-52.48-12.74-78.63.04-2.41.3-2.99,2.54-3.83,4.8-1.81,15.78-2.49,21.65-3.62,3.14-.6,14.56-4.34,16.59-3.09,2.29,4.42,2.85,10.12,3.86,15.1,4.33,21.25,8.59,43.76,12.04,65.16,1,6.2,3.51,16.68,1.85,22.47-1.94,6.77-13.62,9.36-19.77,9.13ZM366.83,294.37l9.51-2.06c1.15-1.59-1.12-9.47-1.75-11.69l-9.83,1.15,2.08,12.6ZM381.51,319.6c.7-.73-.82-10.76-2.03-11.58l-9.06,1.19,1.33,11.81,9.76-1.42Z"/>
    <path class="cls-7" d="M361.68,50.98c1.09-.19,2.3.9,3.03,1.61,3.83,3.71,10.7,12.38,14.01,16.87,8.52,11.54,2.42,8.93-6.23,14.06-.71.42-2.05,1.38-.76,2.05,2.82,1.48,31.56-7.28,37.4-5.82,3.2,1.19,1.78,3.08,2.25,4.75.89,3.18,4.45,16.46,3.38,18.76s-7.44,2.85-10.02,3.37c-24.15,4.87-50.78,10.46-74.95,14.18-3.03.47-7.7,1.86-9.11-1.74-1.06-2.69-3.48-15.84-3.62-18.89-.11-2.5-.17-3.39,2.25-4.6l33.19-6.13c2.37-3.19-12.54-22.33-14.37-26.26.61-3.69,20.38-8.64,23.56-12.24Z"/>
    <path class="cls-7" d="M248.9,298.58c-1.09.13-1.5,2.58-1.76,3.49-1.42,5.1-2.4,10.47-3.67,15.62l15.1,80.11c-.26.92-.94,1.33-1.78,1.65-1.23.47-11.39,2.39-12.46,2.31-.6-.04-1.08-.17-1.4-.72l-10.51-54.06c-.9-1.13-.72-.43-1.41.01-1.79,1.14-2.87,5.21-4.2,4.91l-10.72-14.48c5.24-11.97,11.08-23.21,14.22-36.04.7-2.85,1.66-12.83,2.81-14.09l15.82,1.76c1.34.9.57,3.37-.04,4.6l30.19-5.27c-.1-1.87-3.85-3.9-2.51-5.97l14.8-6.28c2.51.03,4.99,7.92,7.71,8.43l29.36-4.86c1.13.38,5.14,12.79.75,12.52l-76.49,14.12c-3.63.04-2.74-5.19-3.83-7.75Z"/>
    <path class="cls-7" d="M202.55,410.13l-14.5,2.69-3.51-2.53-48.8,8.47c-2.03.41-1.46,3.16-3.11,3.91-.96.44-13.12,2.36-13.78,2.16-1-.3-1.48-1.62-1.7-2.57l-7.13-40.4c.33-1.09,1.63-1.38,2.58-1.68,4.71-1.5,11.87-2.36,16.98-3.37,21.29-4.21,42.75-7.64,64.11-11.48,1.08.35,1.42,1.58,1.7,2.55,2.62,9.11,6.11,27.63,7.11,37.1.18,1.7.15,3.44.04,5.14ZM179.43,379.28l-48.3,8.9-2.14,1.33.61,3.81,49.34-9.27,1-.87-.52-3.9ZM182.23,394.03l-50.23,9.78.48,4.2,49.28-8.49c2.35-.78.42-3.84.47-5.49Z"/>
    <path class="cls-7" d="M311.95,409.58c4.19,7.82,10,17.07,16.25,23.41,4.38,4.44,16.12,14.09,21.4,17.2,2.64,1.55,18.44,8.21,19.01,9.1.52.82.29,1.32.02,2.13-1.03,3.14-6.93,9.92-8.95,13.55-1.83,3.28-3.51,6.73-4.52,10.37-1.57,1.21-9.81-3.98-11.71-5.12-18.54-11.12-35.5-25.92-46.81-44.47-1.19-.73-20.27,4.24-23.59,4.54-5.59.51-3.24-2.71-3.84-6.54-.39-2.48-4.15-14.73-3.39-15.81l46.15-8.36Z"/>
    <path class="cls-7" d="M329.69,351.29l-.16,6.15-16.66,3.7c-.7,10.23,7.6,21.88-4.74,27.89-3.25,1.58-15.67,4.87-18.84,4.33-2.47-.42-5.37-10.3-8.07-12.32.1-1.8,12.29-1.15,14.37-3.15,2.36-2.27-.44-9.57-.67-12.66-1.58-2.23-16.96,2.66-20.35,2.15l-1.11-6.32-14.77,1.8-4.76-21.68,1.81-1.73,81.91-14.2,1.51.63,3.73,21.37-13.2,4.03ZM325.37,340.01l-53.33,10.15c-1.19,1.1-.02,3.04.71,4.25l52.68-9.15.63-.81-.68-4.45Z"/>
    <path class="cls-7" d="M231.15,424.34c7.83.56,15.88.92,23.64,2.05,1.51.22,4.57.49,4.62,2.32.07,2.86-4.97,16.06-6.28,19.73-6.37,17.76-18.33,43.55-30.6,57.83-.82.95-2.11,2.83-3.43,2.85l-23.72-12.08c-.86-.25-1.26-.65-1.25-1.59,0-.82,8.94-10.7,10.43-12.76,12.08-16.68,21-36.24,24.87-56.54l1.72-1.79Z"/>
    <path class="cls-7" d="M352.57,122.62c1.49,1.34,6.77,13.34,8.05,16.17,3.94,8.69,8.4,18.98,11.29,28.01.98,3.07,4.19,12.12,2.98,14.58-.81,1.65-21.15,10.74-23.15,10.56l-1.08-.36c-6.9-19.61-12.84-39.66-20.74-59l.87-1.8,19.4-8.54c.87-.44,1.69-.25,2.38.38Z"/>
    <path class="cls-7" d="M323.21,297.97c.82,6.88,4.06,15.31,4.32,22.05.04,1.01.21,2.09-.71,2.78l-62.84,10.89-4.38-22.29,1.26-1.92,62.35-11.51ZM309.19,311.29l-31.01,4.98c-2.32.91-.32,5.33,1.92,4.8l29.85-5.68-.76-4.1Z"/>
    <path class="cls-7" d="M100.12,283.84c2.54-16.3,2.97-32.98.8-49.35l2.44-1.67,19.51-.13.98,1.11c1.29,12.62,2.43,26.48,1.52,39.16-.17,2.41-1.72,14.67-3.84,14.88l-21.42-4Z"/>
    <path class="cls-7" d="M158.96,268.99c-3.84,1.1-17.13,9.31-20.07,6.26-2.35-8.97-4.14-18.21-7-27.04-1.28-3.96-5.14-10.88-5.67-14.03-.17-1.01-.37-1.89.56-2.65,3.81-.66,15.63-7.34,18.47-6.55.52.14.92.5,1.24.92,1.97,5.87,14.65,39.62,12.47,43.09Z"/>
  </g>
  <g class="cls-31">
    <g>
      <rect class="cls-32" x="-77.89" y="-350.56" width="85.3" height="1020.06" transform="translate(80.6 44.35) rotate(32.72)"/>
      <rect class="cls-9" x="-6.13" y="-304.45" width="85.3" height="1020.06" transform="translate(116.91 12.88) rotate(32.72)"/>
      <rect class="cls-32" x="65.63" y="-258.35" width="85.3" height="1020.06" transform="translate(153.22 -18.6) rotate(32.72)"/>
      <rect class="cls-9" x="137.4" y="-212.24" width="85.3" height="1020.06" transform="translate(189.53 -50.07) rotate(32.72)"/>
      <rect class="cls-9" x="280.93" y="-120.03" width="85.3" height="1020.06" transform="translate(262.15 -113.02) rotate(32.72)"/>
      <rect class="cls-32" x="209.16" y="-166.13" width="85.3" height="1020.06" transform="translate(225.84 -81.55) rotate(32.72)"/>
      <rect class="cls-32" x="352.69" y="-73.92" width="85.3" height="1020.06" transform="translate(298.46 -144.49) rotate(32.72)"/>
      <rect class="cls-9" x="424.46" y="-27.82" width="85.3" height="1020.06" transform="translate(334.77 -175.97) rotate(32.72)"/>
      <rect class="cls-32" x="496.22" y="18.29" width="85.3" height="1020.06" transform="translate(371.07 -207.44) rotate(32.72)"/>
      <rect class="cls-9" x="567.99" y="64.4" width="85.3" height="1020.06" transform="translate(407.38 -238.92) rotate(32.72)"/>
      <rect class="cls-9" x="711.52" y="156.61" width="85.3" height="1020.06" transform="translate(480 -301.87) rotate(32.72)"/>
      <rect class="cls-32" x="639.75" y="110.5" width="85.3" height="1020.06" transform="translate(443.69 -270.39) rotate(32.72)"/>
      <rect class="cls-32" x="783.28" y="202.72" width="85.3" height="1020.06" transform="translate(516.31 -333.34) rotate(32.72)"/>
      <rect class="cls-9" x="855.05" y="248.82" width="85.3" height="1020.06" transform="translate(552.62 -364.82) rotate(32.72)"/>
      <rect class="cls-32" x="926.81" y="294.93" width="85.3" height="1020.06" transform="translate(588.93 -396.29) rotate(32.72)"/>
      <rect class="cls-9" x="998.58" y="341.04" width="85.3" height="1020.06" transform="translate(625.24 -427.77) rotate(32.72)"/>
      <rect class="cls-9" x="1142.1" y="433.25" width="85.3" height="1020.06" transform="translate(697.85 -490.72) rotate(32.72)"/>
      <rect class="cls-32" x="1070.34" y="387.14" width="85.3" height="1020.06" transform="translate(661.54 -459.24) rotate(32.72)"/>
      <rect class="cls-32" x="1213.87" y="479.36" width="85.3" height="1020.06" transform="translate(734.16 -522.19) rotate(32.72)"/>
    </g>
  </g>
  <g>
    <path class="cls-13" d="M755.68,700.76c-50.64-33.35-108.36-111.19-121.1-170.81-15.23-71.29,14.56-166.83,73.86-210.93,20.24-15.05,43.69-27.36,69.26-29.51,3.02-26.08,28.22-55.17,56.27-52.06,15.54,1.72,27.64,17.69,33.74,30.93.44.63,1.05.84,1.78.91,2.38.21,15.93-4.99,19.73-5.99,50.03-13.11,108.7-18.49,159.8-8.85,6,1.13,11.78,3.26,17.81,4.23,8.86-15.64,21.34-33.42,39.6-38.58,34.85-9.85,78.89,38.09,68.42,71.99-5.13,16.63-24.22,28.35-40.1,32.99-.66.75,5.4,14.8,6.22,17.25,21.47,64.44,5.71,133.6,11.64,200.12,27.51,27.74,48.42,64.82,61.21,101.8,15.69,45.35,20.51,87.26-.24,131.82-15.03,17.49-30.45,34.78-51.7,46.43-60.45,33.12-147.95,34.63-211.97,10.88-9.83-3.65-20.17-7.56-27.72-14.78l-2.5.53c-5.77-4.66-10.77-10.14-15.01-16.47-25.95,7.18-24.26,12.46,5.07,15.84l.93,1.87,7.97.89c1.07-2.58,3.1-2.29,4.43,0l.65-.78c25.29,19.47,51.08,29.51,82.87,34.4,65.68,10.09,144.91.21,189.8-53.63l3.91-2.14c.36,47.07-3.35,94.18-11.47,140.53l.35,1.22c22.9,15.66,33.86,38.53,16.63,63.57-9.91,14.41-25.39,24.05-42.67,26.86.66,25.68,1.82,51.79.88,77.53-.74,20.39-4.5,70.36-16.89,85.88-9.59,12.01-35.61,18.39-50.46,19.96l-4.11,2.17c-10.94.87-21.96,1.18-32.96.74-.59-.02-1.15-.6-1.7-1.34-1.04.97-2.22,1.18-3.58,1.1-8.15-.49-16.66-1.3-24.29-2.58-4.64-.78-20.61-3.59-22.79-6.45-.37-.49-.65-1.04-.9-1.62-7.18.93-16.22-6.72-21-12.15-.63-.71-.88-1.5-.67-2.47-.72.07-1.33.05-1.56-.26-3.99-5.22-9.52-14.29-7.77-20.57-6.19-22.53-8.66-62.53-7.09-85.95-.82-8.44-1.02-16.58-.3-25.14,1.39-16.58,3.17-34.28,6.29-51.34-7.24,19.11-10.56,40.69-7.47,61.36l-.35,4.62c-32.73.2-68.47-3.81-99.37-14.53-37.31-12.94-62.57-40.01-83.16-72.8,28.53,69.14,100.55,95.9,171.09,90.31l4.41,1.32c-.11,8.12.13,16.27.04,24.4-.35,31.2,2.71,68.08-30.44,83.85-12.94,6.16-32.33,9.72-46.66,9.59l-4.45,1.69c-25.85-.84-54.71-5.12-74.79-22.39-.33-.29-.3-.99-.17-1.82-.81.23-1.51.35-1.83.05-5.13-4.73-10.88-11.06-12.8-17.61-3.46-3.57-9.52-18.45-7.88-22.56.05-.12,1.5,1.35-.83-.28,1.62-4.88-3.48-24.75-4.32-31.56-4.65-37.78-4.38-73.85-6.27-111.57-1.57-31.39-8.14-42.12-16.6-70.22-18.48-61.35-16.01-121.51-3.56-183.79,1.04-5.21,6.86-32.61,8.62-35.24-.45-3.13-1.04-3.43-1.77-.89Z"/>
    <path class="cls-22" d="M1213.59,776.07c-3.86,8.28-7.78,15.71-13.29,23.04-47.13,62.72-146.39,70.27-217.18,52.9-20.63-5.06-37.47-13.58-54.26-26.35-2.16-1.65-2.82-3.88-5.78-4.4-2.5-.5-3.03-.96-.89-2.66,67.76,38.96,184.88,39.96,250.05-4.59,16.55-11.32,24.68-22.8,38.12-36.31,1.01-1.02.62-2.31,3.23-1.63Z"/>
    <path class="cls-17" d="M959.4,1079.1c-23.56,2.77-43.46.38-66.72-3.69-55.14-9.66-95.92-46.03-114.84-98.2,6.67,6.61,11.35,15.66,16.98,23.32,31.98,43.43,58.8,58.5,112.14,67.69,19.38,3.34,38.95,5.11,58.64,5.57-3.58-18.73-1.45-39.95,4.4-58.06,1.47-4.57,3.65-11.53,7.11-14.59-2.31,15.11-4.82,30.39-6.19,45.64-.41,4.61-2.32,23.54-1.58,26.38.23.91,1.87,1.99,1.56,2.39-.06.07-1.54-.24-1.77.59-.5,1.82.2,5.48-.02,7.86-.13,1.43-.85,1.24-.86,1.31-1-1.31-1.08-6.44-1.87-6.99-1-.69-5.31.59-6.99.79Z"/>
    <path class="cls-26" d="M882.34,1196.94c-5.98,5.58-14.27,11.46-21.54,15.23-3.07,1.59-19.8,10.12-19.88,3.14-.06-5.72,4.71-14.11,5.09-20.13-5.87,3.53-10.28,9.05-16.02,12.76-1.22.79-8.7,4.96-9.22,4.93-5.29-.28,4.14-22.55,3.1-23.9-5.18,2.11-23.56,18.1-28.39,14.68-1.33-.94-.79-2.89-.63-4.25.91-7.57,5.87-17.04,7.76-24.6-5.32,2-30.38,15.53-27.03,1.76,1.49-6.12,8.86-13.81,11.98-19.48-2.02-1.67-31.09,21.65-17.87-6.81,2.33-5.01,8.43-11.79,9.9-16.24,2.5-1.61,1.46-.82,1.9,1.19,10.76,49.61,55.29,61.29,100.84,61.72Z"/>
    <path class="cls-1" d="M1096.68,1214.66c-7.29,7.78-17.94,17.74-27.44,22.61-4.48,2.29-12.16,6.76-12.36-1.03l1.27-19.8c-4.2,4.46-19.01,22.86-24.65,22.8-1.55-.02-2.26-.58-2.42-1.95-.93-7.63,1.6-15.07,1.82-22.63-7.07,3.71-21.5,20.89-28.88,21.25-1,.05-1.96.13-2.6-.82-2.21-3.26,4.25-22.48,4.03-27.52-1.23-.87-.93-1.17.89-.89,24.2,9.74,64.57,10.7,90.34,7.97Z"/>
    <path class="cls-25" d="M1006.34,1206.69c-.24.31-.53.72-.89.89-6.02,2.72-11.31,7.02-17.46,9.56-5.25,2.16-14.02,6.34-12.26-3.39,1.19-6.59,6.49-14.63,8.47-21.22-1.72-1.43-34.21,20.77-20.2-5.6,2.86-5.38,7.27-11.15,11.34-15.68,4.78,17.41,14.09,28.63,31,35.44Z"/>
    <path class="cls-11" d="M755.68,700.76c.5-11.18,4.02-23.18,7.33-33.86,2.66-8.56,6.14-18.4,9.73-26.6,1.98-4.53,4.53-10.36,7.73-13.97-.68,5.7-2.45,11.32-3.98,16.83-3.77,13.57-12.81,49.15-19.04,58.48-.56-.33-1.23-.53-1.77-.89Z"/>
    <path class="cls-23" d="M781.37,398.62c10.35-2.05,30.15-1.33,41.22-.92,35.78,1.31,74.52,7.65,105.53,26.45,45.31,27.46,29.79,74.95-8.66,99.78-38.24,24.7-75.88,26.28-119.66,17.96-7.11-1.35-14.07-3.36-21.09-5.03-1.03.95,4.12,5.5,4.89,6.17,3.6,3.13,15.76,11.62,19.9,13.32,1.34.89,1.73,1.51,0,1.77,0,1.5.89,5.71-1.22,5.23-8.52-1.96-23.32-11.25-29.35-17.61-3.6-3.79-7.46-12.08-10.21-14.6-3.05-2.81-14.16-7.11-18.83-10.4-19.38-13.66-21.03-35.97-20.13-57.9,1.34-32.95,8.21-41.4,37.24-55.34,5.56-3.81,11.92-7.87,18.62-10.19l1.75,1.33Z"/>
    <path class="cls-27" d="M865.51,732.66c-37.45-1.63-59.69-70.74-66.15-100.84-1.12-5.21-7.08-34.95-3.81-37.38,4.45,5.43,6.7,13.42,9.86,19.81,10.26,20.73,33.36,63.25,60.52,61.7,33.18-1.9,78.5-62.05,100.53-85.52,3.31-3.53,8.81-9.62,12.42-12.39.89-.68,1.12-1.72,2.66-1.32,2.96,3.38-11.49,38.22-14.01,44.01-4.14,9.5-17.98,40-24.07,46.36,1.23,2.91-4.25,5.99-6.2,3.54-1.63-3.12-2.81-1.94-3.54,3.54.22,1.44,1.4,5.89,1.31,6.2-1.32,4.69-9.99,13.19-12.82,17.72-.22,1.21-.71,2.13-1.9,1.94-10.09-1.23-20.09-1.55-29.99-.94,1.76,6.2,5.31,12.01,10.66,17.42l-.91,1.96c1.13,1.19.67,1.16-.89.89l-1.47,1.85-12.69,1.3c-8.97-.05-12.78,3.25-11.44,9.9-1.37,1.47-6,.71-8.05.24Z"/>
    <path class="cls-18" d="M1114.86,248.47c10.88.37,24.61,15.02,27.63,25.03,5.71,18.94-8.76,32.4-25.46,37.83-10.73,3.49-9.08-2.99-13.78-10.09-5.63-8.51-13.67-14.65-19.72-22.5,5.24-11.58,16.86-30.75,31.32-30.26Z"/>
    <path class="cls-20" d="M973.57,689.24c17-1.06,36.93,5.36,54.43,6.24,12,.6,23.81.32,34.92-4.56.4-21.93-11.24-42.29-17.6-62.81,12.55,17.4,21.21,39.02,24.83,60.21.6.58,12.51-1.51,14.3-2.01,4.73-1.33,6.04-3.25,9.25-4.93,3.65-1.92,14.93-.61,12.73,2.53-.61.88-11.37,5.08-13.31,5.74-9.01,3.07-17.81,6.53-26.73,9.59-38.46,13.21-78.22-5.12-117.61-5.57l1.17-2.37c7.2-1.85,16.83-3.98,23.63-2.06Z"/>
    <path class="cls-2" d="M1008.01,375.67c1.11,13.16-10.6,41.86-27.3,30.42-10.99-7.52-12.96-26.61-11.47-38.83,1.31-10.7,4.27-5.43,9.63-2.75,9.28,4.65,18.73,9.63,29.15,11.15Z"/>
    <path class="cls-34" d="M922.2,698.1l5.31,2.65c-12.27,5.43-21.79,15.78-27.6,27.77l-5.59,17.4c-1.36-.78-2.87-1.21-4.28-1.9-4.61-2.22-11.09-8.24-15-9.8-3.4-1.36-6.55.3-9.52-1.56,1.15.05,5.98.22,6.2,0,.68-.66-2.28-7.87,4.39-10.23,4.05-1.43,18.42-2.91,23.06-3.06,2.6-.12,2.89-.41.89-.89-1.92-4.06-14.55-15.76-11.14-20.43,2.68-3.67,28.01,1.17,33.28.05Z"/>
    <path class="cls-28" d="M894.74,747.72c-2.36,17.52,1.06,36.03,9.75,51.38-2.06,1.51-27.97-7.06-30.18-10.11-6.4-8.84,15.72-11.72,20.43-14.24-7.53-4.13-16.34-6.33-23.61-10.93-19.48-12.31,15.71-14.69,23.62-16.09Z"/>
    <path class="cls-18" d="M824.77,297.61l-2.3.25c-5.42-3.14-12.04-3.52-18.19-3.81l-1.66-1.76c.37-15.78,17.75-32.62,33.9-28.16,3.2.89,12.29,10.02,11.19,13.39-.34,1.03-14.99,9.75-17.67,12.51-2.14,2.21-3.46,5.12-5.28,7.56Z"/>
    <path class="cls-29" d="M803.51,556.34c48.17,19.78,100.04,3.3,147.73-6.83,2.17-.46,5.2-1.55,7.28-.7-21.8,8.52-44.66,15.42-67.91,18.9-21.76,3.26-48.79,5.41-69.85-1.6-6.08-2.02-11.17-6.02-17.24-8v-1.77Z"/>
    <path class="cls-6" d="M781.37,388.87c-2.24,8.38-13.4,15.43-21.26,17.72-.7.26-7.28,2.21-6.19-.43,12.24-11.4,25.45-23.08,34.36-37.4,3.78-6.08,6.69-14.72,10.94-20.07.99-1.24,1.5-2.38,3.4-2.35l2.11,1.24c7.47-2.33,14.51-5.49,21.1-9.46l2.47.24c-1.27,7.61-6.51,10.83-13.3,13.72-2.51,1.06-10.85,2.94-11.95,3.99-.65.62-4.34,10.59-6.07,13.42-4.01,6.55-10.38,13.72-15.61,19.38Z"/>
    <path class="cls-28" d="M973.57,689.24c-.12,0-.99.84-2.14.92-7.48.54-15.7.46-22.66,3.51-1.06-.01-2.1.42-3.13.6-2.17-.41-7.92-18.7-8.38-21.86-1.73-.48-1.72-1.27,0-1.77,1.81-.51,4.99-2.28,6.2-3.54,11.55,5.14,22.06,12.28,30.11,22.15Z"/>
    <path class="cls-3" d="M823.87,358.75c2.72,9.77.3,45.46-17.44,35.62-4.84-2.69-10.38-18.86-7.84-22.39.64-.88,10.98-3.38,12.78-4.93l12.5-8.3Z"/>
    <path class="cls-14" d="M1161.34,1013.53c-1.35-8.91,6.56-15.09,10.78-22.44,2.97-5.18,5.3-10.82,7.6-16.32l9.07-31.23c3.1,20.53-3.41,45.62-16.84,61.55-1.06,1.26-9.23,9.96-10.6,8.44Z"/>
    <path class="cls-33" d="M922.2,818.6l.89,2.66c-1.26-.22-3.02.07-4.43,0l-7.97-.89c-4.33-.29-25.2-3.75-26.48-7.67-2.17-6.65,16.97-8.91,20.74-12.49,5.47,6.38,9.72,14.06,17.26,18.4Z"/>
    <path class="cls-15" d="M826.54,309.13c3.07,1.17,9.6,5.31,5.8,8.9-3.94,3.73-21.66,5.16-27.05,9.7.17-6.36.14-12.5-1.78-18.61l-.53-3.12c.53-1.54,20.62-.73,23.14,1.3l.43,1.82Z"/>
    <path class="cls-15" d="M828.31,338.37c-7.19,6.46-17.64,7.91-26.13,12.4-.71-.95.21-3.16.45-4.42,1.12-5.87,2.41-11.7,2.67-17.71,6.04-.08,20.31-1.09,23.26,5.56,1.11,2.49.02,2.6-.24,4.18Z"/>
    <path class="cls-20" d="M975.81,333.06c2.6-.77,6.28,5.62,8.38,7.53,10.31,9.42,20.74,8.75,30.75,14.42,7.47,4.24-6.86,3.92-9.82,3.62-10.18-1.02-32.25-9.95-30.71-22.53.13-1.04.2-2.7,1.4-3.05Z"/>
    <path class="cls-24" d="M802.63,292.3c5.31-.15,18.71.95,22.14,5.32,1.08,1.38,1.57,4.4,1.77,6.2l-1.21,1.63c-8.05-1.6-15.03-1.94-23.03-.19l-1.44-1.44c-1.07-1.97-2.11-4.02-3.55-5.76-1.52-1.84-4.42-2.3-4.42-4.87,3.32-.17,6.38-.79,9.74-.89Z"/>
    <path class="cls-4" d="M826.54,303.81c.19,1.71-.13,3.58,0,5.32-4.59-1.75-15.34-2.69-20.09-1.9-1.66.27-3.46-.71-2.94,1.9-.56-1.78-1.77-3.68-2.66-5.32l11.96-1.83,13.73,1.83Z"/>
    <path class="cls-5" d="M781.37,398.62c-2.64.52-16.91,7.2-20.37,8.86l-.89-.89c7.14-2.63,16.1-12.13,21.26-17.72,1.98,2.35-.94,6.5,0,9.75Z"/>
    <path class="cls-8" d="M933.71,674.18c-.04-.25-.91-.85-.93-2.14-.05-3.33.85-5.99,4.47-4.95.05,1.18-.04,2.37,0,3.55.02.58-.08,1.22,0,1.77-2.23.11-4.1-.89-3.54,1.77Z"/>
    <path class="cls-22" d="M918.65,821.26c-2.66-.14-5.79.75-7.97-.89,2.54.17,6.17-.83,7.97.89Z"/>
    <path class="cls-13" d="M753.73,431.66c8.86-.9,20.95-.64,29.73.75,9.42,1.48,13.06,1.08,7.81,11.12-3.39,6.47-19.45,24.35-27.04,23.95-7.1-.37-22.62-17.65-24.1-24.5-2.19-10.14,5.11-10.45,13.59-11.31Z"/>
    <path class="cls-16" d="M818.56,516.46c-9.14-2.56-21.33-11.85-31.02-9.32-3.26.85-8.03,4.91-11.07,5.76-3.77,1.06.58-5.98,1.76-7.11,11.6-11.09,34.66-3.4,40.33,10.66Z"/>
    <path class="cls-12" d="M900.05,718.48c2.02-1.09,2.32-.36,3.54,1.76-1.43.81-4.12-.89-4.43-.88.34-.21.6-.73.89-.89Z"/>
    <path class="cls-30" d="M983.08,396.61c-9.49,8.9-14.66-19.93-2.19-16.45,4.98,1.39,5.43,13.41,2.19,16.45Z"/>
    <path class="cls-21" d="M806.78,376.62c7.52-2.31,8.24,13.43,4.11,14.79-7.39,2.44-9.71-13.07-4.11-14.79Z"/>
  </g>
  <text class="cls-35" transform="translate(-328.34 464.29)"><tspan x="0" y="0">預計暫停時間</tspan></text>
</svg>