<svg width="15" height="18" viewBox="0 0 15 18" fill="none" xmlns="http://www.w3.org/2000/svg">
<path d="M13.5549 2.62512L10.3836 2.61979L10.3845 2.0942C10.386 1.22337 9.61272 0.516136 8.65736 0.514531L6.35096 0.510656C5.39561 0.509051 4.61998 1.21368 4.61851 2.08452L4.61763 2.6101L1.44633 2.60478C0.650226 2.60344 0.00384145 3.19065 0.0026223 3.91633L0.00085629 4.9675C0.000368595 5.25779 0.25811 5.49353 0.576573 5.49406L14.415 5.51731C14.7334 5.51784 14.992 5.28298 14.9925 4.99269L14.9942 3.94151C14.9954 3.21584 14.351 2.62646 13.5549 2.62512ZM5.77171 2.08645C5.7722 1.79672 6.03135 1.5613 6.3492 1.56183L8.6556 1.56571C8.97345 1.56624 9.2318 1.80253 9.23132 2.09227L9.23043 2.61785L5.77083 2.61204L5.77171 2.08645Z" fill="white"/>
<path d="M1.17571 6.49444C1.07415 6.49427 0.993098 6.57404 0.997775 6.66956L1.4517 15.9486C1.49365 16.8073 2.24162 17.4811 3.15435 17.4826L11.7972 17.4971C12.7099 17.4986 13.4601 16.8274 13.505 15.9688L13.9901 6.69137C13.9951 6.59587 13.9143 6.51582 13.8127 6.51565L1.17571 6.49444ZM9.76846 7.84848C9.76895 7.55242 10.024 7.31306 10.3385 7.31359C10.6529 7.31412 10.9072 7.55433 10.9067 7.85039L10.895 14.8164C10.8945 15.1124 10.6394 15.3518 10.325 15.3512C10.0105 15.3507 9.75625 15.1105 9.75674 14.8144L9.76846 7.84848ZM6.92285 7.8437C6.92335 7.54765 7.17843 7.30828 7.49287 7.30881C7.80731 7.30934 8.06159 7.54956 8.06109 7.84561L8.04938 14.8116C8.04888 15.1076 7.7938 15.347 7.47936 15.3465C7.16492 15.3459 6.91064 15.1057 6.91114 14.8097L6.92285 7.8437ZM4.07725 7.83892C4.07775 7.54287 4.33283 7.30351 4.64727 7.30403C4.96171 7.30456 5.21599 7.54478 5.21549 7.84083L5.20378 14.8068C5.20328 15.1029 4.9482 15.3422 4.63376 15.3417C4.31932 15.3412 4.06504 15.1009 4.06554 14.8049L4.07725 7.83892Z" fill="white"/>
</svg>
