<svg width="20" height="20" viewBox="0 0 20 20" fill="none" xmlns="http://www.w3.org/2000/svg">
<path id="Subtract" fill-rule="evenodd" clip-rule="evenodd" d="M10 0.25C4.61522 0.25 0.25 4.61522 0.25 10C0.25 15.3848 4.61522 19.75 10 19.75C15.3848 19.75 19.75 15.3848 19.75 10C19.75 4.61522 15.3848 0.25 10 0.25ZM9.46967 14.2803C9.61032 14.421 9.80109 14.5 10 14.5C10.1989 14.5 10.3897 14.421 10.5303 14.2803L13.5303 11.2803C13.8232 10.9874 13.8232 10.5126 13.5303 10.2197C13.2374 9.92678 12.7626 9.92678 12.4697 10.2197L10.75 11.9393L10.75 6.25C10.75 5.83579 10.4142 5.5 10 5.5C9.58579 5.5 9.25 5.83579 9.25 6.25L9.25 11.9393L7.53033 10.2197C7.23744 9.92678 6.76256 9.92678 6.46967 10.2197C6.17678 10.5126 6.17678 10.9874 6.46967 11.2803L9.46967 14.2803Z" fill="#0F172A"/>
</svg>
