<svg width="17" height="22" viewBox="0 0 17 22" fill="none" xmlns="http://www.w3.org/2000/svg">
<g id="Subtract">
<path d="M1.875 0.5C0.839467 0.5 0 1.33947 0 2.375V19.625C0 20.6605 0.839466 21.5 1.875 21.5H14.625C15.6605 21.5 16.5 20.6605 16.5 19.625V11.75C16.5 9.67893 14.8211 8 12.75 8H10.875C9.83947 8 9 7.16053 9 6.125V4.25C9 2.17893 7.32107 0.5 5.25 0.5H1.875Z" fill="#2D92C1"/>
<path d="M9.22119 0.815905C10.018 1.73648 10.5 2.93695 10.5 4.25V6.125C10.5 6.33211 10.6679 6.5 10.875 6.5H12.75C14.0631 6.5 15.2635 6.98204 16.1841 7.77881C15.2962 4.37988 12.6201 1.70377 9.22119 0.815905Z" fill="#2D92C1"/>
</g>
</svg>
