<svg width="26" height="26" viewBox="0 0 26 26" fill="none" xmlns="http://www.w3.org/2000/svg">
<path id="Vector (Stroke)" fill-rule="evenodd" clip-rule="evenodd" d="M11 2C6.02944 2 2 6.02944 2 11C2 15.9706 6.02944 20 11 20C13.4856 20 15.7342 18.9937 17.364 17.364C18.9937 15.7342 20 13.4856 20 11C20 6.02944 15.9706 2 11 2ZM0 11C0 4.92487 4.92487 0 11 0C17.0751 0 22 4.92487 22 11C22 13.6771 21.0426 16.1321 19.4532 18.039L25.7071 24.2929C26.0976 24.6834 26.0976 25.3166 25.7071 25.7071C25.3166 26.0976 24.6834 26.0976 24.2929 25.7071L18.039 19.4532C16.1321 21.0426 13.6771 22 11 22C4.92487 22 0 17.0751 0 11ZM11 6C11.5523 6 12 6.44772 12 7V10H15C15.5523 10 16 10.4477 16 11C16 11.5523 15.5523 12 15 12H12V15C12 15.5523 11.5523 16 11 16C10.4477 16 10 15.5523 10 15V12H7C6.44772 12 6 11.5523 6 11C6 10.4477 6.44772 10 7 10H10V7C10 6.44772 10.4477 6 11 6Z" fill="white"/>
</svg>
